M48
; DRILL file {KiCad 8.0.5} date 2025-07-27T14:10:44-0700
; FORMAT={-:-/ absolute / inch / decimal}
; #@! TF.CreationDate,2025-07-27T14:10:44-07:00
; #@! TF.GenerationSoftware,Kicad,Pcbnew,8.0.5
; #@! TF.FileFunction,Plated,1,2,PTH
FMAT,2
INCH
; #@! TA.AperFunction,Plated,PTH,ComponentDrill
T1C0.0315
; #@! TA.AperFunction,Plated,PTH,ComponentDrill
T2C0.0354
; #@! TA.AperFunction,Plated,PTH,ComponentDrill
T3C0.0394
; #@! TA.AperFunction,Plated,PTH,ComponentDrill
T4C0.0433
%
G90
G05
T1
X5.1181Y-2.1063
X5.1181Y-2.2047
X5.8441Y-4.5079
X5.8441Y-4.7047
X6.1122Y-2.1063
X6.1122Y-2.2047
X6.1441Y-4.5079
X6.1441Y-4.7047
X6.2008Y-4.102
X6.2008Y-4.402
X6.4272Y-4.102
X6.4272Y-4.402
T2
X4.8114Y-3.0413
X4.9114Y-3.0413
X6.3567Y-3.1201
X6.4567Y-3.1201
T3
X4.7835Y-5.3632
X4.7835Y-5.4632
X4.8622Y-2.1244
X4.8622Y-2.2244
X4.8622Y-2.3244
X5.0394Y-5.3622
X5.0394Y-5.4622
X5.0394Y-5.5622
X5.0394Y-5.6622
X5.3642Y-5.0496
X5.3642Y-5.1496
X5.3642Y-5.2496
X5.3642Y-5.3496
X5.3642Y-5.4496
X5.3642Y-5.5496
X5.3642Y-5.6496
X5.4654Y-3.9776
X5.5293Y-2.1457
X5.5654Y-3.9776
X5.6293Y-2.1457
X5.6654Y-3.9776
X5.7293Y-2.1457
X5.7654Y-3.9776
X5.9646Y-5.0496
X5.9646Y-5.1496
X5.9646Y-5.2496
X5.9646Y-5.3496
X5.9646Y-5.4496
X5.9646Y-5.5496
X5.9646Y-5.6496
X6.3976Y-2.1244
X6.3976Y-2.2244
X6.3976Y-2.3244
T4
X4.813Y-4.8031
X4.813Y-4.9803
X5.0689Y-4.8031
X5.0689Y-4.9803
X6.2008Y-4.8228
X6.2008Y-5.0
X6.4567Y-4.8228
X6.4567Y-5.0
M30
