%TF.GenerationSoftware,KiCad,Pcbnew,8.0.5*%
%TF.CreationDate,2025-07-27T14:10:40-07:00*%
%TF.ProjectId,Cashout Station,43617368-6f75-4742-9053-746174696f6e,rev?*%
%TF.SameCoordinates,Original*%
%TF.FileFunction,Copper,L2,Bot*%
%TF.FilePolarity,Positive*%
%FSLAX46Y46*%
G04 Gerber Fmt 4.6, Leading zero omitted, Abs format (unit mm)*
G04 Created by KiCad (PCBNEW 8.0.5) date 2025-07-27 14:10:40*
%MOMM*%
%LPD*%
G01*
G04 APERTURE LIST*
%TA.AperFunction,ComponentPad*%
%ADD10R,1.700000X1.700000*%
%TD*%
%TA.AperFunction,ComponentPad*%
%ADD11O,1.700000X1.700000*%
%TD*%
%TA.AperFunction,ComponentPad*%
%ADD12R,1.800000X1.800000*%
%TD*%
%TA.AperFunction,ComponentPad*%
%ADD13C,1.800000*%
%TD*%
%TA.AperFunction,ComponentPad*%
%ADD14C,1.600000*%
%TD*%
%TA.AperFunction,ComponentPad*%
%ADD15O,1.600000X1.600000*%
%TD*%
%TA.AperFunction,ComponentPad*%
%ADD16R,1.600000X1.600000*%
%TD*%
%TA.AperFunction,ComponentPad*%
%ADD17C,1.700000*%
%TD*%
%TA.AperFunction,ComponentPad*%
%ADD18C,2.000000*%
%TD*%
%TA.AperFunction,Conductor*%
%ADD19C,0.200000*%
%TD*%
G04 APERTURE END LIST*
D10*
%TO.P,BT1,1,+*%
%TO.N,Net-(BT1-+)*%
X121500000Y-136225000D03*
D11*
%TO.P,BT1,2,-*%
%TO.N,GND*%
X121500000Y-138765000D03*
%TD*%
D10*
%TO.P,M1,1,PWM*%
%TO.N,Net-(M1-PWM)*%
X123500000Y-53960000D03*
D11*
%TO.P,M1,2,+*%
%TO.N,+5V*%
X123500000Y-56500000D03*
%TO.P,M1,3,-*%
%TO.N,GND*%
X123500000Y-59040000D03*
%TD*%
D10*
%TO.P,J1,1,Pin_1*%
%TO.N,GND*%
X145525000Y-54500000D03*
D11*
%TO.P,J1,2,Pin_2*%
%TO.N,+5V*%
X142985000Y-54500000D03*
%TO.P,J1,3,Pin_3*%
%TO.N,Net-(J1-Pin_3)*%
X140445000Y-54500000D03*
%TD*%
D12*
%TO.P,D1,1,K*%
%TO.N,GND*%
X122210000Y-77250000D03*
D13*
%TO.P,D1,2,A*%
%TO.N,Net-(D1-A)*%
X124750000Y-77250000D03*
%TD*%
D14*
%TO.P,R3,1*%
%TO.N,Net-(U1-GPIO22{slash}D4{slash}SDA)*%
X163250000Y-111810000D03*
D15*
%TO.P,R3,2*%
%TO.N,Net-(NFC_Connect1-SDA)*%
X163250000Y-104190000D03*
%TD*%
D14*
%TO.P,R1,1*%
%TO.N,Net-(D1-A)*%
X148440000Y-114500000D03*
D15*
%TO.P,R1,2*%
%TO.N,Net-(U1-GPIO21{slash}D3)*%
X156060000Y-114500000D03*
%TD*%
D12*
%TO.P,D2,1,K*%
%TO.N,GND*%
X161460000Y-79250000D03*
D13*
%TO.P,D2,2,A*%
%TO.N,Net-(D2-A)*%
X164000000Y-79250000D03*
%TD*%
D10*
%TO.P,U2,1,VIN+*%
%TO.N,Net-(BT1-+)*%
X128000000Y-136200000D03*
D11*
%TO.P,U2,2,OUT+*%
%TO.N,+5V*%
X128000000Y-138740000D03*
%TO.P,U2,3,OUT-*%
%TO.N,GND*%
X128000000Y-141280000D03*
%TO.P,U2,4,VIN-*%
X128000000Y-143820000D03*
%TD*%
D16*
%TO.P,C2,1*%
%TO.N,+5V*%
X155250000Y-53500000D03*
D14*
%TO.P,C2,2*%
%TO.N,GND*%
X155250000Y-56000000D03*
%TD*%
D10*
%TO.P,M2,1,PWM*%
%TO.N,Net-(M2-PWM)*%
X162500000Y-53960000D03*
D11*
%TO.P,M2,2,+*%
%TO.N,+5V*%
X162500000Y-56500000D03*
%TO.P,M2,3,-*%
%TO.N,GND*%
X162500000Y-59040000D03*
%TD*%
D10*
%TO.P,U1,1,GPIO0/A0/D0*%
%TO.N,Net-(M1-PWM)*%
X151500000Y-143500000D03*
D17*
%TO.P,U1,2,GPIO1/A1/D1*%
%TO.N,Net-(M2-PWM)*%
X151500000Y-140960000D03*
%TO.P,U1,3,GPIO2/A2/D2*%
%TO.N,Net-(U1-GPIO2{slash}A2{slash}D2)*%
X151500000Y-138420000D03*
%TO.P,U1,4,GPIO21/D3*%
%TO.N,Net-(U1-GPIO21{slash}D3)*%
X151500000Y-135880000D03*
%TO.P,U1,5,GPIO22/D4/SDA*%
%TO.N,Net-(U1-GPIO22{slash}D4{slash}SDA)*%
X151500000Y-133340000D03*
%TO.P,U1,6,GPIO23/D5/SCL*%
%TO.N,Net-(U1-GPIO23{slash}D5{slash}SCL)*%
X151500000Y-130800000D03*
%TO.P,U1,7,GPIO16/D6/TX*%
%TO.N,Net-(J1-Pin_3)*%
X151500000Y-128260000D03*
%TO.P,U1,8,GPIO17/D7/RX*%
%TO.N,Net-(U1-GPIO17{slash}D7{slash}RX)*%
X136250000Y-128260000D03*
%TO.P,U1,9,GPIO19/D8/SCK*%
%TO.N,Net-(U1-GPIO19{slash}D8{slash}SCK)*%
X136250000Y-130800000D03*
%TO.P,U1,10,GPIO20/D9/MISO*%
%TO.N,unconnected-(U1-GPIO20{slash}D9{slash}MISO-Pad10)*%
X136250000Y-133340000D03*
%TO.P,U1,11,GPIO18/D10/MOSI*%
%TO.N,unconnected-(U1-GPIO18{slash}D10{slash}MOSI-Pad11)*%
X136250000Y-135880000D03*
%TO.P,U1,12,3V3*%
%TO.N,+3.3V*%
X136250000Y-138420000D03*
%TO.P,U1,13,GND*%
%TO.N,GND*%
X136250000Y-140960000D03*
%TO.P,U1,14,VBUS*%
%TO.N,+5V*%
X136250000Y-143500000D03*
%TD*%
D10*
%TO.P,NFC Connecter,1,SCL*%
%TO.N,Net-(NFC_Connect1-SCL)*%
X146440000Y-101030000D03*
D11*
%TO.P,NFC Connecter,2,SDA*%
%TO.N,Net-(NFC_Connect1-SDA)*%
X143900000Y-101030000D03*
%TO.P,NFC Connecter,3,VCC*%
%TO.N,+3.3V*%
X141360000Y-101030000D03*
%TO.P,NFC Connecter,4,GND*%
%TO.N,GND*%
X138820000Y-101030000D03*
%TD*%
D16*
%TO.P,C1,1*%
%TO.N,+5V*%
X130000000Y-53500000D03*
D14*
%TO.P,C1,2*%
%TO.N,GND*%
X130000000Y-56000000D03*
%TD*%
%TO.P,R4,1*%
%TO.N,Net-(D2-A)*%
X148440000Y-119500000D03*
D15*
%TO.P,R4,2*%
%TO.N,Net-(U1-GPIO2{slash}A2{slash}D2)*%
X156060000Y-119500000D03*
%TD*%
D14*
%TO.P,R2,1*%
%TO.N,Net-(U1-GPIO23{slash}D5{slash}SCL)*%
X157500000Y-111810000D03*
D15*
%TO.P,R2,2*%
%TO.N,Net-(NFC_Connect1-SCL)*%
X157500000Y-104190000D03*
%TD*%
D18*
%TO.P,SW2,1,1*%
%TO.N,Net-(U1-GPIO19{slash}D8{slash}SCK)*%
X128750000Y-122000000D03*
X122250000Y-122000000D03*
%TO.P,SW2,2,2*%
%TO.N,GND*%
X128750000Y-126500000D03*
X122250000Y-126500000D03*
%TD*%
%TO.P,SW1,1,1*%
%TO.N,Net-(U1-GPIO17{slash}D7{slash}RX)*%
X164000000Y-122500000D03*
X157500000Y-122500000D03*
%TO.P,SW1,2,2*%
%TO.N,GND*%
X164000000Y-127000000D03*
X157500000Y-127000000D03*
%TD*%
D19*
%TO.N,+5V*%
X128000000Y-138740000D02*
X126805686Y-138740000D01*
X131150000Y-141834314D02*
X133915686Y-144600000D01*
X135390000Y-144600000D02*
X136250000Y-143740000D01*
X120500000Y-57065686D02*
X121065686Y-56500000D01*
X128055685Y-138740000D02*
X129150000Y-139834315D01*
X121065686Y-56500000D02*
X123500000Y-56500000D01*
X133915686Y-144600000D02*
X135390000Y-144600000D01*
X129150000Y-139834315D02*
X131150000Y-141834314D01*
X120500000Y-132434314D02*
X120500000Y-57065686D01*
X128000000Y-138740000D02*
X128055685Y-138740000D01*
X126805686Y-138740000D02*
X120500000Y-132434314D01*
%TO.N,Net-(M1-PWM)*%
X123500000Y-53960000D02*
X123040000Y-53960000D01*
X120000000Y-132500000D02*
X127500000Y-140000000D01*
X127500000Y-140000000D02*
X128750000Y-140000000D01*
X133750000Y-145000000D02*
X150000000Y-145000000D01*
X128750000Y-140000000D02*
X133750000Y-145000000D01*
X120000000Y-57000000D02*
X120000000Y-132500000D01*
X123040000Y-53960000D02*
X120000000Y-57000000D01*
X150000000Y-145000000D02*
X151500000Y-143500000D01*
%TO.N,Net-(M2-PWM)*%
X155500000Y-129381372D02*
X155500000Y-122000000D01*
X153900000Y-130981372D02*
X155500000Y-129381372D01*
X165500000Y-56960000D02*
X162500000Y-53960000D01*
X153900000Y-138850000D02*
X153900000Y-130981372D01*
X155500000Y-122000000D02*
X165500000Y-112000000D01*
X151790000Y-140960000D02*
X153900000Y-138850000D01*
X151500000Y-140960000D02*
X151790000Y-140960000D01*
X165500000Y-112000000D02*
X165500000Y-56960000D01*
%TO.N,+3.3V*%
X141460000Y-100750000D02*
X140525000Y-101685000D01*
X140525000Y-134145000D02*
X136250000Y-138420000D01*
X140525000Y-101685000D02*
X140525000Y-134145000D01*
%TO.N,Net-(U1-GPIO21{slash}D3)*%
X153050000Y-134330000D02*
X153050000Y-130700000D01*
X154650000Y-129100000D02*
X154650000Y-115100000D01*
X153050000Y-130700000D02*
X154650000Y-129100000D01*
X154650000Y-115100000D02*
X155250000Y-114500000D01*
X155250000Y-114500000D02*
X156060000Y-114500000D01*
X151500000Y-135880000D02*
X153050000Y-134330000D01*
%TO.N,Net-(U1-GPIO23{slash}D5{slash}SCL)*%
X151500000Y-130800000D02*
X151700000Y-130800000D01*
X153850000Y-128650000D02*
X153850000Y-113900000D01*
X157060000Y-112250000D02*
X157500000Y-111810000D01*
X153850000Y-113900000D02*
X155500000Y-112250000D01*
X151700000Y-130800000D02*
X153850000Y-128650000D01*
X155500000Y-112250000D02*
X157060000Y-112250000D01*
%TO.N,Net-(U1-GPIO22{slash}D4{slash}SDA)*%
X152650000Y-132190000D02*
X152650000Y-130415686D01*
X162060000Y-113250000D02*
X163500000Y-111810000D01*
X154250000Y-128815686D02*
X154250000Y-114500000D01*
X154250000Y-114500000D02*
X155500000Y-113250000D01*
X151500000Y-133340000D02*
X152650000Y-132190000D01*
X155500000Y-113250000D02*
X162060000Y-113250000D01*
X152650000Y-130415686D02*
X154250000Y-128815686D01*
%TO.N,Net-(U1-GPIO19{slash}D8{slash}SCK)*%
X129000000Y-122000000D02*
X129000000Y-123790000D01*
X129000000Y-123790000D02*
X136250000Y-131040000D01*
%TO.N,Net-(J1-Pin_3)*%
X153450000Y-67505000D02*
X153450000Y-126550000D01*
X140445000Y-54500000D02*
X153450000Y-67505000D01*
X151740000Y-128260000D02*
X151500000Y-128260000D01*
X153450000Y-126550000D02*
X151740000Y-128260000D01*
%TO.N,Net-(U1-GPIO2{slash}A2{slash}D2)*%
X155100000Y-129215686D02*
X155100000Y-120460000D01*
X151500000Y-138420000D02*
X153500000Y-136420000D01*
X153500000Y-136420000D02*
X153500000Y-130815686D01*
X155100000Y-120460000D02*
X156060000Y-119500000D01*
X153500000Y-130815686D02*
X155100000Y-129215686D01*
%TD*%
M02*
