%TF.GenerationSoftware,KiCad,Pcbnew,8.0.5*%
%TF.CreationDate,2025-07-27T14:10:40-07:00*%
%TF.ProjectId,Cashout Station,43617368-6f75-4742-9053-746174696f6e,rev?*%
%TF.SameCoordinates,Original*%
%TF.FileFunction,Legend,Top*%
%TF.FilePolarity,Positive*%
%FSLAX46Y46*%
G04 Gerber Fmt 4.6, Leading zero omitted, Abs format (unit mm)*
G04 Created by KiCad (PCBNEW 8.0.5) date 2025-07-27 14:10:40*
%MOMM*%
%LPD*%
G01*
G04 APERTURE LIST*
%ADD10C,0.100000*%
%ADD11C,0.000000*%
%ADD12C,0.200000*%
%ADD13C,0.300000*%
%ADD14C,0.150000*%
%ADD15C,0.101600*%
%ADD16C,0.120000*%
%ADD17C,0.127000*%
%ADD18C,0.254000*%
%ADD19C,0.025400*%
G04 APERTURE END LIST*
D10*
X157500000Y-112860000D02*
X157500000Y-115750000D01*
X133000000Y-48000000D02*
X129250000Y-48000000D01*
X129000000Y-49750000D02*
X125000000Y-58500000D01*
X130250000Y-135750000D02*
X129750000Y-135750000D01*
X153500000Y-47000000D02*
X157250000Y-47000000D01*
X128500000Y-132750000D02*
X128500000Y-134250000D01*
X132750000Y-47000000D02*
X128500000Y-47000000D01*
X126500001Y-105000000D02*
G75*
G02*
X129258219Y-104975021I1389999J-1190000D01*
G01*
X127750000Y-107750000D02*
X128250000Y-106750000D01*
X146500000Y-102750000D02*
X146500000Y-107500000D01*
X129250000Y-48000000D02*
X125250000Y-56000000D01*
X121750000Y-142250000D02*
X121750000Y-140500000D01*
X145500000Y-52500000D02*
X145500000Y-43500000D01*
X121500000Y-131000000D02*
X121500000Y-132750000D01*
X133000000Y-49750000D02*
X129000000Y-49750000D01*
X157250000Y-48750000D02*
X160950000Y-56250000D01*
X156750000Y-50250000D02*
X160750000Y-58000000D01*
X128000000Y-112750000D02*
X130250000Y-112750000D01*
X153250000Y-50250000D02*
X156750000Y-50250000D01*
X131250000Y-112750000D02*
X133500000Y-112750000D01*
X157250000Y-47000000D02*
X160750000Y-53750000D01*
X126500000Y-109750000D02*
X128000000Y-112750000D01*
D11*
G36*
X159250000Y-95000000D02*
G01*
X127750000Y-95000000D01*
X127750000Y-63500000D01*
X159250000Y-63500000D01*
X159250000Y-95000000D01*
G37*
D10*
X124750000Y-113000000D02*
X126500000Y-109750000D01*
X126250000Y-135750000D02*
X123000000Y-135750000D01*
X130250000Y-112750000D02*
X127750000Y-107750000D01*
X122250000Y-113000000D02*
X124750000Y-113000000D01*
X128500000Y-47000000D02*
X125000000Y-53750000D01*
X139000000Y-102750000D02*
X139000000Y-104750000D01*
X133500000Y-112750000D02*
X129250000Y-105000000D01*
X128250000Y-106750000D02*
X131250000Y-112750000D01*
X163250000Y-112860000D02*
X163250000Y-115750000D01*
X129750000Y-138750000D02*
X131250000Y-138750000D01*
X124000000Y-143000000D02*
X126250000Y-141500000D01*
X143000000Y-47000000D02*
X143000000Y-52500000D01*
X124500000Y-143750000D02*
X126000000Y-143750000D01*
X140500000Y-52500000D02*
X140500000Y-43500000D01*
X153250000Y-48750000D02*
X157250000Y-48750000D01*
X144000000Y-102750000D02*
X144000000Y-104750000D01*
X122250000Y-113000000D02*
X126500000Y-105000000D01*
X141500000Y-102750000D02*
X141500000Y-107500000D01*
D12*
X131333958Y-135146147D02*
X131214911Y-135086623D01*
X131214911Y-135086623D02*
X131036339Y-135086623D01*
X131036339Y-135086623D02*
X130857768Y-135146147D01*
X130857768Y-135146147D02*
X130738720Y-135265195D01*
X130738720Y-135265195D02*
X130679197Y-135384242D01*
X130679197Y-135384242D02*
X130619673Y-135622338D01*
X130619673Y-135622338D02*
X130619673Y-135800909D01*
X130619673Y-135800909D02*
X130679197Y-136039004D01*
X130679197Y-136039004D02*
X130738720Y-136158052D01*
X130738720Y-136158052D02*
X130857768Y-136277100D01*
X130857768Y-136277100D02*
X131036339Y-136336623D01*
X131036339Y-136336623D02*
X131155387Y-136336623D01*
X131155387Y-136336623D02*
X131333958Y-136277100D01*
X131333958Y-136277100D02*
X131393482Y-136217576D01*
X131393482Y-136217576D02*
X131393482Y-135800909D01*
X131393482Y-135800909D02*
X131155387Y-135800909D01*
X131929197Y-136336623D02*
X131929197Y-135086623D01*
X131929197Y-135086623D02*
X132405387Y-135086623D01*
X132405387Y-135086623D02*
X132524435Y-135146147D01*
X132524435Y-135146147D02*
X132583958Y-135205671D01*
X132583958Y-135205671D02*
X132643482Y-135324719D01*
X132643482Y-135324719D02*
X132643482Y-135503290D01*
X132643482Y-135503290D02*
X132583958Y-135622338D01*
X132583958Y-135622338D02*
X132524435Y-135681861D01*
X132524435Y-135681861D02*
X132405387Y-135741385D01*
X132405387Y-135741385D02*
X131929197Y-135741385D01*
X133179197Y-136336623D02*
X133179197Y-135086623D01*
X134012530Y-135086623D02*
X134250625Y-135086623D01*
X134250625Y-135086623D02*
X134369673Y-135146147D01*
X134369673Y-135146147D02*
X134488720Y-135265195D01*
X134488720Y-135265195D02*
X134548244Y-135503290D01*
X134548244Y-135503290D02*
X134548244Y-135919957D01*
X134548244Y-135919957D02*
X134488720Y-136158052D01*
X134488720Y-136158052D02*
X134369673Y-136277100D01*
X134369673Y-136277100D02*
X134250625Y-136336623D01*
X134250625Y-136336623D02*
X134012530Y-136336623D01*
X134012530Y-136336623D02*
X133893482Y-136277100D01*
X133893482Y-136277100D02*
X133774435Y-136158052D01*
X133774435Y-136158052D02*
X133714911Y-135919957D01*
X133714911Y-135919957D02*
X133714911Y-135503290D01*
X133714911Y-135503290D02*
X133774435Y-135265195D01*
X133774435Y-135265195D02*
X133893482Y-135146147D01*
X133893482Y-135146147D02*
X134012530Y-135086623D01*
D13*
X134340225Y-49622257D02*
X134197368Y-49550828D01*
X134197368Y-49550828D02*
X133983082Y-49550828D01*
X133983082Y-49550828D02*
X133768796Y-49622257D01*
X133768796Y-49622257D02*
X133625939Y-49765114D01*
X133625939Y-49765114D02*
X133554510Y-49907971D01*
X133554510Y-49907971D02*
X133483082Y-50193685D01*
X133483082Y-50193685D02*
X133483082Y-50407971D01*
X133483082Y-50407971D02*
X133554510Y-50693685D01*
X133554510Y-50693685D02*
X133625939Y-50836542D01*
X133625939Y-50836542D02*
X133768796Y-50979400D01*
X133768796Y-50979400D02*
X133983082Y-51050828D01*
X133983082Y-51050828D02*
X134125939Y-51050828D01*
X134125939Y-51050828D02*
X134340225Y-50979400D01*
X134340225Y-50979400D02*
X134411653Y-50907971D01*
X134411653Y-50907971D02*
X134411653Y-50407971D01*
X134411653Y-50407971D02*
X134125939Y-50407971D01*
X135054510Y-51050828D02*
X135054510Y-49550828D01*
X135054510Y-49550828D02*
X135911653Y-51050828D01*
X135911653Y-51050828D02*
X135911653Y-49550828D01*
X136625939Y-51050828D02*
X136625939Y-49550828D01*
X136625939Y-49550828D02*
X136983082Y-49550828D01*
X136983082Y-49550828D02*
X137197368Y-49622257D01*
X137197368Y-49622257D02*
X137340225Y-49765114D01*
X137340225Y-49765114D02*
X137411654Y-49907971D01*
X137411654Y-49907971D02*
X137483082Y-50193685D01*
X137483082Y-50193685D02*
X137483082Y-50407971D01*
X137483082Y-50407971D02*
X137411654Y-50693685D01*
X137411654Y-50693685D02*
X137340225Y-50836542D01*
X137340225Y-50836542D02*
X137197368Y-50979400D01*
X137197368Y-50979400D02*
X136983082Y-51050828D01*
X136983082Y-51050828D02*
X136625939Y-51050828D01*
X144983082Y-109729400D02*
X145197368Y-109800828D01*
X145197368Y-109800828D02*
X145554510Y-109800828D01*
X145554510Y-109800828D02*
X145697368Y-109729400D01*
X145697368Y-109729400D02*
X145768796Y-109657971D01*
X145768796Y-109657971D02*
X145840225Y-109515114D01*
X145840225Y-109515114D02*
X145840225Y-109372257D01*
X145840225Y-109372257D02*
X145768796Y-109229400D01*
X145768796Y-109229400D02*
X145697368Y-109157971D01*
X145697368Y-109157971D02*
X145554510Y-109086542D01*
X145554510Y-109086542D02*
X145268796Y-109015114D01*
X145268796Y-109015114D02*
X145125939Y-108943685D01*
X145125939Y-108943685D02*
X145054510Y-108872257D01*
X145054510Y-108872257D02*
X144983082Y-108729400D01*
X144983082Y-108729400D02*
X144983082Y-108586542D01*
X144983082Y-108586542D02*
X145054510Y-108443685D01*
X145054510Y-108443685D02*
X145125939Y-108372257D01*
X145125939Y-108372257D02*
X145268796Y-108300828D01*
X145268796Y-108300828D02*
X145625939Y-108300828D01*
X145625939Y-108300828D02*
X145840225Y-108372257D01*
X147340224Y-109657971D02*
X147268796Y-109729400D01*
X147268796Y-109729400D02*
X147054510Y-109800828D01*
X147054510Y-109800828D02*
X146911653Y-109800828D01*
X146911653Y-109800828D02*
X146697367Y-109729400D01*
X146697367Y-109729400D02*
X146554510Y-109586542D01*
X146554510Y-109586542D02*
X146483081Y-109443685D01*
X146483081Y-109443685D02*
X146411653Y-109157971D01*
X146411653Y-109157971D02*
X146411653Y-108943685D01*
X146411653Y-108943685D02*
X146483081Y-108657971D01*
X146483081Y-108657971D02*
X146554510Y-108515114D01*
X146554510Y-108515114D02*
X146697367Y-108372257D01*
X146697367Y-108372257D02*
X146911653Y-108300828D01*
X146911653Y-108300828D02*
X147054510Y-108300828D01*
X147054510Y-108300828D02*
X147268796Y-108372257D01*
X147268796Y-108372257D02*
X147340224Y-108443685D01*
X148697367Y-109800828D02*
X147983081Y-109800828D01*
X147983081Y-109800828D02*
X147983081Y-108300828D01*
X138340225Y-41622257D02*
X138197368Y-41550828D01*
X138197368Y-41550828D02*
X137983082Y-41550828D01*
X137983082Y-41550828D02*
X137768796Y-41622257D01*
X137768796Y-41622257D02*
X137625939Y-41765114D01*
X137625939Y-41765114D02*
X137554510Y-41907971D01*
X137554510Y-41907971D02*
X137483082Y-42193685D01*
X137483082Y-42193685D02*
X137483082Y-42407971D01*
X137483082Y-42407971D02*
X137554510Y-42693685D01*
X137554510Y-42693685D02*
X137625939Y-42836542D01*
X137625939Y-42836542D02*
X137768796Y-42979400D01*
X137768796Y-42979400D02*
X137983082Y-43050828D01*
X137983082Y-43050828D02*
X138125939Y-43050828D01*
X138125939Y-43050828D02*
X138340225Y-42979400D01*
X138340225Y-42979400D02*
X138411653Y-42907971D01*
X138411653Y-42907971D02*
X138411653Y-42407971D01*
X138411653Y-42407971D02*
X138125939Y-42407971D01*
X139054510Y-43050828D02*
X139054510Y-41550828D01*
X139054510Y-41550828D02*
X139625939Y-41550828D01*
X139625939Y-41550828D02*
X139768796Y-41622257D01*
X139768796Y-41622257D02*
X139840225Y-41693685D01*
X139840225Y-41693685D02*
X139911653Y-41836542D01*
X139911653Y-41836542D02*
X139911653Y-42050828D01*
X139911653Y-42050828D02*
X139840225Y-42193685D01*
X139840225Y-42193685D02*
X139768796Y-42265114D01*
X139768796Y-42265114D02*
X139625939Y-42336542D01*
X139625939Y-42336542D02*
X139054510Y-42336542D01*
X140554510Y-43050828D02*
X140554510Y-41550828D01*
X141554511Y-41550828D02*
X141840225Y-41550828D01*
X141840225Y-41550828D02*
X141983082Y-41622257D01*
X141983082Y-41622257D02*
X142125939Y-41765114D01*
X142125939Y-41765114D02*
X142197368Y-42050828D01*
X142197368Y-42050828D02*
X142197368Y-42550828D01*
X142197368Y-42550828D02*
X142125939Y-42836542D01*
X142125939Y-42836542D02*
X141983082Y-42979400D01*
X141983082Y-42979400D02*
X141840225Y-43050828D01*
X141840225Y-43050828D02*
X141554511Y-43050828D01*
X141554511Y-43050828D02*
X141411654Y-42979400D01*
X141411654Y-42979400D02*
X141268796Y-42836542D01*
X141268796Y-42836542D02*
X141197368Y-42550828D01*
X141197368Y-42550828D02*
X141197368Y-42050828D01*
X141197368Y-42050828D02*
X141268796Y-41765114D01*
X141268796Y-41765114D02*
X141411654Y-41622257D01*
X141411654Y-41622257D02*
X141554511Y-41550828D01*
X142518796Y-44800828D02*
X141804510Y-44800828D01*
X141804510Y-44800828D02*
X141733082Y-45515114D01*
X141733082Y-45515114D02*
X141804510Y-45443685D01*
X141804510Y-45443685D02*
X141947368Y-45372257D01*
X141947368Y-45372257D02*
X142304510Y-45372257D01*
X142304510Y-45372257D02*
X142447368Y-45443685D01*
X142447368Y-45443685D02*
X142518796Y-45515114D01*
X142518796Y-45515114D02*
X142590225Y-45657971D01*
X142590225Y-45657971D02*
X142590225Y-46015114D01*
X142590225Y-46015114D02*
X142518796Y-46157971D01*
X142518796Y-46157971D02*
X142447368Y-46229400D01*
X142447368Y-46229400D02*
X142304510Y-46300828D01*
X142304510Y-46300828D02*
X141947368Y-46300828D01*
X141947368Y-46300828D02*
X141804510Y-46229400D01*
X141804510Y-46229400D02*
X141733082Y-46157971D01*
X143018796Y-44800828D02*
X143518796Y-46300828D01*
X143518796Y-46300828D02*
X144018796Y-44800828D01*
X142233082Y-106729400D02*
X142447368Y-106800828D01*
X142447368Y-106800828D02*
X142804510Y-106800828D01*
X142804510Y-106800828D02*
X142947368Y-106729400D01*
X142947368Y-106729400D02*
X143018796Y-106657971D01*
X143018796Y-106657971D02*
X143090225Y-106515114D01*
X143090225Y-106515114D02*
X143090225Y-106372257D01*
X143090225Y-106372257D02*
X143018796Y-106229400D01*
X143018796Y-106229400D02*
X142947368Y-106157971D01*
X142947368Y-106157971D02*
X142804510Y-106086542D01*
X142804510Y-106086542D02*
X142518796Y-106015114D01*
X142518796Y-106015114D02*
X142375939Y-105943685D01*
X142375939Y-105943685D02*
X142304510Y-105872257D01*
X142304510Y-105872257D02*
X142233082Y-105729400D01*
X142233082Y-105729400D02*
X142233082Y-105586542D01*
X142233082Y-105586542D02*
X142304510Y-105443685D01*
X142304510Y-105443685D02*
X142375939Y-105372257D01*
X142375939Y-105372257D02*
X142518796Y-105300828D01*
X142518796Y-105300828D02*
X142875939Y-105300828D01*
X142875939Y-105300828D02*
X143090225Y-105372257D01*
X143733081Y-106800828D02*
X143733081Y-105300828D01*
X143733081Y-105300828D02*
X144090224Y-105300828D01*
X144090224Y-105300828D02*
X144304510Y-105372257D01*
X144304510Y-105372257D02*
X144447367Y-105515114D01*
X144447367Y-105515114D02*
X144518796Y-105657971D01*
X144518796Y-105657971D02*
X144590224Y-105943685D01*
X144590224Y-105943685D02*
X144590224Y-106157971D01*
X144590224Y-106157971D02*
X144518796Y-106443685D01*
X144518796Y-106443685D02*
X144447367Y-106586542D01*
X144447367Y-106586542D02*
X144304510Y-106729400D01*
X144304510Y-106729400D02*
X144090224Y-106800828D01*
X144090224Y-106800828D02*
X143733081Y-106800828D01*
X145161653Y-106372257D02*
X145875939Y-106372257D01*
X145018796Y-106800828D02*
X145518796Y-105300828D01*
X145518796Y-105300828D02*
X146018796Y-106800828D01*
X132768796Y-138050828D02*
X132054510Y-138050828D01*
X132054510Y-138050828D02*
X131983082Y-138765114D01*
X131983082Y-138765114D02*
X132054510Y-138693685D01*
X132054510Y-138693685D02*
X132197368Y-138622257D01*
X132197368Y-138622257D02*
X132554510Y-138622257D01*
X132554510Y-138622257D02*
X132697368Y-138693685D01*
X132697368Y-138693685D02*
X132768796Y-138765114D01*
X132768796Y-138765114D02*
X132840225Y-138907971D01*
X132840225Y-138907971D02*
X132840225Y-139265114D01*
X132840225Y-139265114D02*
X132768796Y-139407971D01*
X132768796Y-139407971D02*
X132697368Y-139479400D01*
X132697368Y-139479400D02*
X132554510Y-139550828D01*
X132554510Y-139550828D02*
X132197368Y-139550828D01*
X132197368Y-139550828D02*
X132054510Y-139479400D01*
X132054510Y-139479400D02*
X131983082Y-139407971D01*
X133268796Y-138050828D02*
X133768796Y-139550828D01*
X133768796Y-139550828D02*
X134268796Y-138050828D01*
X149159774Y-45872257D02*
X149016917Y-45800828D01*
X149016917Y-45800828D02*
X148802631Y-45800828D01*
X148802631Y-45800828D02*
X148588345Y-45872257D01*
X148588345Y-45872257D02*
X148445488Y-46015114D01*
X148445488Y-46015114D02*
X148374059Y-46157971D01*
X148374059Y-46157971D02*
X148302631Y-46443685D01*
X148302631Y-46443685D02*
X148302631Y-46657971D01*
X148302631Y-46657971D02*
X148374059Y-46943685D01*
X148374059Y-46943685D02*
X148445488Y-47086542D01*
X148445488Y-47086542D02*
X148588345Y-47229400D01*
X148588345Y-47229400D02*
X148802631Y-47300828D01*
X148802631Y-47300828D02*
X148945488Y-47300828D01*
X148945488Y-47300828D02*
X149159774Y-47229400D01*
X149159774Y-47229400D02*
X149231202Y-47157971D01*
X149231202Y-47157971D02*
X149231202Y-46657971D01*
X149231202Y-46657971D02*
X148945488Y-46657971D01*
X149874059Y-47300828D02*
X149874059Y-45800828D01*
X149874059Y-45800828D02*
X150445488Y-45800828D01*
X150445488Y-45800828D02*
X150588345Y-45872257D01*
X150588345Y-45872257D02*
X150659774Y-45943685D01*
X150659774Y-45943685D02*
X150731202Y-46086542D01*
X150731202Y-46086542D02*
X150731202Y-46300828D01*
X150731202Y-46300828D02*
X150659774Y-46443685D01*
X150659774Y-46443685D02*
X150588345Y-46515114D01*
X150588345Y-46515114D02*
X150445488Y-46586542D01*
X150445488Y-46586542D02*
X149874059Y-46586542D01*
X151374059Y-47300828D02*
X151374059Y-45800828D01*
X152374060Y-45800828D02*
X152659774Y-45800828D01*
X152659774Y-45800828D02*
X152802631Y-45872257D01*
X152802631Y-45872257D02*
X152945488Y-46015114D01*
X152945488Y-46015114D02*
X153016917Y-46300828D01*
X153016917Y-46300828D02*
X153016917Y-46800828D01*
X153016917Y-46800828D02*
X152945488Y-47086542D01*
X152945488Y-47086542D02*
X152802631Y-47229400D01*
X152802631Y-47229400D02*
X152659774Y-47300828D01*
X152659774Y-47300828D02*
X152374060Y-47300828D01*
X152374060Y-47300828D02*
X152231203Y-47229400D01*
X152231203Y-47229400D02*
X152088345Y-47086542D01*
X152088345Y-47086542D02*
X152016917Y-46800828D01*
X152016917Y-46800828D02*
X152016917Y-46300828D01*
X152016917Y-46300828D02*
X152088345Y-46015114D01*
X152088345Y-46015114D02*
X152231203Y-45872257D01*
X152231203Y-45872257D02*
X152374060Y-45800828D01*
D12*
X141810149Y-134586623D02*
X142643482Y-135836623D01*
X142643482Y-134586623D02*
X141810149Y-135836623D01*
X143119673Y-135836623D02*
X143119673Y-134586623D01*
X143655387Y-135479480D02*
X144250625Y-135479480D01*
X143536339Y-135836623D02*
X143953006Y-134586623D01*
X143953006Y-134586623D02*
X144369672Y-135836623D01*
X145024435Y-134586623D02*
X145262530Y-134586623D01*
X145262530Y-134586623D02*
X145381578Y-134646147D01*
X145381578Y-134646147D02*
X145500625Y-134765195D01*
X145500625Y-134765195D02*
X145560149Y-135003290D01*
X145560149Y-135003290D02*
X145560149Y-135419957D01*
X145560149Y-135419957D02*
X145500625Y-135658052D01*
X145500625Y-135658052D02*
X145381578Y-135777100D01*
X145381578Y-135777100D02*
X145262530Y-135836623D01*
X145262530Y-135836623D02*
X145024435Y-135836623D01*
X145024435Y-135836623D02*
X144905387Y-135777100D01*
X144905387Y-135777100D02*
X144786340Y-135658052D01*
X144786340Y-135658052D02*
X144726816Y-135419957D01*
X144726816Y-135419957D02*
X144726816Y-135003290D01*
X144726816Y-135003290D02*
X144786340Y-134765195D01*
X144786340Y-134765195D02*
X144905387Y-134646147D01*
X144905387Y-134646147D02*
X145024435Y-134586623D01*
D13*
X139161653Y-108300828D02*
X140090225Y-108300828D01*
X140090225Y-108300828D02*
X139590225Y-108872257D01*
X139590225Y-108872257D02*
X139804510Y-108872257D01*
X139804510Y-108872257D02*
X139947368Y-108943685D01*
X139947368Y-108943685D02*
X140018796Y-109015114D01*
X140018796Y-109015114D02*
X140090225Y-109157971D01*
X140090225Y-109157971D02*
X140090225Y-109515114D01*
X140090225Y-109515114D02*
X140018796Y-109657971D01*
X140018796Y-109657971D02*
X139947368Y-109729400D01*
X139947368Y-109729400D02*
X139804510Y-109800828D01*
X139804510Y-109800828D02*
X139375939Y-109800828D01*
X139375939Y-109800828D02*
X139233082Y-109729400D01*
X139233082Y-109729400D02*
X139161653Y-109657971D01*
X140733081Y-109657971D02*
X140804510Y-109729400D01*
X140804510Y-109729400D02*
X140733081Y-109800828D01*
X140733081Y-109800828D02*
X140661653Y-109729400D01*
X140661653Y-109729400D02*
X140733081Y-109657971D01*
X140733081Y-109657971D02*
X140733081Y-109800828D01*
X141304510Y-108300828D02*
X142233082Y-108300828D01*
X142233082Y-108300828D02*
X141733082Y-108872257D01*
X141733082Y-108872257D02*
X141947367Y-108872257D01*
X141947367Y-108872257D02*
X142090225Y-108943685D01*
X142090225Y-108943685D02*
X142161653Y-109015114D01*
X142161653Y-109015114D02*
X142233082Y-109157971D01*
X142233082Y-109157971D02*
X142233082Y-109515114D01*
X142233082Y-109515114D02*
X142161653Y-109657971D01*
X142161653Y-109657971D02*
X142090225Y-109729400D01*
X142090225Y-109729400D02*
X141947367Y-109800828D01*
X141947367Y-109800828D02*
X141518796Y-109800828D01*
X141518796Y-109800828D02*
X141375939Y-109729400D01*
X141375939Y-109729400D02*
X141304510Y-109657971D01*
X142661653Y-108300828D02*
X143161653Y-109800828D01*
X143161653Y-109800828D02*
X143661653Y-108300828D01*
X144840225Y-41622257D02*
X144697368Y-41550828D01*
X144697368Y-41550828D02*
X144483082Y-41550828D01*
X144483082Y-41550828D02*
X144268796Y-41622257D01*
X144268796Y-41622257D02*
X144125939Y-41765114D01*
X144125939Y-41765114D02*
X144054510Y-41907971D01*
X144054510Y-41907971D02*
X143983082Y-42193685D01*
X143983082Y-42193685D02*
X143983082Y-42407971D01*
X143983082Y-42407971D02*
X144054510Y-42693685D01*
X144054510Y-42693685D02*
X144125939Y-42836542D01*
X144125939Y-42836542D02*
X144268796Y-42979400D01*
X144268796Y-42979400D02*
X144483082Y-43050828D01*
X144483082Y-43050828D02*
X144625939Y-43050828D01*
X144625939Y-43050828D02*
X144840225Y-42979400D01*
X144840225Y-42979400D02*
X144911653Y-42907971D01*
X144911653Y-42907971D02*
X144911653Y-42407971D01*
X144911653Y-42407971D02*
X144625939Y-42407971D01*
X145554510Y-43050828D02*
X145554510Y-41550828D01*
X145554510Y-41550828D02*
X146411653Y-43050828D01*
X146411653Y-43050828D02*
X146411653Y-41550828D01*
X147125939Y-43050828D02*
X147125939Y-41550828D01*
X147125939Y-41550828D02*
X147483082Y-41550828D01*
X147483082Y-41550828D02*
X147697368Y-41622257D01*
X147697368Y-41622257D02*
X147840225Y-41765114D01*
X147840225Y-41765114D02*
X147911654Y-41907971D01*
X147911654Y-41907971D02*
X147983082Y-42193685D01*
X147983082Y-42193685D02*
X147983082Y-42407971D01*
X147983082Y-42407971D02*
X147911654Y-42693685D01*
X147911654Y-42693685D02*
X147840225Y-42836542D01*
X147840225Y-42836542D02*
X147697368Y-42979400D01*
X147697368Y-42979400D02*
X147483082Y-43050828D01*
X147483082Y-43050828D02*
X147125939Y-43050828D01*
X120840225Y-143122257D02*
X120697368Y-143050828D01*
X120697368Y-143050828D02*
X120483082Y-143050828D01*
X120483082Y-143050828D02*
X120268796Y-143122257D01*
X120268796Y-143122257D02*
X120125939Y-143265114D01*
X120125939Y-143265114D02*
X120054510Y-143407971D01*
X120054510Y-143407971D02*
X119983082Y-143693685D01*
X119983082Y-143693685D02*
X119983082Y-143907971D01*
X119983082Y-143907971D02*
X120054510Y-144193685D01*
X120054510Y-144193685D02*
X120125939Y-144336542D01*
X120125939Y-144336542D02*
X120268796Y-144479400D01*
X120268796Y-144479400D02*
X120483082Y-144550828D01*
X120483082Y-144550828D02*
X120625939Y-144550828D01*
X120625939Y-144550828D02*
X120840225Y-144479400D01*
X120840225Y-144479400D02*
X120911653Y-144407971D01*
X120911653Y-144407971D02*
X120911653Y-143907971D01*
X120911653Y-143907971D02*
X120625939Y-143907971D01*
X121554510Y-144550828D02*
X121554510Y-143050828D01*
X121554510Y-143050828D02*
X122411653Y-144550828D01*
X122411653Y-144550828D02*
X122411653Y-143050828D01*
X123125939Y-144550828D02*
X123125939Y-143050828D01*
X123125939Y-143050828D02*
X123483082Y-143050828D01*
X123483082Y-143050828D02*
X123697368Y-143122257D01*
X123697368Y-143122257D02*
X123840225Y-143265114D01*
X123840225Y-143265114D02*
X123911654Y-143407971D01*
X123911654Y-143407971D02*
X123983082Y-143693685D01*
X123983082Y-143693685D02*
X123983082Y-143907971D01*
X123983082Y-143907971D02*
X123911654Y-144193685D01*
X123911654Y-144193685D02*
X123840225Y-144336542D01*
X123840225Y-144336542D02*
X123697368Y-144479400D01*
X123697368Y-144479400D02*
X123483082Y-144550828D01*
X123483082Y-144550828D02*
X123125939Y-144550828D01*
X124554510Y-81479400D02*
X125697368Y-81479400D01*
X125125939Y-82050828D02*
X125125939Y-80907971D01*
X121554510Y-81479400D02*
X122697368Y-81479400D01*
X163554510Y-83229400D02*
X164697368Y-83229400D01*
X164125939Y-83800828D02*
X164125939Y-82657971D01*
X134090225Y-45372257D02*
X133947368Y-45300828D01*
X133947368Y-45300828D02*
X133733082Y-45300828D01*
X133733082Y-45300828D02*
X133518796Y-45372257D01*
X133518796Y-45372257D02*
X133375939Y-45515114D01*
X133375939Y-45515114D02*
X133304510Y-45657971D01*
X133304510Y-45657971D02*
X133233082Y-45943685D01*
X133233082Y-45943685D02*
X133233082Y-46157971D01*
X133233082Y-46157971D02*
X133304510Y-46443685D01*
X133304510Y-46443685D02*
X133375939Y-46586542D01*
X133375939Y-46586542D02*
X133518796Y-46729400D01*
X133518796Y-46729400D02*
X133733082Y-46800828D01*
X133733082Y-46800828D02*
X133875939Y-46800828D01*
X133875939Y-46800828D02*
X134090225Y-46729400D01*
X134090225Y-46729400D02*
X134161653Y-46657971D01*
X134161653Y-46657971D02*
X134161653Y-46157971D01*
X134161653Y-46157971D02*
X133875939Y-46157971D01*
X134804510Y-46800828D02*
X134804510Y-45300828D01*
X134804510Y-45300828D02*
X135375939Y-45300828D01*
X135375939Y-45300828D02*
X135518796Y-45372257D01*
X135518796Y-45372257D02*
X135590225Y-45443685D01*
X135590225Y-45443685D02*
X135661653Y-45586542D01*
X135661653Y-45586542D02*
X135661653Y-45800828D01*
X135661653Y-45800828D02*
X135590225Y-45943685D01*
X135590225Y-45943685D02*
X135518796Y-46015114D01*
X135518796Y-46015114D02*
X135375939Y-46086542D01*
X135375939Y-46086542D02*
X134804510Y-46086542D01*
X136304510Y-46800828D02*
X136304510Y-45300828D01*
X137304511Y-45300828D02*
X137590225Y-45300828D01*
X137590225Y-45300828D02*
X137733082Y-45372257D01*
X137733082Y-45372257D02*
X137875939Y-45515114D01*
X137875939Y-45515114D02*
X137947368Y-45800828D01*
X137947368Y-45800828D02*
X137947368Y-46300828D01*
X137947368Y-46300828D02*
X137875939Y-46586542D01*
X137875939Y-46586542D02*
X137733082Y-46729400D01*
X137733082Y-46729400D02*
X137590225Y-46800828D01*
X137590225Y-46800828D02*
X137304511Y-46800828D01*
X137304511Y-46800828D02*
X137161654Y-46729400D01*
X137161654Y-46729400D02*
X137018796Y-46586542D01*
X137018796Y-46586542D02*
X136947368Y-46300828D01*
X136947368Y-46300828D02*
X136947368Y-45800828D01*
X136947368Y-45800828D02*
X137018796Y-45515114D01*
X137018796Y-45515114D02*
X137161654Y-45372257D01*
X137161654Y-45372257D02*
X137304511Y-45300828D01*
X134268796Y-47550828D02*
X133554510Y-47550828D01*
X133554510Y-47550828D02*
X133483082Y-48265114D01*
X133483082Y-48265114D02*
X133554510Y-48193685D01*
X133554510Y-48193685D02*
X133697368Y-48122257D01*
X133697368Y-48122257D02*
X134054510Y-48122257D01*
X134054510Y-48122257D02*
X134197368Y-48193685D01*
X134197368Y-48193685D02*
X134268796Y-48265114D01*
X134268796Y-48265114D02*
X134340225Y-48407971D01*
X134340225Y-48407971D02*
X134340225Y-48765114D01*
X134340225Y-48765114D02*
X134268796Y-48907971D01*
X134268796Y-48907971D02*
X134197368Y-48979400D01*
X134197368Y-48979400D02*
X134054510Y-49050828D01*
X134054510Y-49050828D02*
X133697368Y-49050828D01*
X133697368Y-49050828D02*
X133554510Y-48979400D01*
X133554510Y-48979400D02*
X133483082Y-48907971D01*
X134768796Y-47550828D02*
X135268796Y-49050828D01*
X135268796Y-49050828D02*
X135768796Y-47550828D01*
X149624060Y-50122257D02*
X149481203Y-50050828D01*
X149481203Y-50050828D02*
X149266917Y-50050828D01*
X149266917Y-50050828D02*
X149052631Y-50122257D01*
X149052631Y-50122257D02*
X148909774Y-50265114D01*
X148909774Y-50265114D02*
X148838345Y-50407971D01*
X148838345Y-50407971D02*
X148766917Y-50693685D01*
X148766917Y-50693685D02*
X148766917Y-50907971D01*
X148766917Y-50907971D02*
X148838345Y-51193685D01*
X148838345Y-51193685D02*
X148909774Y-51336542D01*
X148909774Y-51336542D02*
X149052631Y-51479400D01*
X149052631Y-51479400D02*
X149266917Y-51550828D01*
X149266917Y-51550828D02*
X149409774Y-51550828D01*
X149409774Y-51550828D02*
X149624060Y-51479400D01*
X149624060Y-51479400D02*
X149695488Y-51407971D01*
X149695488Y-51407971D02*
X149695488Y-50907971D01*
X149695488Y-50907971D02*
X149409774Y-50907971D01*
X150338345Y-51550828D02*
X150338345Y-50050828D01*
X150338345Y-50050828D02*
X151195488Y-51550828D01*
X151195488Y-51550828D02*
X151195488Y-50050828D01*
X151909774Y-51550828D02*
X151909774Y-50050828D01*
X151909774Y-50050828D02*
X152266917Y-50050828D01*
X152266917Y-50050828D02*
X152481203Y-50122257D01*
X152481203Y-50122257D02*
X152624060Y-50265114D01*
X152624060Y-50265114D02*
X152695489Y-50407971D01*
X152695489Y-50407971D02*
X152766917Y-50693685D01*
X152766917Y-50693685D02*
X152766917Y-50907971D01*
X152766917Y-50907971D02*
X152695489Y-51193685D01*
X152695489Y-51193685D02*
X152624060Y-51336542D01*
X152624060Y-51336542D02*
X152481203Y-51479400D01*
X152481203Y-51479400D02*
X152266917Y-51550828D01*
X152266917Y-51550828D02*
X151909774Y-51550828D01*
X151409775Y-48050828D02*
X150695489Y-48050828D01*
X150695489Y-48050828D02*
X150624061Y-48765114D01*
X150624061Y-48765114D02*
X150695489Y-48693685D01*
X150695489Y-48693685D02*
X150838347Y-48622257D01*
X150838347Y-48622257D02*
X151195489Y-48622257D01*
X151195489Y-48622257D02*
X151338347Y-48693685D01*
X151338347Y-48693685D02*
X151409775Y-48765114D01*
X151409775Y-48765114D02*
X151481204Y-48907971D01*
X151481204Y-48907971D02*
X151481204Y-49265114D01*
X151481204Y-49265114D02*
X151409775Y-49407971D01*
X151409775Y-49407971D02*
X151338347Y-49479400D01*
X151338347Y-49479400D02*
X151195489Y-49550828D01*
X151195489Y-49550828D02*
X150838347Y-49550828D01*
X150838347Y-49550828D02*
X150695489Y-49479400D01*
X150695489Y-49479400D02*
X150624061Y-49407971D01*
X151909775Y-48050828D02*
X152409775Y-49550828D01*
X152409775Y-49550828D02*
X152909775Y-48050828D01*
X137590225Y-105372257D02*
X137447368Y-105300828D01*
X137447368Y-105300828D02*
X137233082Y-105300828D01*
X137233082Y-105300828D02*
X137018796Y-105372257D01*
X137018796Y-105372257D02*
X136875939Y-105515114D01*
X136875939Y-105515114D02*
X136804510Y-105657971D01*
X136804510Y-105657971D02*
X136733082Y-105943685D01*
X136733082Y-105943685D02*
X136733082Y-106157971D01*
X136733082Y-106157971D02*
X136804510Y-106443685D01*
X136804510Y-106443685D02*
X136875939Y-106586542D01*
X136875939Y-106586542D02*
X137018796Y-106729400D01*
X137018796Y-106729400D02*
X137233082Y-106800828D01*
X137233082Y-106800828D02*
X137375939Y-106800828D01*
X137375939Y-106800828D02*
X137590225Y-106729400D01*
X137590225Y-106729400D02*
X137661653Y-106657971D01*
X137661653Y-106657971D02*
X137661653Y-106157971D01*
X137661653Y-106157971D02*
X137375939Y-106157971D01*
X138304510Y-106800828D02*
X138304510Y-105300828D01*
X138304510Y-105300828D02*
X139161653Y-106800828D01*
X139161653Y-106800828D02*
X139161653Y-105300828D01*
X139875939Y-106800828D02*
X139875939Y-105300828D01*
X139875939Y-105300828D02*
X140233082Y-105300828D01*
X140233082Y-105300828D02*
X140447368Y-105372257D01*
X140447368Y-105372257D02*
X140590225Y-105515114D01*
X140590225Y-105515114D02*
X140661654Y-105657971D01*
X140661654Y-105657971D02*
X140733082Y-105943685D01*
X140733082Y-105943685D02*
X140733082Y-106157971D01*
X140733082Y-106157971D02*
X140661654Y-106443685D01*
X140661654Y-106443685D02*
X140590225Y-106586542D01*
X140590225Y-106586542D02*
X140447368Y-106729400D01*
X140447368Y-106729400D02*
X140233082Y-106800828D01*
X140233082Y-106800828D02*
X139875939Y-106800828D01*
X160554510Y-83229400D02*
X161697368Y-83229400D01*
D14*
X120214285Y-133681009D02*
X120357142Y-133728628D01*
X120357142Y-133728628D02*
X120404761Y-133776247D01*
X120404761Y-133776247D02*
X120452380Y-133871485D01*
X120452380Y-133871485D02*
X120452380Y-134014342D01*
X120452380Y-134014342D02*
X120404761Y-134109580D01*
X120404761Y-134109580D02*
X120357142Y-134157200D01*
X120357142Y-134157200D02*
X120261904Y-134204819D01*
X120261904Y-134204819D02*
X119880952Y-134204819D01*
X119880952Y-134204819D02*
X119880952Y-133204819D01*
X119880952Y-133204819D02*
X120214285Y-133204819D01*
X120214285Y-133204819D02*
X120309523Y-133252438D01*
X120309523Y-133252438D02*
X120357142Y-133300057D01*
X120357142Y-133300057D02*
X120404761Y-133395295D01*
X120404761Y-133395295D02*
X120404761Y-133490533D01*
X120404761Y-133490533D02*
X120357142Y-133585771D01*
X120357142Y-133585771D02*
X120309523Y-133633390D01*
X120309523Y-133633390D02*
X120214285Y-133681009D01*
X120214285Y-133681009D02*
X119880952Y-133681009D01*
X120738095Y-133204819D02*
X121309523Y-133204819D01*
X121023809Y-134204819D02*
X121023809Y-133204819D01*
X122166666Y-134204819D02*
X121595238Y-134204819D01*
X121880952Y-134204819D02*
X121880952Y-133204819D01*
X121880952Y-133204819D02*
X121785714Y-133347676D01*
X121785714Y-133347676D02*
X121690476Y-133442914D01*
X121690476Y-133442914D02*
X121595238Y-133490533D01*
X119857142Y-130704819D02*
X120047618Y-130704819D01*
X120047618Y-130704819D02*
X120142856Y-130657200D01*
X120142856Y-130657200D02*
X120190475Y-130609580D01*
X120190475Y-130609580D02*
X120285713Y-130466723D01*
X120285713Y-130466723D02*
X120333332Y-130276247D01*
X120333332Y-130276247D02*
X120333332Y-129895295D01*
X120333332Y-129895295D02*
X120285713Y-129800057D01*
X120285713Y-129800057D02*
X120238094Y-129752438D01*
X120238094Y-129752438D02*
X120142856Y-129704819D01*
X120142856Y-129704819D02*
X119952380Y-129704819D01*
X119952380Y-129704819D02*
X119857142Y-129752438D01*
X119857142Y-129752438D02*
X119809523Y-129800057D01*
X119809523Y-129800057D02*
X119761904Y-129895295D01*
X119761904Y-129895295D02*
X119761904Y-130133390D01*
X119761904Y-130133390D02*
X119809523Y-130228628D01*
X119809523Y-130228628D02*
X119857142Y-130276247D01*
X119857142Y-130276247D02*
X119952380Y-130323866D01*
X119952380Y-130323866D02*
X120142856Y-130323866D01*
X120142856Y-130323866D02*
X120238094Y-130276247D01*
X120238094Y-130276247D02*
X120285713Y-130228628D01*
X120285713Y-130228628D02*
X120333332Y-130133390D01*
X120619047Y-129704819D02*
X120952380Y-130704819D01*
X120952380Y-130704819D02*
X121285713Y-129704819D01*
X122714285Y-130181009D02*
X122857142Y-130228628D01*
X122857142Y-130228628D02*
X122904761Y-130276247D01*
X122904761Y-130276247D02*
X122952380Y-130371485D01*
X122952380Y-130371485D02*
X122952380Y-130514342D01*
X122952380Y-130514342D02*
X122904761Y-130609580D01*
X122904761Y-130609580D02*
X122857142Y-130657200D01*
X122857142Y-130657200D02*
X122761904Y-130704819D01*
X122761904Y-130704819D02*
X122380952Y-130704819D01*
X122380952Y-130704819D02*
X122380952Y-129704819D01*
X122380952Y-129704819D02*
X122714285Y-129704819D01*
X122714285Y-129704819D02*
X122809523Y-129752438D01*
X122809523Y-129752438D02*
X122857142Y-129800057D01*
X122857142Y-129800057D02*
X122904761Y-129895295D01*
X122904761Y-129895295D02*
X122904761Y-129990533D01*
X122904761Y-129990533D02*
X122857142Y-130085771D01*
X122857142Y-130085771D02*
X122809523Y-130133390D01*
X122809523Y-130133390D02*
X122714285Y-130181009D01*
X122714285Y-130181009D02*
X122380952Y-130181009D01*
X123809523Y-130704819D02*
X123809523Y-130181009D01*
X123809523Y-130181009D02*
X123761904Y-130085771D01*
X123761904Y-130085771D02*
X123666666Y-130038152D01*
X123666666Y-130038152D02*
X123476190Y-130038152D01*
X123476190Y-130038152D02*
X123380952Y-130085771D01*
X123809523Y-130657200D02*
X123714285Y-130704819D01*
X123714285Y-130704819D02*
X123476190Y-130704819D01*
X123476190Y-130704819D02*
X123380952Y-130657200D01*
X123380952Y-130657200D02*
X123333333Y-130561961D01*
X123333333Y-130561961D02*
X123333333Y-130466723D01*
X123333333Y-130466723D02*
X123380952Y-130371485D01*
X123380952Y-130371485D02*
X123476190Y-130323866D01*
X123476190Y-130323866D02*
X123714285Y-130323866D01*
X123714285Y-130323866D02*
X123809523Y-130276247D01*
X124142857Y-130038152D02*
X124523809Y-130038152D01*
X124285714Y-129704819D02*
X124285714Y-130561961D01*
X124285714Y-130561961D02*
X124333333Y-130657200D01*
X124333333Y-130657200D02*
X124428571Y-130704819D01*
X124428571Y-130704819D02*
X124523809Y-130704819D01*
X124714286Y-130038152D02*
X125095238Y-130038152D01*
X124857143Y-129704819D02*
X124857143Y-130561961D01*
X124857143Y-130561961D02*
X124904762Y-130657200D01*
X124904762Y-130657200D02*
X125000000Y-130704819D01*
X125000000Y-130704819D02*
X125095238Y-130704819D01*
X125809524Y-130657200D02*
X125714286Y-130704819D01*
X125714286Y-130704819D02*
X125523810Y-130704819D01*
X125523810Y-130704819D02*
X125428572Y-130657200D01*
X125428572Y-130657200D02*
X125380953Y-130561961D01*
X125380953Y-130561961D02*
X125380953Y-130181009D01*
X125380953Y-130181009D02*
X125428572Y-130085771D01*
X125428572Y-130085771D02*
X125523810Y-130038152D01*
X125523810Y-130038152D02*
X125714286Y-130038152D01*
X125714286Y-130038152D02*
X125809524Y-130085771D01*
X125809524Y-130085771D02*
X125857143Y-130181009D01*
X125857143Y-130181009D02*
X125857143Y-130276247D01*
X125857143Y-130276247D02*
X125380953Y-130371485D01*
X126285715Y-130704819D02*
X126285715Y-130038152D01*
X126285715Y-130228628D02*
X126333334Y-130133390D01*
X126333334Y-130133390D02*
X126380953Y-130085771D01*
X126380953Y-130085771D02*
X126476191Y-130038152D01*
X126476191Y-130038152D02*
X126571429Y-130038152D01*
X126809525Y-130038152D02*
X127047620Y-130704819D01*
X127285715Y-130038152D02*
X127047620Y-130704819D01*
X127047620Y-130704819D02*
X126952382Y-130942914D01*
X126952382Y-130942914D02*
X126904763Y-130990533D01*
X126904763Y-130990533D02*
X126809525Y-131038152D01*
X121690476Y-51954819D02*
X121690476Y-50954819D01*
X121690476Y-50954819D02*
X122023809Y-51669104D01*
X122023809Y-51669104D02*
X122357142Y-50954819D01*
X122357142Y-50954819D02*
X122357142Y-51954819D01*
X123357142Y-51954819D02*
X122785714Y-51954819D01*
X123071428Y-51954819D02*
X123071428Y-50954819D01*
X123071428Y-50954819D02*
X122976190Y-51097676D01*
X122976190Y-51097676D02*
X122880952Y-51192914D01*
X122880952Y-51192914D02*
X122785714Y-51240533D01*
X119523808Y-61777200D02*
X119666665Y-61824819D01*
X119666665Y-61824819D02*
X119904760Y-61824819D01*
X119904760Y-61824819D02*
X119999998Y-61777200D01*
X119999998Y-61777200D02*
X120047617Y-61729580D01*
X120047617Y-61729580D02*
X120095236Y-61634342D01*
X120095236Y-61634342D02*
X120095236Y-61539104D01*
X120095236Y-61539104D02*
X120047617Y-61443866D01*
X120047617Y-61443866D02*
X119999998Y-61396247D01*
X119999998Y-61396247D02*
X119904760Y-61348628D01*
X119904760Y-61348628D02*
X119714284Y-61301009D01*
X119714284Y-61301009D02*
X119619046Y-61253390D01*
X119619046Y-61253390D02*
X119571427Y-61205771D01*
X119571427Y-61205771D02*
X119523808Y-61110533D01*
X119523808Y-61110533D02*
X119523808Y-61015295D01*
X119523808Y-61015295D02*
X119571427Y-60920057D01*
X119571427Y-60920057D02*
X119619046Y-60872438D01*
X119619046Y-60872438D02*
X119714284Y-60824819D01*
X119714284Y-60824819D02*
X119952379Y-60824819D01*
X119952379Y-60824819D02*
X120095236Y-60872438D01*
X120904760Y-61777200D02*
X120809522Y-61824819D01*
X120809522Y-61824819D02*
X120619046Y-61824819D01*
X120619046Y-61824819D02*
X120523808Y-61777200D01*
X120523808Y-61777200D02*
X120476189Y-61681961D01*
X120476189Y-61681961D02*
X120476189Y-61301009D01*
X120476189Y-61301009D02*
X120523808Y-61205771D01*
X120523808Y-61205771D02*
X120619046Y-61158152D01*
X120619046Y-61158152D02*
X120809522Y-61158152D01*
X120809522Y-61158152D02*
X120904760Y-61205771D01*
X120904760Y-61205771D02*
X120952379Y-61301009D01*
X120952379Y-61301009D02*
X120952379Y-61396247D01*
X120952379Y-61396247D02*
X120476189Y-61491485D01*
X121380951Y-61824819D02*
X121380951Y-61158152D01*
X121380951Y-61348628D02*
X121428570Y-61253390D01*
X121428570Y-61253390D02*
X121476189Y-61205771D01*
X121476189Y-61205771D02*
X121571427Y-61158152D01*
X121571427Y-61158152D02*
X121666665Y-61158152D01*
X121904761Y-61158152D02*
X122142856Y-61824819D01*
X122142856Y-61824819D02*
X122380951Y-61158152D01*
X122904761Y-61824819D02*
X122809523Y-61777200D01*
X122809523Y-61777200D02*
X122761904Y-61729580D01*
X122761904Y-61729580D02*
X122714285Y-61634342D01*
X122714285Y-61634342D02*
X122714285Y-61348628D01*
X122714285Y-61348628D02*
X122761904Y-61253390D01*
X122761904Y-61253390D02*
X122809523Y-61205771D01*
X122809523Y-61205771D02*
X122904761Y-61158152D01*
X122904761Y-61158152D02*
X123047618Y-61158152D01*
X123047618Y-61158152D02*
X123142856Y-61205771D01*
X123142856Y-61205771D02*
X123190475Y-61253390D01*
X123190475Y-61253390D02*
X123238094Y-61348628D01*
X123238094Y-61348628D02*
X123238094Y-61634342D01*
X123238094Y-61634342D02*
X123190475Y-61729580D01*
X123190475Y-61729580D02*
X123142856Y-61777200D01*
X123142856Y-61777200D02*
X123047618Y-61824819D01*
X123047618Y-61824819D02*
X122904761Y-61824819D01*
X124999999Y-61729580D02*
X124952380Y-61777200D01*
X124952380Y-61777200D02*
X124809523Y-61824819D01*
X124809523Y-61824819D02*
X124714285Y-61824819D01*
X124714285Y-61824819D02*
X124571428Y-61777200D01*
X124571428Y-61777200D02*
X124476190Y-61681961D01*
X124476190Y-61681961D02*
X124428571Y-61586723D01*
X124428571Y-61586723D02*
X124380952Y-61396247D01*
X124380952Y-61396247D02*
X124380952Y-61253390D01*
X124380952Y-61253390D02*
X124428571Y-61062914D01*
X124428571Y-61062914D02*
X124476190Y-60967676D01*
X124476190Y-60967676D02*
X124571428Y-60872438D01*
X124571428Y-60872438D02*
X124714285Y-60824819D01*
X124714285Y-60824819D02*
X124809523Y-60824819D01*
X124809523Y-60824819D02*
X124952380Y-60872438D01*
X124952380Y-60872438D02*
X124999999Y-60920057D01*
X125571428Y-61824819D02*
X125476190Y-61777200D01*
X125476190Y-61777200D02*
X125428571Y-61729580D01*
X125428571Y-61729580D02*
X125380952Y-61634342D01*
X125380952Y-61634342D02*
X125380952Y-61348628D01*
X125380952Y-61348628D02*
X125428571Y-61253390D01*
X125428571Y-61253390D02*
X125476190Y-61205771D01*
X125476190Y-61205771D02*
X125571428Y-61158152D01*
X125571428Y-61158152D02*
X125714285Y-61158152D01*
X125714285Y-61158152D02*
X125809523Y-61205771D01*
X125809523Y-61205771D02*
X125857142Y-61253390D01*
X125857142Y-61253390D02*
X125904761Y-61348628D01*
X125904761Y-61348628D02*
X125904761Y-61634342D01*
X125904761Y-61634342D02*
X125857142Y-61729580D01*
X125857142Y-61729580D02*
X125809523Y-61777200D01*
X125809523Y-61777200D02*
X125714285Y-61824819D01*
X125714285Y-61824819D02*
X125571428Y-61824819D01*
X126333333Y-61158152D02*
X126333333Y-61824819D01*
X126333333Y-61253390D02*
X126380952Y-61205771D01*
X126380952Y-61205771D02*
X126476190Y-61158152D01*
X126476190Y-61158152D02*
X126619047Y-61158152D01*
X126619047Y-61158152D02*
X126714285Y-61205771D01*
X126714285Y-61205771D02*
X126761904Y-61301009D01*
X126761904Y-61301009D02*
X126761904Y-61824819D01*
X127238095Y-61158152D02*
X127238095Y-61824819D01*
X127238095Y-61253390D02*
X127285714Y-61205771D01*
X127285714Y-61205771D02*
X127380952Y-61158152D01*
X127380952Y-61158152D02*
X127523809Y-61158152D01*
X127523809Y-61158152D02*
X127619047Y-61205771D01*
X127619047Y-61205771D02*
X127666666Y-61301009D01*
X127666666Y-61301009D02*
X127666666Y-61824819D01*
X128523809Y-61777200D02*
X128428571Y-61824819D01*
X128428571Y-61824819D02*
X128238095Y-61824819D01*
X128238095Y-61824819D02*
X128142857Y-61777200D01*
X128142857Y-61777200D02*
X128095238Y-61681961D01*
X128095238Y-61681961D02*
X128095238Y-61301009D01*
X128095238Y-61301009D02*
X128142857Y-61205771D01*
X128142857Y-61205771D02*
X128238095Y-61158152D01*
X128238095Y-61158152D02*
X128428571Y-61158152D01*
X128428571Y-61158152D02*
X128523809Y-61205771D01*
X128523809Y-61205771D02*
X128571428Y-61301009D01*
X128571428Y-61301009D02*
X128571428Y-61396247D01*
X128571428Y-61396247D02*
X128095238Y-61491485D01*
X129428571Y-61777200D02*
X129333333Y-61824819D01*
X129333333Y-61824819D02*
X129142857Y-61824819D01*
X129142857Y-61824819D02*
X129047619Y-61777200D01*
X129047619Y-61777200D02*
X129000000Y-61729580D01*
X129000000Y-61729580D02*
X128952381Y-61634342D01*
X128952381Y-61634342D02*
X128952381Y-61348628D01*
X128952381Y-61348628D02*
X129000000Y-61253390D01*
X129000000Y-61253390D02*
X129047619Y-61205771D01*
X129047619Y-61205771D02*
X129142857Y-61158152D01*
X129142857Y-61158152D02*
X129333333Y-61158152D01*
X129333333Y-61158152D02*
X129428571Y-61205771D01*
X129714286Y-61158152D02*
X130095238Y-61158152D01*
X129857143Y-60824819D02*
X129857143Y-61681961D01*
X129857143Y-61681961D02*
X129904762Y-61777200D01*
X129904762Y-61777200D02*
X130000000Y-61824819D01*
X130000000Y-61824819D02*
X130095238Y-61824819D01*
X130809524Y-61777200D02*
X130714286Y-61824819D01*
X130714286Y-61824819D02*
X130523810Y-61824819D01*
X130523810Y-61824819D02*
X130428572Y-61777200D01*
X130428572Y-61777200D02*
X130380953Y-61681961D01*
X130380953Y-61681961D02*
X130380953Y-61301009D01*
X130380953Y-61301009D02*
X130428572Y-61205771D01*
X130428572Y-61205771D02*
X130523810Y-61158152D01*
X130523810Y-61158152D02*
X130714286Y-61158152D01*
X130714286Y-61158152D02*
X130809524Y-61205771D01*
X130809524Y-61205771D02*
X130857143Y-61301009D01*
X130857143Y-61301009D02*
X130857143Y-61396247D01*
X130857143Y-61396247D02*
X130380953Y-61491485D01*
X131285715Y-61824819D02*
X131285715Y-61158152D01*
X131285715Y-61348628D02*
X131333334Y-61253390D01*
X131333334Y-61253390D02*
X131380953Y-61205771D01*
X131380953Y-61205771D02*
X131476191Y-61158152D01*
X131476191Y-61158152D02*
X131571429Y-61158152D01*
X139166666Y-51454819D02*
X139166666Y-52169104D01*
X139166666Y-52169104D02*
X139119047Y-52311961D01*
X139119047Y-52311961D02*
X139023809Y-52407200D01*
X139023809Y-52407200D02*
X138880952Y-52454819D01*
X138880952Y-52454819D02*
X138785714Y-52454819D01*
X140166666Y-52454819D02*
X139595238Y-52454819D01*
X139880952Y-52454819D02*
X139880952Y-51454819D01*
X139880952Y-51454819D02*
X139785714Y-51597676D01*
X139785714Y-51597676D02*
X139690476Y-51692914D01*
X139690476Y-51692914D02*
X139595238Y-51740533D01*
X137797618Y-57169104D02*
X138273808Y-57169104D01*
X137702380Y-57454819D02*
X138035713Y-56454819D01*
X138035713Y-56454819D02*
X138369046Y-57454819D01*
X139130951Y-56788152D02*
X139130951Y-57454819D01*
X138702380Y-56788152D02*
X138702380Y-57311961D01*
X138702380Y-57311961D02*
X138749999Y-57407200D01*
X138749999Y-57407200D02*
X138845237Y-57454819D01*
X138845237Y-57454819D02*
X138988094Y-57454819D01*
X138988094Y-57454819D02*
X139083332Y-57407200D01*
X139083332Y-57407200D02*
X139130951Y-57359580D01*
X140035713Y-57454819D02*
X140035713Y-56454819D01*
X140035713Y-57407200D02*
X139940475Y-57454819D01*
X139940475Y-57454819D02*
X139749999Y-57454819D01*
X139749999Y-57454819D02*
X139654761Y-57407200D01*
X139654761Y-57407200D02*
X139607142Y-57359580D01*
X139607142Y-57359580D02*
X139559523Y-57264342D01*
X139559523Y-57264342D02*
X139559523Y-56978628D01*
X139559523Y-56978628D02*
X139607142Y-56883390D01*
X139607142Y-56883390D02*
X139654761Y-56835771D01*
X139654761Y-56835771D02*
X139749999Y-56788152D01*
X139749999Y-56788152D02*
X139940475Y-56788152D01*
X139940475Y-56788152D02*
X140035713Y-56835771D01*
X140511904Y-57454819D02*
X140511904Y-56788152D01*
X140511904Y-56454819D02*
X140464285Y-56502438D01*
X140464285Y-56502438D02*
X140511904Y-56550057D01*
X140511904Y-56550057D02*
X140559523Y-56502438D01*
X140559523Y-56502438D02*
X140511904Y-56454819D01*
X140511904Y-56454819D02*
X140511904Y-56550057D01*
X141130951Y-57454819D02*
X141035713Y-57407200D01*
X141035713Y-57407200D02*
X140988094Y-57359580D01*
X140988094Y-57359580D02*
X140940475Y-57264342D01*
X140940475Y-57264342D02*
X140940475Y-56978628D01*
X140940475Y-56978628D02*
X140988094Y-56883390D01*
X140988094Y-56883390D02*
X141035713Y-56835771D01*
X141035713Y-56835771D02*
X141130951Y-56788152D01*
X141130951Y-56788152D02*
X141273808Y-56788152D01*
X141273808Y-56788152D02*
X141369046Y-56835771D01*
X141369046Y-56835771D02*
X141416665Y-56883390D01*
X141416665Y-56883390D02*
X141464284Y-56978628D01*
X141464284Y-56978628D02*
X141464284Y-57264342D01*
X141464284Y-57264342D02*
X141416665Y-57359580D01*
X141416665Y-57359580D02*
X141369046Y-57407200D01*
X141369046Y-57407200D02*
X141273808Y-57454819D01*
X141273808Y-57454819D02*
X141130951Y-57454819D01*
X143226189Y-57359580D02*
X143178570Y-57407200D01*
X143178570Y-57407200D02*
X143035713Y-57454819D01*
X143035713Y-57454819D02*
X142940475Y-57454819D01*
X142940475Y-57454819D02*
X142797618Y-57407200D01*
X142797618Y-57407200D02*
X142702380Y-57311961D01*
X142702380Y-57311961D02*
X142654761Y-57216723D01*
X142654761Y-57216723D02*
X142607142Y-57026247D01*
X142607142Y-57026247D02*
X142607142Y-56883390D01*
X142607142Y-56883390D02*
X142654761Y-56692914D01*
X142654761Y-56692914D02*
X142702380Y-56597676D01*
X142702380Y-56597676D02*
X142797618Y-56502438D01*
X142797618Y-56502438D02*
X142940475Y-56454819D01*
X142940475Y-56454819D02*
X143035713Y-56454819D01*
X143035713Y-56454819D02*
X143178570Y-56502438D01*
X143178570Y-56502438D02*
X143226189Y-56550057D01*
X143797618Y-57454819D02*
X143702380Y-57407200D01*
X143702380Y-57407200D02*
X143654761Y-57359580D01*
X143654761Y-57359580D02*
X143607142Y-57264342D01*
X143607142Y-57264342D02*
X143607142Y-56978628D01*
X143607142Y-56978628D02*
X143654761Y-56883390D01*
X143654761Y-56883390D02*
X143702380Y-56835771D01*
X143702380Y-56835771D02*
X143797618Y-56788152D01*
X143797618Y-56788152D02*
X143940475Y-56788152D01*
X143940475Y-56788152D02*
X144035713Y-56835771D01*
X144035713Y-56835771D02*
X144083332Y-56883390D01*
X144083332Y-56883390D02*
X144130951Y-56978628D01*
X144130951Y-56978628D02*
X144130951Y-57264342D01*
X144130951Y-57264342D02*
X144083332Y-57359580D01*
X144083332Y-57359580D02*
X144035713Y-57407200D01*
X144035713Y-57407200D02*
X143940475Y-57454819D01*
X143940475Y-57454819D02*
X143797618Y-57454819D01*
X144559523Y-56788152D02*
X144559523Y-57454819D01*
X144559523Y-56883390D02*
X144607142Y-56835771D01*
X144607142Y-56835771D02*
X144702380Y-56788152D01*
X144702380Y-56788152D02*
X144845237Y-56788152D01*
X144845237Y-56788152D02*
X144940475Y-56835771D01*
X144940475Y-56835771D02*
X144988094Y-56931009D01*
X144988094Y-56931009D02*
X144988094Y-57454819D01*
X145464285Y-56788152D02*
X145464285Y-57454819D01*
X145464285Y-56883390D02*
X145511904Y-56835771D01*
X145511904Y-56835771D02*
X145607142Y-56788152D01*
X145607142Y-56788152D02*
X145749999Y-56788152D01*
X145749999Y-56788152D02*
X145845237Y-56835771D01*
X145845237Y-56835771D02*
X145892856Y-56931009D01*
X145892856Y-56931009D02*
X145892856Y-57454819D01*
X146749999Y-57407200D02*
X146654761Y-57454819D01*
X146654761Y-57454819D02*
X146464285Y-57454819D01*
X146464285Y-57454819D02*
X146369047Y-57407200D01*
X146369047Y-57407200D02*
X146321428Y-57311961D01*
X146321428Y-57311961D02*
X146321428Y-56931009D01*
X146321428Y-56931009D02*
X146369047Y-56835771D01*
X146369047Y-56835771D02*
X146464285Y-56788152D01*
X146464285Y-56788152D02*
X146654761Y-56788152D01*
X146654761Y-56788152D02*
X146749999Y-56835771D01*
X146749999Y-56835771D02*
X146797618Y-56931009D01*
X146797618Y-56931009D02*
X146797618Y-57026247D01*
X146797618Y-57026247D02*
X146321428Y-57121485D01*
X147654761Y-57407200D02*
X147559523Y-57454819D01*
X147559523Y-57454819D02*
X147369047Y-57454819D01*
X147369047Y-57454819D02*
X147273809Y-57407200D01*
X147273809Y-57407200D02*
X147226190Y-57359580D01*
X147226190Y-57359580D02*
X147178571Y-57264342D01*
X147178571Y-57264342D02*
X147178571Y-56978628D01*
X147178571Y-56978628D02*
X147226190Y-56883390D01*
X147226190Y-56883390D02*
X147273809Y-56835771D01*
X147273809Y-56835771D02*
X147369047Y-56788152D01*
X147369047Y-56788152D02*
X147559523Y-56788152D01*
X147559523Y-56788152D02*
X147654761Y-56835771D01*
X147940476Y-56788152D02*
X148321428Y-56788152D01*
X148083333Y-56454819D02*
X148083333Y-57311961D01*
X148083333Y-57311961D02*
X148130952Y-57407200D01*
X148130952Y-57407200D02*
X148226190Y-57454819D01*
X148226190Y-57454819D02*
X148321428Y-57454819D01*
X149035714Y-57407200D02*
X148940476Y-57454819D01*
X148940476Y-57454819D02*
X148750000Y-57454819D01*
X148750000Y-57454819D02*
X148654762Y-57407200D01*
X148654762Y-57407200D02*
X148607143Y-57311961D01*
X148607143Y-57311961D02*
X148607143Y-56931009D01*
X148607143Y-56931009D02*
X148654762Y-56835771D01*
X148654762Y-56835771D02*
X148750000Y-56788152D01*
X148750000Y-56788152D02*
X148940476Y-56788152D01*
X148940476Y-56788152D02*
X149035714Y-56835771D01*
X149035714Y-56835771D02*
X149083333Y-56931009D01*
X149083333Y-56931009D02*
X149083333Y-57026247D01*
X149083333Y-57026247D02*
X148607143Y-57121485D01*
X149511905Y-57454819D02*
X149511905Y-56788152D01*
X149511905Y-56978628D02*
X149559524Y-56883390D01*
X149559524Y-56883390D02*
X149607143Y-56835771D01*
X149607143Y-56835771D02*
X149702381Y-56788152D01*
X149702381Y-56788152D02*
X149797619Y-56788152D01*
X120511905Y-73704819D02*
X120511905Y-72704819D01*
X120511905Y-72704819D02*
X120750000Y-72704819D01*
X120750000Y-72704819D02*
X120892857Y-72752438D01*
X120892857Y-72752438D02*
X120988095Y-72847676D01*
X120988095Y-72847676D02*
X121035714Y-72942914D01*
X121035714Y-72942914D02*
X121083333Y-73133390D01*
X121083333Y-73133390D02*
X121083333Y-73276247D01*
X121083333Y-73276247D02*
X121035714Y-73466723D01*
X121035714Y-73466723D02*
X120988095Y-73561961D01*
X120988095Y-73561961D02*
X120892857Y-73657200D01*
X120892857Y-73657200D02*
X120750000Y-73704819D01*
X120750000Y-73704819D02*
X120511905Y-73704819D01*
X122035714Y-73704819D02*
X121464286Y-73704819D01*
X121750000Y-73704819D02*
X121750000Y-72704819D01*
X121750000Y-72704819D02*
X121654762Y-72847676D01*
X121654762Y-72847676D02*
X121559524Y-72942914D01*
X121559524Y-72942914D02*
X121464286Y-72990533D01*
X125107142Y-73704819D02*
X124630952Y-73704819D01*
X124630952Y-73704819D02*
X124630952Y-72704819D01*
X125440476Y-73181009D02*
X125773809Y-73181009D01*
X125916666Y-73704819D02*
X125440476Y-73704819D01*
X125440476Y-73704819D02*
X125440476Y-72704819D01*
X125440476Y-72704819D02*
X125916666Y-72704819D01*
X126345238Y-73704819D02*
X126345238Y-72704819D01*
X126345238Y-72704819D02*
X126583333Y-72704819D01*
X126583333Y-72704819D02*
X126726190Y-72752438D01*
X126726190Y-72752438D02*
X126821428Y-72847676D01*
X126821428Y-72847676D02*
X126869047Y-72942914D01*
X126869047Y-72942914D02*
X126916666Y-73133390D01*
X126916666Y-73133390D02*
X126916666Y-73276247D01*
X126916666Y-73276247D02*
X126869047Y-73466723D01*
X126869047Y-73466723D02*
X126821428Y-73561961D01*
X126821428Y-73561961D02*
X126726190Y-73657200D01*
X126726190Y-73657200D02*
X126583333Y-73704819D01*
X126583333Y-73704819D02*
X126345238Y-73704819D01*
X123190476Y-38454819D02*
X123190476Y-37454819D01*
X123190476Y-37454819D02*
X123523809Y-38169104D01*
X123523809Y-38169104D02*
X123857142Y-37454819D01*
X123857142Y-37454819D02*
X123857142Y-38454819D01*
X124761904Y-37788152D02*
X124761904Y-38454819D01*
X124523809Y-37407200D02*
X124285714Y-38121485D01*
X124285714Y-38121485D02*
X124904761Y-38121485D01*
X160583333Y-108454819D02*
X160250000Y-107978628D01*
X160011905Y-108454819D02*
X160011905Y-107454819D01*
X160011905Y-107454819D02*
X160392857Y-107454819D01*
X160392857Y-107454819D02*
X160488095Y-107502438D01*
X160488095Y-107502438D02*
X160535714Y-107550057D01*
X160535714Y-107550057D02*
X160583333Y-107645295D01*
X160583333Y-107645295D02*
X160583333Y-107788152D01*
X160583333Y-107788152D02*
X160535714Y-107883390D01*
X160535714Y-107883390D02*
X160488095Y-107931009D01*
X160488095Y-107931009D02*
X160392857Y-107978628D01*
X160392857Y-107978628D02*
X160011905Y-107978628D01*
X160916667Y-107454819D02*
X161535714Y-107454819D01*
X161535714Y-107454819D02*
X161202381Y-107835771D01*
X161202381Y-107835771D02*
X161345238Y-107835771D01*
X161345238Y-107835771D02*
X161440476Y-107883390D01*
X161440476Y-107883390D02*
X161488095Y-107931009D01*
X161488095Y-107931009D02*
X161535714Y-108026247D01*
X161535714Y-108026247D02*
X161535714Y-108264342D01*
X161535714Y-108264342D02*
X161488095Y-108359580D01*
X161488095Y-108359580D02*
X161440476Y-108407200D01*
X161440476Y-108407200D02*
X161345238Y-108454819D01*
X161345238Y-108454819D02*
X161059524Y-108454819D01*
X161059524Y-108454819D02*
X160964286Y-108407200D01*
X160964286Y-108407200D02*
X160916667Y-108359580D01*
X161750000Y-116538152D02*
X161750000Y-117204819D01*
X161511905Y-116157200D02*
X161273810Y-116871485D01*
X161273810Y-116871485D02*
X161892857Y-116871485D01*
X162273810Y-117109580D02*
X162321429Y-117157200D01*
X162321429Y-117157200D02*
X162273810Y-117204819D01*
X162273810Y-117204819D02*
X162226191Y-117157200D01*
X162226191Y-117157200D02*
X162273810Y-117109580D01*
X162273810Y-117109580D02*
X162273810Y-117204819D01*
X162654762Y-116204819D02*
X163321428Y-116204819D01*
X163321428Y-116204819D02*
X162892857Y-117204819D01*
X163702381Y-117204819D02*
X163702381Y-116204819D01*
X163797619Y-116823866D02*
X164083333Y-117204819D01*
X164083333Y-116538152D02*
X163702381Y-116919104D01*
X164464286Y-117204819D02*
X164702381Y-117204819D01*
X164702381Y-117204819D02*
X164702381Y-117014342D01*
X164702381Y-117014342D02*
X164607143Y-116966723D01*
X164607143Y-116966723D02*
X164511905Y-116871485D01*
X164511905Y-116871485D02*
X164464286Y-116728628D01*
X164464286Y-116728628D02*
X164464286Y-116490533D01*
X164464286Y-116490533D02*
X164511905Y-116347676D01*
X164511905Y-116347676D02*
X164607143Y-116252438D01*
X164607143Y-116252438D02*
X164750000Y-116204819D01*
X164750000Y-116204819D02*
X164940476Y-116204819D01*
X164940476Y-116204819D02*
X165083333Y-116252438D01*
X165083333Y-116252438D02*
X165178571Y-116347676D01*
X165178571Y-116347676D02*
X165226190Y-116490533D01*
X165226190Y-116490533D02*
X165226190Y-116728628D01*
X165226190Y-116728628D02*
X165178571Y-116871485D01*
X165178571Y-116871485D02*
X165083333Y-116966723D01*
X165083333Y-116966723D02*
X164988095Y-117014342D01*
X164988095Y-117014342D02*
X164988095Y-117204819D01*
X164988095Y-117204819D02*
X165226190Y-117204819D01*
X148083333Y-112704819D02*
X147750000Y-112228628D01*
X147511905Y-112704819D02*
X147511905Y-111704819D01*
X147511905Y-111704819D02*
X147892857Y-111704819D01*
X147892857Y-111704819D02*
X147988095Y-111752438D01*
X147988095Y-111752438D02*
X148035714Y-111800057D01*
X148035714Y-111800057D02*
X148083333Y-111895295D01*
X148083333Y-111895295D02*
X148083333Y-112038152D01*
X148083333Y-112038152D02*
X148035714Y-112133390D01*
X148035714Y-112133390D02*
X147988095Y-112181009D01*
X147988095Y-112181009D02*
X147892857Y-112228628D01*
X147892857Y-112228628D02*
X147511905Y-112228628D01*
X149035714Y-112704819D02*
X148464286Y-112704819D01*
X148750000Y-112704819D02*
X148750000Y-111704819D01*
X148750000Y-111704819D02*
X148654762Y-111847676D01*
X148654762Y-111847676D02*
X148559524Y-111942914D01*
X148559524Y-111942914D02*
X148464286Y-111990533D01*
X150440476Y-116300057D02*
X150488095Y-116252438D01*
X150488095Y-116252438D02*
X150583333Y-116204819D01*
X150583333Y-116204819D02*
X150821428Y-116204819D01*
X150821428Y-116204819D02*
X150916666Y-116252438D01*
X150916666Y-116252438D02*
X150964285Y-116300057D01*
X150964285Y-116300057D02*
X151011904Y-116395295D01*
X151011904Y-116395295D02*
X151011904Y-116490533D01*
X151011904Y-116490533D02*
X150964285Y-116633390D01*
X150964285Y-116633390D02*
X150392857Y-117204819D01*
X150392857Y-117204819D02*
X151011904Y-117204819D01*
X151392857Y-116300057D02*
X151440476Y-116252438D01*
X151440476Y-116252438D02*
X151535714Y-116204819D01*
X151535714Y-116204819D02*
X151773809Y-116204819D01*
X151773809Y-116204819D02*
X151869047Y-116252438D01*
X151869047Y-116252438D02*
X151916666Y-116300057D01*
X151916666Y-116300057D02*
X151964285Y-116395295D01*
X151964285Y-116395295D02*
X151964285Y-116490533D01*
X151964285Y-116490533D02*
X151916666Y-116633390D01*
X151916666Y-116633390D02*
X151345238Y-117204819D01*
X151345238Y-117204819D02*
X151964285Y-117204819D01*
X152583333Y-116204819D02*
X152678571Y-116204819D01*
X152678571Y-116204819D02*
X152773809Y-116252438D01*
X152773809Y-116252438D02*
X152821428Y-116300057D01*
X152821428Y-116300057D02*
X152869047Y-116395295D01*
X152869047Y-116395295D02*
X152916666Y-116585771D01*
X152916666Y-116585771D02*
X152916666Y-116823866D01*
X152916666Y-116823866D02*
X152869047Y-117014342D01*
X152869047Y-117014342D02*
X152821428Y-117109580D01*
X152821428Y-117109580D02*
X152773809Y-117157200D01*
X152773809Y-117157200D02*
X152678571Y-117204819D01*
X152678571Y-117204819D02*
X152583333Y-117204819D01*
X152583333Y-117204819D02*
X152488095Y-117157200D01*
X152488095Y-117157200D02*
X152440476Y-117109580D01*
X152440476Y-117109580D02*
X152392857Y-117014342D01*
X152392857Y-117014342D02*
X152345238Y-116823866D01*
X152345238Y-116823866D02*
X152345238Y-116585771D01*
X152345238Y-116585771D02*
X152392857Y-116395295D01*
X152392857Y-116395295D02*
X152440476Y-116300057D01*
X152440476Y-116300057D02*
X152488095Y-116252438D01*
X152488095Y-116252438D02*
X152583333Y-116204819D01*
X153297619Y-117204819D02*
X153535714Y-117204819D01*
X153535714Y-117204819D02*
X153535714Y-117014342D01*
X153535714Y-117014342D02*
X153440476Y-116966723D01*
X153440476Y-116966723D02*
X153345238Y-116871485D01*
X153345238Y-116871485D02*
X153297619Y-116728628D01*
X153297619Y-116728628D02*
X153297619Y-116490533D01*
X153297619Y-116490533D02*
X153345238Y-116347676D01*
X153345238Y-116347676D02*
X153440476Y-116252438D01*
X153440476Y-116252438D02*
X153583333Y-116204819D01*
X153583333Y-116204819D02*
X153773809Y-116204819D01*
X153773809Y-116204819D02*
X153916666Y-116252438D01*
X153916666Y-116252438D02*
X154011904Y-116347676D01*
X154011904Y-116347676D02*
X154059523Y-116490533D01*
X154059523Y-116490533D02*
X154059523Y-116728628D01*
X154059523Y-116728628D02*
X154011904Y-116871485D01*
X154011904Y-116871485D02*
X153916666Y-116966723D01*
X153916666Y-116966723D02*
X153821428Y-117014342D01*
X153821428Y-117014342D02*
X153821428Y-117204819D01*
X153821428Y-117204819D02*
X154059523Y-117204819D01*
X159511905Y-75704819D02*
X159511905Y-74704819D01*
X159511905Y-74704819D02*
X159750000Y-74704819D01*
X159750000Y-74704819D02*
X159892857Y-74752438D01*
X159892857Y-74752438D02*
X159988095Y-74847676D01*
X159988095Y-74847676D02*
X160035714Y-74942914D01*
X160035714Y-74942914D02*
X160083333Y-75133390D01*
X160083333Y-75133390D02*
X160083333Y-75276247D01*
X160083333Y-75276247D02*
X160035714Y-75466723D01*
X160035714Y-75466723D02*
X159988095Y-75561961D01*
X159988095Y-75561961D02*
X159892857Y-75657200D01*
X159892857Y-75657200D02*
X159750000Y-75704819D01*
X159750000Y-75704819D02*
X159511905Y-75704819D01*
X160464286Y-74800057D02*
X160511905Y-74752438D01*
X160511905Y-74752438D02*
X160607143Y-74704819D01*
X160607143Y-74704819D02*
X160845238Y-74704819D01*
X160845238Y-74704819D02*
X160940476Y-74752438D01*
X160940476Y-74752438D02*
X160988095Y-74800057D01*
X160988095Y-74800057D02*
X161035714Y-74895295D01*
X161035714Y-74895295D02*
X161035714Y-74990533D01*
X161035714Y-74990533D02*
X160988095Y-75133390D01*
X160988095Y-75133390D02*
X160416667Y-75704819D01*
X160416667Y-75704819D02*
X161035714Y-75704819D01*
X164107142Y-75704819D02*
X163630952Y-75704819D01*
X163630952Y-75704819D02*
X163630952Y-74704819D01*
X164440476Y-75181009D02*
X164773809Y-75181009D01*
X164916666Y-75704819D02*
X164440476Y-75704819D01*
X164440476Y-75704819D02*
X164440476Y-74704819D01*
X164440476Y-74704819D02*
X164916666Y-74704819D01*
X165345238Y-75704819D02*
X165345238Y-74704819D01*
X165345238Y-74704819D02*
X165583333Y-74704819D01*
X165583333Y-74704819D02*
X165726190Y-74752438D01*
X165726190Y-74752438D02*
X165821428Y-74847676D01*
X165821428Y-74847676D02*
X165869047Y-74942914D01*
X165869047Y-74942914D02*
X165916666Y-75133390D01*
X165916666Y-75133390D02*
X165916666Y-75276247D01*
X165916666Y-75276247D02*
X165869047Y-75466723D01*
X165869047Y-75466723D02*
X165821428Y-75561961D01*
X165821428Y-75561961D02*
X165726190Y-75657200D01*
X165726190Y-75657200D02*
X165583333Y-75704819D01*
X165583333Y-75704819D02*
X165345238Y-75704819D01*
X126238095Y-133204819D02*
X126238095Y-134014342D01*
X126238095Y-134014342D02*
X126285714Y-134109580D01*
X126285714Y-134109580D02*
X126333333Y-134157200D01*
X126333333Y-134157200D02*
X126428571Y-134204819D01*
X126428571Y-134204819D02*
X126619047Y-134204819D01*
X126619047Y-134204819D02*
X126714285Y-134157200D01*
X126714285Y-134157200D02*
X126761904Y-134109580D01*
X126761904Y-134109580D02*
X126809523Y-134014342D01*
X126809523Y-134014342D02*
X126809523Y-133204819D01*
X127238095Y-133300057D02*
X127285714Y-133252438D01*
X127285714Y-133252438D02*
X127380952Y-133204819D01*
X127380952Y-133204819D02*
X127619047Y-133204819D01*
X127619047Y-133204819D02*
X127714285Y-133252438D01*
X127714285Y-133252438D02*
X127761904Y-133300057D01*
X127761904Y-133300057D02*
X127809523Y-133395295D01*
X127809523Y-133395295D02*
X127809523Y-133490533D01*
X127809523Y-133490533D02*
X127761904Y-133633390D01*
X127761904Y-133633390D02*
X127190476Y-134204819D01*
X127190476Y-134204819D02*
X127809523Y-134204819D01*
X122964284Y-131931009D02*
X123107141Y-131978628D01*
X123107141Y-131978628D02*
X123154760Y-132026247D01*
X123154760Y-132026247D02*
X123202379Y-132121485D01*
X123202379Y-132121485D02*
X123202379Y-132264342D01*
X123202379Y-132264342D02*
X123154760Y-132359580D01*
X123154760Y-132359580D02*
X123107141Y-132407200D01*
X123107141Y-132407200D02*
X123011903Y-132454819D01*
X123011903Y-132454819D02*
X122630951Y-132454819D01*
X122630951Y-132454819D02*
X122630951Y-131454819D01*
X122630951Y-131454819D02*
X122964284Y-131454819D01*
X122964284Y-131454819D02*
X123059522Y-131502438D01*
X123059522Y-131502438D02*
X123107141Y-131550057D01*
X123107141Y-131550057D02*
X123154760Y-131645295D01*
X123154760Y-131645295D02*
X123154760Y-131740533D01*
X123154760Y-131740533D02*
X123107141Y-131835771D01*
X123107141Y-131835771D02*
X123059522Y-131883390D01*
X123059522Y-131883390D02*
X122964284Y-131931009D01*
X122964284Y-131931009D02*
X122630951Y-131931009D01*
X124059522Y-132454819D02*
X124059522Y-131931009D01*
X124059522Y-131931009D02*
X124011903Y-131835771D01*
X124011903Y-131835771D02*
X123916665Y-131788152D01*
X123916665Y-131788152D02*
X123726189Y-131788152D01*
X123726189Y-131788152D02*
X123630951Y-131835771D01*
X124059522Y-132407200D02*
X123964284Y-132454819D01*
X123964284Y-132454819D02*
X123726189Y-132454819D01*
X123726189Y-132454819D02*
X123630951Y-132407200D01*
X123630951Y-132407200D02*
X123583332Y-132311961D01*
X123583332Y-132311961D02*
X123583332Y-132216723D01*
X123583332Y-132216723D02*
X123630951Y-132121485D01*
X123630951Y-132121485D02*
X123726189Y-132073866D01*
X123726189Y-132073866D02*
X123964284Y-132073866D01*
X123964284Y-132073866D02*
X124059522Y-132026247D01*
X124392856Y-131788152D02*
X124773808Y-131788152D01*
X124535713Y-131454819D02*
X124535713Y-132311961D01*
X124535713Y-132311961D02*
X124583332Y-132407200D01*
X124583332Y-132407200D02*
X124678570Y-132454819D01*
X124678570Y-132454819D02*
X124773808Y-132454819D01*
X124964285Y-131788152D02*
X125345237Y-131788152D01*
X125107142Y-131454819D02*
X125107142Y-132311961D01*
X125107142Y-132311961D02*
X125154761Y-132407200D01*
X125154761Y-132407200D02*
X125249999Y-132454819D01*
X125249999Y-132454819D02*
X125345237Y-132454819D01*
X126392857Y-132407200D02*
X126535714Y-132454819D01*
X126535714Y-132454819D02*
X126773809Y-132454819D01*
X126773809Y-132454819D02*
X126869047Y-132407200D01*
X126869047Y-132407200D02*
X126916666Y-132359580D01*
X126916666Y-132359580D02*
X126964285Y-132264342D01*
X126964285Y-132264342D02*
X126964285Y-132169104D01*
X126964285Y-132169104D02*
X126916666Y-132073866D01*
X126916666Y-132073866D02*
X126869047Y-132026247D01*
X126869047Y-132026247D02*
X126773809Y-131978628D01*
X126773809Y-131978628D02*
X126583333Y-131931009D01*
X126583333Y-131931009D02*
X126488095Y-131883390D01*
X126488095Y-131883390D02*
X126440476Y-131835771D01*
X126440476Y-131835771D02*
X126392857Y-131740533D01*
X126392857Y-131740533D02*
X126392857Y-131645295D01*
X126392857Y-131645295D02*
X126440476Y-131550057D01*
X126440476Y-131550057D02*
X126488095Y-131502438D01*
X126488095Y-131502438D02*
X126583333Y-131454819D01*
X126583333Y-131454819D02*
X126821428Y-131454819D01*
X126821428Y-131454819D02*
X126964285Y-131502438D01*
X127250000Y-131788152D02*
X127630952Y-131788152D01*
X127392857Y-131454819D02*
X127392857Y-132311961D01*
X127392857Y-132311961D02*
X127440476Y-132407200D01*
X127440476Y-132407200D02*
X127535714Y-132454819D01*
X127535714Y-132454819D02*
X127630952Y-132454819D01*
X128345238Y-132407200D02*
X128250000Y-132454819D01*
X128250000Y-132454819D02*
X128059524Y-132454819D01*
X128059524Y-132454819D02*
X127964286Y-132407200D01*
X127964286Y-132407200D02*
X127916667Y-132311961D01*
X127916667Y-132311961D02*
X127916667Y-131931009D01*
X127916667Y-131931009D02*
X127964286Y-131835771D01*
X127964286Y-131835771D02*
X128059524Y-131788152D01*
X128059524Y-131788152D02*
X128250000Y-131788152D01*
X128250000Y-131788152D02*
X128345238Y-131835771D01*
X128345238Y-131835771D02*
X128392857Y-131931009D01*
X128392857Y-131931009D02*
X128392857Y-132026247D01*
X128392857Y-132026247D02*
X127916667Y-132121485D01*
X128821429Y-131788152D02*
X128821429Y-132788152D01*
X128821429Y-131835771D02*
X128916667Y-131788152D01*
X128916667Y-131788152D02*
X129107143Y-131788152D01*
X129107143Y-131788152D02*
X129202381Y-131835771D01*
X129202381Y-131835771D02*
X129250000Y-131883390D01*
X129250000Y-131883390D02*
X129297619Y-131978628D01*
X129297619Y-131978628D02*
X129297619Y-132264342D01*
X129297619Y-132264342D02*
X129250000Y-132359580D01*
X129250000Y-132359580D02*
X129202381Y-132407200D01*
X129202381Y-132407200D02*
X129107143Y-132454819D01*
X129107143Y-132454819D02*
X128916667Y-132454819D01*
X128916667Y-132454819D02*
X128821429Y-132407200D01*
X130488096Y-132454819D02*
X130488096Y-131454819D01*
X130488096Y-131454819D02*
X130726191Y-131454819D01*
X130726191Y-131454819D02*
X130869048Y-131502438D01*
X130869048Y-131502438D02*
X130964286Y-131597676D01*
X130964286Y-131597676D02*
X131011905Y-131692914D01*
X131011905Y-131692914D02*
X131059524Y-131883390D01*
X131059524Y-131883390D02*
X131059524Y-132026247D01*
X131059524Y-132026247D02*
X131011905Y-132216723D01*
X131011905Y-132216723D02*
X130964286Y-132311961D01*
X130964286Y-132311961D02*
X130869048Y-132407200D01*
X130869048Y-132407200D02*
X130726191Y-132454819D01*
X130726191Y-132454819D02*
X130488096Y-132454819D01*
X131630953Y-132454819D02*
X131535715Y-132407200D01*
X131535715Y-132407200D02*
X131488096Y-132359580D01*
X131488096Y-132359580D02*
X131440477Y-132264342D01*
X131440477Y-132264342D02*
X131440477Y-131978628D01*
X131440477Y-131978628D02*
X131488096Y-131883390D01*
X131488096Y-131883390D02*
X131535715Y-131835771D01*
X131535715Y-131835771D02*
X131630953Y-131788152D01*
X131630953Y-131788152D02*
X131773810Y-131788152D01*
X131773810Y-131788152D02*
X131869048Y-131835771D01*
X131869048Y-131835771D02*
X131916667Y-131883390D01*
X131916667Y-131883390D02*
X131964286Y-131978628D01*
X131964286Y-131978628D02*
X131964286Y-132264342D01*
X131964286Y-132264342D02*
X131916667Y-132359580D01*
X131916667Y-132359580D02*
X131869048Y-132407200D01*
X131869048Y-132407200D02*
X131773810Y-132454819D01*
X131773810Y-132454819D02*
X131630953Y-132454819D01*
X132297620Y-131788152D02*
X132488096Y-132454819D01*
X132488096Y-132454819D02*
X132678572Y-131978628D01*
X132678572Y-131978628D02*
X132869048Y-132454819D01*
X132869048Y-132454819D02*
X133059524Y-131788152D01*
X133440477Y-131788152D02*
X133440477Y-132454819D01*
X133440477Y-131883390D02*
X133488096Y-131835771D01*
X133488096Y-131835771D02*
X133583334Y-131788152D01*
X133583334Y-131788152D02*
X133726191Y-131788152D01*
X133726191Y-131788152D02*
X133821429Y-131835771D01*
X133821429Y-131835771D02*
X133869048Y-131931009D01*
X133869048Y-131931009D02*
X133869048Y-132454819D01*
X161190476Y-136704819D02*
X161190476Y-135704819D01*
X161190476Y-135704819D02*
X161523809Y-136419104D01*
X161523809Y-136419104D02*
X161857142Y-135704819D01*
X161857142Y-135704819D02*
X161857142Y-136704819D01*
X162761904Y-136038152D02*
X162761904Y-136704819D01*
X162523809Y-135657200D02*
X162285714Y-136371485D01*
X162285714Y-136371485D02*
X162904761Y-136371485D01*
X160940476Y-38454819D02*
X160940476Y-37454819D01*
X160940476Y-37454819D02*
X161273809Y-38169104D01*
X161273809Y-38169104D02*
X161607142Y-37454819D01*
X161607142Y-37454819D02*
X161607142Y-38454819D01*
X162511904Y-37788152D02*
X162511904Y-38454819D01*
X162273809Y-37407200D02*
X162035714Y-38121485D01*
X162035714Y-38121485D02*
X162654761Y-38121485D01*
X155083333Y-51609580D02*
X155035714Y-51657200D01*
X155035714Y-51657200D02*
X154892857Y-51704819D01*
X154892857Y-51704819D02*
X154797619Y-51704819D01*
X154797619Y-51704819D02*
X154654762Y-51657200D01*
X154654762Y-51657200D02*
X154559524Y-51561961D01*
X154559524Y-51561961D02*
X154511905Y-51466723D01*
X154511905Y-51466723D02*
X154464286Y-51276247D01*
X154464286Y-51276247D02*
X154464286Y-51133390D01*
X154464286Y-51133390D02*
X154511905Y-50942914D01*
X154511905Y-50942914D02*
X154559524Y-50847676D01*
X154559524Y-50847676D02*
X154654762Y-50752438D01*
X154654762Y-50752438D02*
X154797619Y-50704819D01*
X154797619Y-50704819D02*
X154892857Y-50704819D01*
X154892857Y-50704819D02*
X155035714Y-50752438D01*
X155035714Y-50752438D02*
X155083333Y-50800057D01*
X155464286Y-50800057D02*
X155511905Y-50752438D01*
X155511905Y-50752438D02*
X155607143Y-50704819D01*
X155607143Y-50704819D02*
X155845238Y-50704819D01*
X155845238Y-50704819D02*
X155940476Y-50752438D01*
X155940476Y-50752438D02*
X155988095Y-50800057D01*
X155988095Y-50800057D02*
X156035714Y-50895295D01*
X156035714Y-50895295D02*
X156035714Y-50990533D01*
X156035714Y-50990533D02*
X155988095Y-51133390D01*
X155988095Y-51133390D02*
X155416667Y-51704819D01*
X155416667Y-51704819D02*
X156035714Y-51704819D01*
X153880952Y-59204819D02*
X153309524Y-59204819D01*
X153595238Y-59204819D02*
X153595238Y-58204819D01*
X153595238Y-58204819D02*
X153500000Y-58347676D01*
X153500000Y-58347676D02*
X153404762Y-58442914D01*
X153404762Y-58442914D02*
X153309524Y-58490533D01*
X154500000Y-58204819D02*
X154595238Y-58204819D01*
X154595238Y-58204819D02*
X154690476Y-58252438D01*
X154690476Y-58252438D02*
X154738095Y-58300057D01*
X154738095Y-58300057D02*
X154785714Y-58395295D01*
X154785714Y-58395295D02*
X154833333Y-58585771D01*
X154833333Y-58585771D02*
X154833333Y-58823866D01*
X154833333Y-58823866D02*
X154785714Y-59014342D01*
X154785714Y-59014342D02*
X154738095Y-59109580D01*
X154738095Y-59109580D02*
X154690476Y-59157200D01*
X154690476Y-59157200D02*
X154595238Y-59204819D01*
X154595238Y-59204819D02*
X154500000Y-59204819D01*
X154500000Y-59204819D02*
X154404762Y-59157200D01*
X154404762Y-59157200D02*
X154357143Y-59109580D01*
X154357143Y-59109580D02*
X154309524Y-59014342D01*
X154309524Y-59014342D02*
X154261905Y-58823866D01*
X154261905Y-58823866D02*
X154261905Y-58585771D01*
X154261905Y-58585771D02*
X154309524Y-58395295D01*
X154309524Y-58395295D02*
X154357143Y-58300057D01*
X154357143Y-58300057D02*
X154404762Y-58252438D01*
X154404762Y-58252438D02*
X154500000Y-58204819D01*
X155452381Y-58204819D02*
X155547619Y-58204819D01*
X155547619Y-58204819D02*
X155642857Y-58252438D01*
X155642857Y-58252438D02*
X155690476Y-58300057D01*
X155690476Y-58300057D02*
X155738095Y-58395295D01*
X155738095Y-58395295D02*
X155785714Y-58585771D01*
X155785714Y-58585771D02*
X155785714Y-58823866D01*
X155785714Y-58823866D02*
X155738095Y-59014342D01*
X155738095Y-59014342D02*
X155690476Y-59109580D01*
X155690476Y-59109580D02*
X155642857Y-59157200D01*
X155642857Y-59157200D02*
X155547619Y-59204819D01*
X155547619Y-59204819D02*
X155452381Y-59204819D01*
X155452381Y-59204819D02*
X155357143Y-59157200D01*
X155357143Y-59157200D02*
X155309524Y-59109580D01*
X155309524Y-59109580D02*
X155261905Y-59014342D01*
X155261905Y-59014342D02*
X155214286Y-58823866D01*
X155214286Y-58823866D02*
X155214286Y-58585771D01*
X155214286Y-58585771D02*
X155261905Y-58395295D01*
X155261905Y-58395295D02*
X155309524Y-58300057D01*
X155309524Y-58300057D02*
X155357143Y-58252438D01*
X155357143Y-58252438D02*
X155452381Y-58204819D01*
X156214286Y-58538152D02*
X156214286Y-59538152D01*
X156690476Y-59061961D02*
X156738095Y-59157200D01*
X156738095Y-59157200D02*
X156833333Y-59204819D01*
X156214286Y-59061961D02*
X156261905Y-59157200D01*
X156261905Y-59157200D02*
X156357143Y-59204819D01*
X156357143Y-59204819D02*
X156547619Y-59204819D01*
X156547619Y-59204819D02*
X156642857Y-59157200D01*
X156642857Y-59157200D02*
X156690476Y-59061961D01*
X156690476Y-59061961D02*
X156690476Y-58538152D01*
X157595238Y-58681009D02*
X157261905Y-58681009D01*
X157261905Y-59204819D02*
X157261905Y-58204819D01*
X157261905Y-58204819D02*
X157738095Y-58204819D01*
X160690476Y-51954819D02*
X160690476Y-50954819D01*
X160690476Y-50954819D02*
X161023809Y-51669104D01*
X161023809Y-51669104D02*
X161357142Y-50954819D01*
X161357142Y-50954819D02*
X161357142Y-51954819D01*
X161785714Y-51050057D02*
X161833333Y-51002438D01*
X161833333Y-51002438D02*
X161928571Y-50954819D01*
X161928571Y-50954819D02*
X162166666Y-50954819D01*
X162166666Y-50954819D02*
X162261904Y-51002438D01*
X162261904Y-51002438D02*
X162309523Y-51050057D01*
X162309523Y-51050057D02*
X162357142Y-51145295D01*
X162357142Y-51145295D02*
X162357142Y-51240533D01*
X162357142Y-51240533D02*
X162309523Y-51383390D01*
X162309523Y-51383390D02*
X161738095Y-51954819D01*
X161738095Y-51954819D02*
X162357142Y-51954819D01*
X154773808Y-61907200D02*
X154916665Y-61954819D01*
X154916665Y-61954819D02*
X155154760Y-61954819D01*
X155154760Y-61954819D02*
X155249998Y-61907200D01*
X155249998Y-61907200D02*
X155297617Y-61859580D01*
X155297617Y-61859580D02*
X155345236Y-61764342D01*
X155345236Y-61764342D02*
X155345236Y-61669104D01*
X155345236Y-61669104D02*
X155297617Y-61573866D01*
X155297617Y-61573866D02*
X155249998Y-61526247D01*
X155249998Y-61526247D02*
X155154760Y-61478628D01*
X155154760Y-61478628D02*
X154964284Y-61431009D01*
X154964284Y-61431009D02*
X154869046Y-61383390D01*
X154869046Y-61383390D02*
X154821427Y-61335771D01*
X154821427Y-61335771D02*
X154773808Y-61240533D01*
X154773808Y-61240533D02*
X154773808Y-61145295D01*
X154773808Y-61145295D02*
X154821427Y-61050057D01*
X154821427Y-61050057D02*
X154869046Y-61002438D01*
X154869046Y-61002438D02*
X154964284Y-60954819D01*
X154964284Y-60954819D02*
X155202379Y-60954819D01*
X155202379Y-60954819D02*
X155345236Y-61002438D01*
X156154760Y-61907200D02*
X156059522Y-61954819D01*
X156059522Y-61954819D02*
X155869046Y-61954819D01*
X155869046Y-61954819D02*
X155773808Y-61907200D01*
X155773808Y-61907200D02*
X155726189Y-61811961D01*
X155726189Y-61811961D02*
X155726189Y-61431009D01*
X155726189Y-61431009D02*
X155773808Y-61335771D01*
X155773808Y-61335771D02*
X155869046Y-61288152D01*
X155869046Y-61288152D02*
X156059522Y-61288152D01*
X156059522Y-61288152D02*
X156154760Y-61335771D01*
X156154760Y-61335771D02*
X156202379Y-61431009D01*
X156202379Y-61431009D02*
X156202379Y-61526247D01*
X156202379Y-61526247D02*
X155726189Y-61621485D01*
X156630951Y-61954819D02*
X156630951Y-61288152D01*
X156630951Y-61478628D02*
X156678570Y-61383390D01*
X156678570Y-61383390D02*
X156726189Y-61335771D01*
X156726189Y-61335771D02*
X156821427Y-61288152D01*
X156821427Y-61288152D02*
X156916665Y-61288152D01*
X157154761Y-61288152D02*
X157392856Y-61954819D01*
X157392856Y-61954819D02*
X157630951Y-61288152D01*
X158154761Y-61954819D02*
X158059523Y-61907200D01*
X158059523Y-61907200D02*
X158011904Y-61859580D01*
X158011904Y-61859580D02*
X157964285Y-61764342D01*
X157964285Y-61764342D02*
X157964285Y-61478628D01*
X157964285Y-61478628D02*
X158011904Y-61383390D01*
X158011904Y-61383390D02*
X158059523Y-61335771D01*
X158059523Y-61335771D02*
X158154761Y-61288152D01*
X158154761Y-61288152D02*
X158297618Y-61288152D01*
X158297618Y-61288152D02*
X158392856Y-61335771D01*
X158392856Y-61335771D02*
X158440475Y-61383390D01*
X158440475Y-61383390D02*
X158488094Y-61478628D01*
X158488094Y-61478628D02*
X158488094Y-61764342D01*
X158488094Y-61764342D02*
X158440475Y-61859580D01*
X158440475Y-61859580D02*
X158392856Y-61907200D01*
X158392856Y-61907200D02*
X158297618Y-61954819D01*
X158297618Y-61954819D02*
X158154761Y-61954819D01*
X160249999Y-61859580D02*
X160202380Y-61907200D01*
X160202380Y-61907200D02*
X160059523Y-61954819D01*
X160059523Y-61954819D02*
X159964285Y-61954819D01*
X159964285Y-61954819D02*
X159821428Y-61907200D01*
X159821428Y-61907200D02*
X159726190Y-61811961D01*
X159726190Y-61811961D02*
X159678571Y-61716723D01*
X159678571Y-61716723D02*
X159630952Y-61526247D01*
X159630952Y-61526247D02*
X159630952Y-61383390D01*
X159630952Y-61383390D02*
X159678571Y-61192914D01*
X159678571Y-61192914D02*
X159726190Y-61097676D01*
X159726190Y-61097676D02*
X159821428Y-61002438D01*
X159821428Y-61002438D02*
X159964285Y-60954819D01*
X159964285Y-60954819D02*
X160059523Y-60954819D01*
X160059523Y-60954819D02*
X160202380Y-61002438D01*
X160202380Y-61002438D02*
X160249999Y-61050057D01*
X160821428Y-61954819D02*
X160726190Y-61907200D01*
X160726190Y-61907200D02*
X160678571Y-61859580D01*
X160678571Y-61859580D02*
X160630952Y-61764342D01*
X160630952Y-61764342D02*
X160630952Y-61478628D01*
X160630952Y-61478628D02*
X160678571Y-61383390D01*
X160678571Y-61383390D02*
X160726190Y-61335771D01*
X160726190Y-61335771D02*
X160821428Y-61288152D01*
X160821428Y-61288152D02*
X160964285Y-61288152D01*
X160964285Y-61288152D02*
X161059523Y-61335771D01*
X161059523Y-61335771D02*
X161107142Y-61383390D01*
X161107142Y-61383390D02*
X161154761Y-61478628D01*
X161154761Y-61478628D02*
X161154761Y-61764342D01*
X161154761Y-61764342D02*
X161107142Y-61859580D01*
X161107142Y-61859580D02*
X161059523Y-61907200D01*
X161059523Y-61907200D02*
X160964285Y-61954819D01*
X160964285Y-61954819D02*
X160821428Y-61954819D01*
X161583333Y-61288152D02*
X161583333Y-61954819D01*
X161583333Y-61383390D02*
X161630952Y-61335771D01*
X161630952Y-61335771D02*
X161726190Y-61288152D01*
X161726190Y-61288152D02*
X161869047Y-61288152D01*
X161869047Y-61288152D02*
X161964285Y-61335771D01*
X161964285Y-61335771D02*
X162011904Y-61431009D01*
X162011904Y-61431009D02*
X162011904Y-61954819D01*
X162488095Y-61288152D02*
X162488095Y-61954819D01*
X162488095Y-61383390D02*
X162535714Y-61335771D01*
X162535714Y-61335771D02*
X162630952Y-61288152D01*
X162630952Y-61288152D02*
X162773809Y-61288152D01*
X162773809Y-61288152D02*
X162869047Y-61335771D01*
X162869047Y-61335771D02*
X162916666Y-61431009D01*
X162916666Y-61431009D02*
X162916666Y-61954819D01*
X163773809Y-61907200D02*
X163678571Y-61954819D01*
X163678571Y-61954819D02*
X163488095Y-61954819D01*
X163488095Y-61954819D02*
X163392857Y-61907200D01*
X163392857Y-61907200D02*
X163345238Y-61811961D01*
X163345238Y-61811961D02*
X163345238Y-61431009D01*
X163345238Y-61431009D02*
X163392857Y-61335771D01*
X163392857Y-61335771D02*
X163488095Y-61288152D01*
X163488095Y-61288152D02*
X163678571Y-61288152D01*
X163678571Y-61288152D02*
X163773809Y-61335771D01*
X163773809Y-61335771D02*
X163821428Y-61431009D01*
X163821428Y-61431009D02*
X163821428Y-61526247D01*
X163821428Y-61526247D02*
X163345238Y-61621485D01*
X164678571Y-61907200D02*
X164583333Y-61954819D01*
X164583333Y-61954819D02*
X164392857Y-61954819D01*
X164392857Y-61954819D02*
X164297619Y-61907200D01*
X164297619Y-61907200D02*
X164250000Y-61859580D01*
X164250000Y-61859580D02*
X164202381Y-61764342D01*
X164202381Y-61764342D02*
X164202381Y-61478628D01*
X164202381Y-61478628D02*
X164250000Y-61383390D01*
X164250000Y-61383390D02*
X164297619Y-61335771D01*
X164297619Y-61335771D02*
X164392857Y-61288152D01*
X164392857Y-61288152D02*
X164583333Y-61288152D01*
X164583333Y-61288152D02*
X164678571Y-61335771D01*
X164964286Y-61288152D02*
X165345238Y-61288152D01*
X165107143Y-60954819D02*
X165107143Y-61811961D01*
X165107143Y-61811961D02*
X165154762Y-61907200D01*
X165154762Y-61907200D02*
X165250000Y-61954819D01*
X165250000Y-61954819D02*
X165345238Y-61954819D01*
X166059524Y-61907200D02*
X165964286Y-61954819D01*
X165964286Y-61954819D02*
X165773810Y-61954819D01*
X165773810Y-61954819D02*
X165678572Y-61907200D01*
X165678572Y-61907200D02*
X165630953Y-61811961D01*
X165630953Y-61811961D02*
X165630953Y-61431009D01*
X165630953Y-61431009D02*
X165678572Y-61335771D01*
X165678572Y-61335771D02*
X165773810Y-61288152D01*
X165773810Y-61288152D02*
X165964286Y-61288152D01*
X165964286Y-61288152D02*
X166059524Y-61335771D01*
X166059524Y-61335771D02*
X166107143Y-61431009D01*
X166107143Y-61431009D02*
X166107143Y-61526247D01*
X166107143Y-61526247D02*
X165630953Y-61621485D01*
X166535715Y-61954819D02*
X166535715Y-61288152D01*
X166535715Y-61478628D02*
X166583334Y-61383390D01*
X166583334Y-61383390D02*
X166630953Y-61335771D01*
X166630953Y-61335771D02*
X166726191Y-61288152D01*
X166726191Y-61288152D02*
X166821429Y-61288152D01*
D15*
X143197666Y-132856985D02*
X143197666Y-133576652D01*
X143197666Y-133576652D02*
X143240000Y-133661318D01*
X143240000Y-133661318D02*
X143282333Y-133703652D01*
X143282333Y-133703652D02*
X143367000Y-133745985D01*
X143367000Y-133745985D02*
X143536333Y-133745985D01*
X143536333Y-133745985D02*
X143621000Y-133703652D01*
X143621000Y-133703652D02*
X143663333Y-133661318D01*
X143663333Y-133661318D02*
X143705666Y-133576652D01*
X143705666Y-133576652D02*
X143705666Y-132856985D01*
X144594666Y-133745985D02*
X144086666Y-133745985D01*
X144340666Y-133745985D02*
X144340666Y-132856985D01*
X144340666Y-132856985D02*
X144255999Y-132983985D01*
X144255999Y-132983985D02*
X144171333Y-133068652D01*
X144171333Y-133068652D02*
X144086666Y-133110985D01*
D14*
X139113095Y-137787200D02*
X139255952Y-137834819D01*
X139255952Y-137834819D02*
X139494047Y-137834819D01*
X139494047Y-137834819D02*
X139589285Y-137787200D01*
X139589285Y-137787200D02*
X139636904Y-137739580D01*
X139636904Y-137739580D02*
X139684523Y-137644342D01*
X139684523Y-137644342D02*
X139684523Y-137549104D01*
X139684523Y-137549104D02*
X139636904Y-137453866D01*
X139636904Y-137453866D02*
X139589285Y-137406247D01*
X139589285Y-137406247D02*
X139494047Y-137358628D01*
X139494047Y-137358628D02*
X139303571Y-137311009D01*
X139303571Y-137311009D02*
X139208333Y-137263390D01*
X139208333Y-137263390D02*
X139160714Y-137215771D01*
X139160714Y-137215771D02*
X139113095Y-137120533D01*
X139113095Y-137120533D02*
X139113095Y-137025295D01*
X139113095Y-137025295D02*
X139160714Y-136930057D01*
X139160714Y-136930057D02*
X139208333Y-136882438D01*
X139208333Y-136882438D02*
X139303571Y-136834819D01*
X139303571Y-136834819D02*
X139541666Y-136834819D01*
X139541666Y-136834819D02*
X139684523Y-136882438D01*
X140494047Y-137787200D02*
X140398809Y-137834819D01*
X140398809Y-137834819D02*
X140208333Y-137834819D01*
X140208333Y-137834819D02*
X140113095Y-137787200D01*
X140113095Y-137787200D02*
X140065476Y-137691961D01*
X140065476Y-137691961D02*
X140065476Y-137311009D01*
X140065476Y-137311009D02*
X140113095Y-137215771D01*
X140113095Y-137215771D02*
X140208333Y-137168152D01*
X140208333Y-137168152D02*
X140398809Y-137168152D01*
X140398809Y-137168152D02*
X140494047Y-137215771D01*
X140494047Y-137215771D02*
X140541666Y-137311009D01*
X140541666Y-137311009D02*
X140541666Y-137406247D01*
X140541666Y-137406247D02*
X140065476Y-137501485D01*
X141351190Y-137787200D02*
X141255952Y-137834819D01*
X141255952Y-137834819D02*
X141065476Y-137834819D01*
X141065476Y-137834819D02*
X140970238Y-137787200D01*
X140970238Y-137787200D02*
X140922619Y-137691961D01*
X140922619Y-137691961D02*
X140922619Y-137311009D01*
X140922619Y-137311009D02*
X140970238Y-137215771D01*
X140970238Y-137215771D02*
X141065476Y-137168152D01*
X141065476Y-137168152D02*
X141255952Y-137168152D01*
X141255952Y-137168152D02*
X141351190Y-137215771D01*
X141351190Y-137215771D02*
X141398809Y-137311009D01*
X141398809Y-137311009D02*
X141398809Y-137406247D01*
X141398809Y-137406247D02*
X140922619Y-137501485D01*
X142208333Y-137787200D02*
X142113095Y-137834819D01*
X142113095Y-137834819D02*
X141922619Y-137834819D01*
X141922619Y-137834819D02*
X141827381Y-137787200D01*
X141827381Y-137787200D02*
X141779762Y-137691961D01*
X141779762Y-137691961D02*
X141779762Y-137311009D01*
X141779762Y-137311009D02*
X141827381Y-137215771D01*
X141827381Y-137215771D02*
X141922619Y-137168152D01*
X141922619Y-137168152D02*
X142113095Y-137168152D01*
X142113095Y-137168152D02*
X142208333Y-137215771D01*
X142208333Y-137215771D02*
X142255952Y-137311009D01*
X142255952Y-137311009D02*
X142255952Y-137406247D01*
X142255952Y-137406247D02*
X141779762Y-137501485D01*
X143113095Y-137834819D02*
X143113095Y-136834819D01*
X143113095Y-137787200D02*
X143017857Y-137834819D01*
X143017857Y-137834819D02*
X142827381Y-137834819D01*
X142827381Y-137834819D02*
X142732143Y-137787200D01*
X142732143Y-137787200D02*
X142684524Y-137739580D01*
X142684524Y-137739580D02*
X142636905Y-137644342D01*
X142636905Y-137644342D02*
X142636905Y-137358628D01*
X142636905Y-137358628D02*
X142684524Y-137263390D01*
X142684524Y-137263390D02*
X142732143Y-137215771D01*
X142732143Y-137215771D02*
X142827381Y-137168152D01*
X142827381Y-137168152D02*
X143017857Y-137168152D01*
X143017857Y-137168152D02*
X143113095Y-137215771D01*
X144303572Y-137787200D02*
X144446429Y-137834819D01*
X144446429Y-137834819D02*
X144684524Y-137834819D01*
X144684524Y-137834819D02*
X144779762Y-137787200D01*
X144779762Y-137787200D02*
X144827381Y-137739580D01*
X144827381Y-137739580D02*
X144875000Y-137644342D01*
X144875000Y-137644342D02*
X144875000Y-137549104D01*
X144875000Y-137549104D02*
X144827381Y-137453866D01*
X144827381Y-137453866D02*
X144779762Y-137406247D01*
X144779762Y-137406247D02*
X144684524Y-137358628D01*
X144684524Y-137358628D02*
X144494048Y-137311009D01*
X144494048Y-137311009D02*
X144398810Y-137263390D01*
X144398810Y-137263390D02*
X144351191Y-137215771D01*
X144351191Y-137215771D02*
X144303572Y-137120533D01*
X144303572Y-137120533D02*
X144303572Y-137025295D01*
X144303572Y-137025295D02*
X144351191Y-136930057D01*
X144351191Y-136930057D02*
X144398810Y-136882438D01*
X144398810Y-136882438D02*
X144494048Y-136834819D01*
X144494048Y-136834819D02*
X144732143Y-136834819D01*
X144732143Y-136834819D02*
X144875000Y-136882438D01*
X145160715Y-137168152D02*
X145541667Y-137168152D01*
X145303572Y-136834819D02*
X145303572Y-137691961D01*
X145303572Y-137691961D02*
X145351191Y-137787200D01*
X145351191Y-137787200D02*
X145446429Y-137834819D01*
X145446429Y-137834819D02*
X145541667Y-137834819D01*
X146303572Y-137168152D02*
X146303572Y-137834819D01*
X145875001Y-137168152D02*
X145875001Y-137691961D01*
X145875001Y-137691961D02*
X145922620Y-137787200D01*
X145922620Y-137787200D02*
X146017858Y-137834819D01*
X146017858Y-137834819D02*
X146160715Y-137834819D01*
X146160715Y-137834819D02*
X146255953Y-137787200D01*
X146255953Y-137787200D02*
X146303572Y-137739580D01*
X147208334Y-137834819D02*
X147208334Y-136834819D01*
X147208334Y-137787200D02*
X147113096Y-137834819D01*
X147113096Y-137834819D02*
X146922620Y-137834819D01*
X146922620Y-137834819D02*
X146827382Y-137787200D01*
X146827382Y-137787200D02*
X146779763Y-137739580D01*
X146779763Y-137739580D02*
X146732144Y-137644342D01*
X146732144Y-137644342D02*
X146732144Y-137358628D01*
X146732144Y-137358628D02*
X146779763Y-137263390D01*
X146779763Y-137263390D02*
X146827382Y-137215771D01*
X146827382Y-137215771D02*
X146922620Y-137168152D01*
X146922620Y-137168152D02*
X147113096Y-137168152D01*
X147113096Y-137168152D02*
X147208334Y-137215771D01*
X147684525Y-137834819D02*
X147684525Y-137168152D01*
X147684525Y-136834819D02*
X147636906Y-136882438D01*
X147636906Y-136882438D02*
X147684525Y-136930057D01*
X147684525Y-136930057D02*
X147732144Y-136882438D01*
X147732144Y-136882438D02*
X147684525Y-136834819D01*
X147684525Y-136834819D02*
X147684525Y-136930057D01*
X148303572Y-137834819D02*
X148208334Y-137787200D01*
X148208334Y-137787200D02*
X148160715Y-137739580D01*
X148160715Y-137739580D02*
X148113096Y-137644342D01*
X148113096Y-137644342D02*
X148113096Y-137358628D01*
X148113096Y-137358628D02*
X148160715Y-137263390D01*
X148160715Y-137263390D02*
X148208334Y-137215771D01*
X148208334Y-137215771D02*
X148303572Y-137168152D01*
X148303572Y-137168152D02*
X148446429Y-137168152D01*
X148446429Y-137168152D02*
X148541667Y-137215771D01*
X148541667Y-137215771D02*
X148589286Y-137263390D01*
X148589286Y-137263390D02*
X148636905Y-137358628D01*
X148636905Y-137358628D02*
X148636905Y-137644342D01*
X148636905Y-137644342D02*
X148589286Y-137739580D01*
X148589286Y-137739580D02*
X148541667Y-137787200D01*
X148541667Y-137787200D02*
X148446429Y-137834819D01*
X148446429Y-137834819D02*
X148303572Y-137834819D01*
D13*
X136396428Y-127155197D02*
X136396428Y-125705197D01*
X136396428Y-125705197D02*
X136879761Y-126740911D01*
X136879761Y-126740911D02*
X137363094Y-125705197D01*
X137363094Y-125705197D02*
X137363094Y-127155197D01*
X138882142Y-127017102D02*
X138813094Y-127086150D01*
X138813094Y-127086150D02*
X138605952Y-127155197D01*
X138605952Y-127155197D02*
X138467856Y-127155197D01*
X138467856Y-127155197D02*
X138260713Y-127086150D01*
X138260713Y-127086150D02*
X138122618Y-126948054D01*
X138122618Y-126948054D02*
X138053571Y-126809959D01*
X138053571Y-126809959D02*
X137984523Y-126533769D01*
X137984523Y-126533769D02*
X137984523Y-126326626D01*
X137984523Y-126326626D02*
X138053571Y-126050435D01*
X138053571Y-126050435D02*
X138122618Y-125912340D01*
X138122618Y-125912340D02*
X138260713Y-125774245D01*
X138260713Y-125774245D02*
X138467856Y-125705197D01*
X138467856Y-125705197D02*
X138605952Y-125705197D01*
X138605952Y-125705197D02*
X138813094Y-125774245D01*
X138813094Y-125774245D02*
X138882142Y-125843292D01*
X139503571Y-125705197D02*
X139503571Y-126879007D01*
X139503571Y-126879007D02*
X139572618Y-127017102D01*
X139572618Y-127017102D02*
X139641666Y-127086150D01*
X139641666Y-127086150D02*
X139779761Y-127155197D01*
X139779761Y-127155197D02*
X140055952Y-127155197D01*
X140055952Y-127155197D02*
X140194047Y-127086150D01*
X140194047Y-127086150D02*
X140263094Y-127017102D01*
X140263094Y-127017102D02*
X140332142Y-126879007D01*
X140332142Y-126879007D02*
X140332142Y-125705197D01*
X142886904Y-125774245D02*
X142748809Y-125705197D01*
X142748809Y-125705197D02*
X142541666Y-125705197D01*
X142541666Y-125705197D02*
X142334523Y-125774245D01*
X142334523Y-125774245D02*
X142196428Y-125912340D01*
X142196428Y-125912340D02*
X142127381Y-126050435D01*
X142127381Y-126050435D02*
X142058333Y-126326626D01*
X142058333Y-126326626D02*
X142058333Y-126533769D01*
X142058333Y-126533769D02*
X142127381Y-126809959D01*
X142127381Y-126809959D02*
X142196428Y-126948054D01*
X142196428Y-126948054D02*
X142334523Y-127086150D01*
X142334523Y-127086150D02*
X142541666Y-127155197D01*
X142541666Y-127155197D02*
X142679762Y-127155197D01*
X142679762Y-127155197D02*
X142886904Y-127086150D01*
X142886904Y-127086150D02*
X142955952Y-127017102D01*
X142955952Y-127017102D02*
X142955952Y-126533769D01*
X142955952Y-126533769D02*
X142679762Y-126533769D01*
X143853571Y-125705197D02*
X144129762Y-125705197D01*
X144129762Y-125705197D02*
X144267857Y-125774245D01*
X144267857Y-125774245D02*
X144405952Y-125912340D01*
X144405952Y-125912340D02*
X144475000Y-126188530D01*
X144475000Y-126188530D02*
X144475000Y-126671864D01*
X144475000Y-126671864D02*
X144405952Y-126948054D01*
X144405952Y-126948054D02*
X144267857Y-127086150D01*
X144267857Y-127086150D02*
X144129762Y-127155197D01*
X144129762Y-127155197D02*
X143853571Y-127155197D01*
X143853571Y-127155197D02*
X143715476Y-127086150D01*
X143715476Y-127086150D02*
X143577381Y-126948054D01*
X143577381Y-126948054D02*
X143508333Y-126671864D01*
X143508333Y-126671864D02*
X143508333Y-126188530D01*
X143508333Y-126188530D02*
X143577381Y-125912340D01*
X143577381Y-125912340D02*
X143715476Y-125774245D01*
X143715476Y-125774245D02*
X143853571Y-125705197D01*
X146201191Y-127155197D02*
X146201191Y-125705197D01*
X146201191Y-126395673D02*
X147029762Y-126395673D01*
X147029762Y-127155197D02*
X147029762Y-125705197D01*
X147720239Y-126395673D02*
X148203572Y-126395673D01*
X148410715Y-127155197D02*
X147720239Y-127155197D01*
X147720239Y-127155197D02*
X147720239Y-125705197D01*
X147720239Y-125705197D02*
X148410715Y-125705197D01*
X149860715Y-127155197D02*
X149377382Y-126464721D01*
X149032144Y-127155197D02*
X149032144Y-125705197D01*
X149032144Y-125705197D02*
X149584525Y-125705197D01*
X149584525Y-125705197D02*
X149722620Y-125774245D01*
X149722620Y-125774245D02*
X149791667Y-125843292D01*
X149791667Y-125843292D02*
X149860715Y-125981388D01*
X149860715Y-125981388D02*
X149860715Y-126188530D01*
X149860715Y-126188530D02*
X149791667Y-126326626D01*
X149791667Y-126326626D02*
X149722620Y-126395673D01*
X149722620Y-126395673D02*
X149584525Y-126464721D01*
X149584525Y-126464721D02*
X149032144Y-126464721D01*
X150482144Y-126395673D02*
X150965477Y-126395673D01*
X151172620Y-127155197D02*
X150482144Y-127155197D01*
X150482144Y-127155197D02*
X150482144Y-125705197D01*
X150482144Y-125705197D02*
X151172620Y-125705197D01*
D14*
X137346666Y-98914819D02*
X137346666Y-97914819D01*
X137346666Y-97914819D02*
X137918094Y-98914819D01*
X137918094Y-98914819D02*
X137918094Y-97914819D01*
X138727618Y-98391009D02*
X138394285Y-98391009D01*
X138394285Y-98914819D02*
X138394285Y-97914819D01*
X138394285Y-97914819D02*
X138870475Y-97914819D01*
X139822856Y-98819580D02*
X139775237Y-98867200D01*
X139775237Y-98867200D02*
X139632380Y-98914819D01*
X139632380Y-98914819D02*
X139537142Y-98914819D01*
X139537142Y-98914819D02*
X139394285Y-98867200D01*
X139394285Y-98867200D02*
X139299047Y-98771961D01*
X139299047Y-98771961D02*
X139251428Y-98676723D01*
X139251428Y-98676723D02*
X139203809Y-98486247D01*
X139203809Y-98486247D02*
X139203809Y-98343390D01*
X139203809Y-98343390D02*
X139251428Y-98152914D01*
X139251428Y-98152914D02*
X139299047Y-98057676D01*
X139299047Y-98057676D02*
X139394285Y-97962438D01*
X139394285Y-97962438D02*
X139537142Y-97914819D01*
X139537142Y-97914819D02*
X139632380Y-97914819D01*
X139632380Y-97914819D02*
X139775237Y-97962438D01*
X139775237Y-97962438D02*
X139822856Y-98010057D01*
X141584761Y-98819580D02*
X141537142Y-98867200D01*
X141537142Y-98867200D02*
X141394285Y-98914819D01*
X141394285Y-98914819D02*
X141299047Y-98914819D01*
X141299047Y-98914819D02*
X141156190Y-98867200D01*
X141156190Y-98867200D02*
X141060952Y-98771961D01*
X141060952Y-98771961D02*
X141013333Y-98676723D01*
X141013333Y-98676723D02*
X140965714Y-98486247D01*
X140965714Y-98486247D02*
X140965714Y-98343390D01*
X140965714Y-98343390D02*
X141013333Y-98152914D01*
X141013333Y-98152914D02*
X141060952Y-98057676D01*
X141060952Y-98057676D02*
X141156190Y-97962438D01*
X141156190Y-97962438D02*
X141299047Y-97914819D01*
X141299047Y-97914819D02*
X141394285Y-97914819D01*
X141394285Y-97914819D02*
X141537142Y-97962438D01*
X141537142Y-97962438D02*
X141584761Y-98010057D01*
X142156190Y-98914819D02*
X142060952Y-98867200D01*
X142060952Y-98867200D02*
X142013333Y-98819580D01*
X142013333Y-98819580D02*
X141965714Y-98724342D01*
X141965714Y-98724342D02*
X141965714Y-98438628D01*
X141965714Y-98438628D02*
X142013333Y-98343390D01*
X142013333Y-98343390D02*
X142060952Y-98295771D01*
X142060952Y-98295771D02*
X142156190Y-98248152D01*
X142156190Y-98248152D02*
X142299047Y-98248152D01*
X142299047Y-98248152D02*
X142394285Y-98295771D01*
X142394285Y-98295771D02*
X142441904Y-98343390D01*
X142441904Y-98343390D02*
X142489523Y-98438628D01*
X142489523Y-98438628D02*
X142489523Y-98724342D01*
X142489523Y-98724342D02*
X142441904Y-98819580D01*
X142441904Y-98819580D02*
X142394285Y-98867200D01*
X142394285Y-98867200D02*
X142299047Y-98914819D01*
X142299047Y-98914819D02*
X142156190Y-98914819D01*
X142918095Y-98248152D02*
X142918095Y-98914819D01*
X142918095Y-98343390D02*
X142965714Y-98295771D01*
X142965714Y-98295771D02*
X143060952Y-98248152D01*
X143060952Y-98248152D02*
X143203809Y-98248152D01*
X143203809Y-98248152D02*
X143299047Y-98295771D01*
X143299047Y-98295771D02*
X143346666Y-98391009D01*
X143346666Y-98391009D02*
X143346666Y-98914819D01*
X143822857Y-98248152D02*
X143822857Y-98914819D01*
X143822857Y-98343390D02*
X143870476Y-98295771D01*
X143870476Y-98295771D02*
X143965714Y-98248152D01*
X143965714Y-98248152D02*
X144108571Y-98248152D01*
X144108571Y-98248152D02*
X144203809Y-98295771D01*
X144203809Y-98295771D02*
X144251428Y-98391009D01*
X144251428Y-98391009D02*
X144251428Y-98914819D01*
X145108571Y-98867200D02*
X145013333Y-98914819D01*
X145013333Y-98914819D02*
X144822857Y-98914819D01*
X144822857Y-98914819D02*
X144727619Y-98867200D01*
X144727619Y-98867200D02*
X144680000Y-98771961D01*
X144680000Y-98771961D02*
X144680000Y-98391009D01*
X144680000Y-98391009D02*
X144727619Y-98295771D01*
X144727619Y-98295771D02*
X144822857Y-98248152D01*
X144822857Y-98248152D02*
X145013333Y-98248152D01*
X145013333Y-98248152D02*
X145108571Y-98295771D01*
X145108571Y-98295771D02*
X145156190Y-98391009D01*
X145156190Y-98391009D02*
X145156190Y-98486247D01*
X145156190Y-98486247D02*
X144680000Y-98581485D01*
X146013333Y-98867200D02*
X145918095Y-98914819D01*
X145918095Y-98914819D02*
X145727619Y-98914819D01*
X145727619Y-98914819D02*
X145632381Y-98867200D01*
X145632381Y-98867200D02*
X145584762Y-98819580D01*
X145584762Y-98819580D02*
X145537143Y-98724342D01*
X145537143Y-98724342D02*
X145537143Y-98438628D01*
X145537143Y-98438628D02*
X145584762Y-98343390D01*
X145584762Y-98343390D02*
X145632381Y-98295771D01*
X145632381Y-98295771D02*
X145727619Y-98248152D01*
X145727619Y-98248152D02*
X145918095Y-98248152D01*
X145918095Y-98248152D02*
X146013333Y-98295771D01*
X146299048Y-98248152D02*
X146680000Y-98248152D01*
X146441905Y-97914819D02*
X146441905Y-98771961D01*
X146441905Y-98771961D02*
X146489524Y-98867200D01*
X146489524Y-98867200D02*
X146584762Y-98914819D01*
X146584762Y-98914819D02*
X146680000Y-98914819D01*
X147394286Y-98867200D02*
X147299048Y-98914819D01*
X147299048Y-98914819D02*
X147108572Y-98914819D01*
X147108572Y-98914819D02*
X147013334Y-98867200D01*
X147013334Y-98867200D02*
X146965715Y-98771961D01*
X146965715Y-98771961D02*
X146965715Y-98391009D01*
X146965715Y-98391009D02*
X147013334Y-98295771D01*
X147013334Y-98295771D02*
X147108572Y-98248152D01*
X147108572Y-98248152D02*
X147299048Y-98248152D01*
X147299048Y-98248152D02*
X147394286Y-98295771D01*
X147394286Y-98295771D02*
X147441905Y-98391009D01*
X147441905Y-98391009D02*
X147441905Y-98486247D01*
X147441905Y-98486247D02*
X146965715Y-98581485D01*
X147870477Y-98914819D02*
X147870477Y-98248152D01*
X147870477Y-98438628D02*
X147918096Y-98343390D01*
X147918096Y-98343390D02*
X147965715Y-98295771D01*
X147965715Y-98295771D02*
X148060953Y-98248152D01*
X148060953Y-98248152D02*
X148156191Y-98248152D01*
X129833333Y-51359580D02*
X129785714Y-51407200D01*
X129785714Y-51407200D02*
X129642857Y-51454819D01*
X129642857Y-51454819D02*
X129547619Y-51454819D01*
X129547619Y-51454819D02*
X129404762Y-51407200D01*
X129404762Y-51407200D02*
X129309524Y-51311961D01*
X129309524Y-51311961D02*
X129261905Y-51216723D01*
X129261905Y-51216723D02*
X129214286Y-51026247D01*
X129214286Y-51026247D02*
X129214286Y-50883390D01*
X129214286Y-50883390D02*
X129261905Y-50692914D01*
X129261905Y-50692914D02*
X129309524Y-50597676D01*
X129309524Y-50597676D02*
X129404762Y-50502438D01*
X129404762Y-50502438D02*
X129547619Y-50454819D01*
X129547619Y-50454819D02*
X129642857Y-50454819D01*
X129642857Y-50454819D02*
X129785714Y-50502438D01*
X129785714Y-50502438D02*
X129833333Y-50550057D01*
X130785714Y-51454819D02*
X130214286Y-51454819D01*
X130500000Y-51454819D02*
X130500000Y-50454819D01*
X130500000Y-50454819D02*
X130404762Y-50597676D01*
X130404762Y-50597676D02*
X130309524Y-50692914D01*
X130309524Y-50692914D02*
X130214286Y-50740533D01*
X128380952Y-58954819D02*
X127809524Y-58954819D01*
X128095238Y-58954819D02*
X128095238Y-57954819D01*
X128095238Y-57954819D02*
X128000000Y-58097676D01*
X128000000Y-58097676D02*
X127904762Y-58192914D01*
X127904762Y-58192914D02*
X127809524Y-58240533D01*
X129000000Y-57954819D02*
X129095238Y-57954819D01*
X129095238Y-57954819D02*
X129190476Y-58002438D01*
X129190476Y-58002438D02*
X129238095Y-58050057D01*
X129238095Y-58050057D02*
X129285714Y-58145295D01*
X129285714Y-58145295D02*
X129333333Y-58335771D01*
X129333333Y-58335771D02*
X129333333Y-58573866D01*
X129333333Y-58573866D02*
X129285714Y-58764342D01*
X129285714Y-58764342D02*
X129238095Y-58859580D01*
X129238095Y-58859580D02*
X129190476Y-58907200D01*
X129190476Y-58907200D02*
X129095238Y-58954819D01*
X129095238Y-58954819D02*
X129000000Y-58954819D01*
X129000000Y-58954819D02*
X128904762Y-58907200D01*
X128904762Y-58907200D02*
X128857143Y-58859580D01*
X128857143Y-58859580D02*
X128809524Y-58764342D01*
X128809524Y-58764342D02*
X128761905Y-58573866D01*
X128761905Y-58573866D02*
X128761905Y-58335771D01*
X128761905Y-58335771D02*
X128809524Y-58145295D01*
X128809524Y-58145295D02*
X128857143Y-58050057D01*
X128857143Y-58050057D02*
X128904762Y-58002438D01*
X128904762Y-58002438D02*
X129000000Y-57954819D01*
X129952381Y-57954819D02*
X130047619Y-57954819D01*
X130047619Y-57954819D02*
X130142857Y-58002438D01*
X130142857Y-58002438D02*
X130190476Y-58050057D01*
X130190476Y-58050057D02*
X130238095Y-58145295D01*
X130238095Y-58145295D02*
X130285714Y-58335771D01*
X130285714Y-58335771D02*
X130285714Y-58573866D01*
X130285714Y-58573866D02*
X130238095Y-58764342D01*
X130238095Y-58764342D02*
X130190476Y-58859580D01*
X130190476Y-58859580D02*
X130142857Y-58907200D01*
X130142857Y-58907200D02*
X130047619Y-58954819D01*
X130047619Y-58954819D02*
X129952381Y-58954819D01*
X129952381Y-58954819D02*
X129857143Y-58907200D01*
X129857143Y-58907200D02*
X129809524Y-58859580D01*
X129809524Y-58859580D02*
X129761905Y-58764342D01*
X129761905Y-58764342D02*
X129714286Y-58573866D01*
X129714286Y-58573866D02*
X129714286Y-58335771D01*
X129714286Y-58335771D02*
X129761905Y-58145295D01*
X129761905Y-58145295D02*
X129809524Y-58050057D01*
X129809524Y-58050057D02*
X129857143Y-58002438D01*
X129857143Y-58002438D02*
X129952381Y-57954819D01*
X130714286Y-58288152D02*
X130714286Y-59288152D01*
X131190476Y-58811961D02*
X131238095Y-58907200D01*
X131238095Y-58907200D02*
X131333333Y-58954819D01*
X130714286Y-58811961D02*
X130761905Y-58907200D01*
X130761905Y-58907200D02*
X130857143Y-58954819D01*
X130857143Y-58954819D02*
X131047619Y-58954819D01*
X131047619Y-58954819D02*
X131142857Y-58907200D01*
X131142857Y-58907200D02*
X131190476Y-58811961D01*
X131190476Y-58811961D02*
X131190476Y-58288152D01*
X132095238Y-58431009D02*
X131761905Y-58431009D01*
X131761905Y-58954819D02*
X131761905Y-57954819D01*
X131761905Y-57954819D02*
X132238095Y-57954819D01*
X148083333Y-117704819D02*
X147750000Y-117228628D01*
X147511905Y-117704819D02*
X147511905Y-116704819D01*
X147511905Y-116704819D02*
X147892857Y-116704819D01*
X147892857Y-116704819D02*
X147988095Y-116752438D01*
X147988095Y-116752438D02*
X148035714Y-116800057D01*
X148035714Y-116800057D02*
X148083333Y-116895295D01*
X148083333Y-116895295D02*
X148083333Y-117038152D01*
X148083333Y-117038152D02*
X148035714Y-117133390D01*
X148035714Y-117133390D02*
X147988095Y-117181009D01*
X147988095Y-117181009D02*
X147892857Y-117228628D01*
X147892857Y-117228628D02*
X147511905Y-117228628D01*
X148940476Y-117038152D02*
X148940476Y-117704819D01*
X148702381Y-116657200D02*
X148464286Y-117371485D01*
X148464286Y-117371485D02*
X149083333Y-117371485D01*
X150190476Y-121550057D02*
X150238095Y-121502438D01*
X150238095Y-121502438D02*
X150333333Y-121454819D01*
X150333333Y-121454819D02*
X150571428Y-121454819D01*
X150571428Y-121454819D02*
X150666666Y-121502438D01*
X150666666Y-121502438D02*
X150714285Y-121550057D01*
X150714285Y-121550057D02*
X150761904Y-121645295D01*
X150761904Y-121645295D02*
X150761904Y-121740533D01*
X150761904Y-121740533D02*
X150714285Y-121883390D01*
X150714285Y-121883390D02*
X150142857Y-122454819D01*
X150142857Y-122454819D02*
X150761904Y-122454819D01*
X151142857Y-121550057D02*
X151190476Y-121502438D01*
X151190476Y-121502438D02*
X151285714Y-121454819D01*
X151285714Y-121454819D02*
X151523809Y-121454819D01*
X151523809Y-121454819D02*
X151619047Y-121502438D01*
X151619047Y-121502438D02*
X151666666Y-121550057D01*
X151666666Y-121550057D02*
X151714285Y-121645295D01*
X151714285Y-121645295D02*
X151714285Y-121740533D01*
X151714285Y-121740533D02*
X151666666Y-121883390D01*
X151666666Y-121883390D02*
X151095238Y-122454819D01*
X151095238Y-122454819D02*
X151714285Y-122454819D01*
X152333333Y-121454819D02*
X152428571Y-121454819D01*
X152428571Y-121454819D02*
X152523809Y-121502438D01*
X152523809Y-121502438D02*
X152571428Y-121550057D01*
X152571428Y-121550057D02*
X152619047Y-121645295D01*
X152619047Y-121645295D02*
X152666666Y-121835771D01*
X152666666Y-121835771D02*
X152666666Y-122073866D01*
X152666666Y-122073866D02*
X152619047Y-122264342D01*
X152619047Y-122264342D02*
X152571428Y-122359580D01*
X152571428Y-122359580D02*
X152523809Y-122407200D01*
X152523809Y-122407200D02*
X152428571Y-122454819D01*
X152428571Y-122454819D02*
X152333333Y-122454819D01*
X152333333Y-122454819D02*
X152238095Y-122407200D01*
X152238095Y-122407200D02*
X152190476Y-122359580D01*
X152190476Y-122359580D02*
X152142857Y-122264342D01*
X152142857Y-122264342D02*
X152095238Y-122073866D01*
X152095238Y-122073866D02*
X152095238Y-121835771D01*
X152095238Y-121835771D02*
X152142857Y-121645295D01*
X152142857Y-121645295D02*
X152190476Y-121550057D01*
X152190476Y-121550057D02*
X152238095Y-121502438D01*
X152238095Y-121502438D02*
X152333333Y-121454819D01*
X153047619Y-122454819D02*
X153285714Y-122454819D01*
X153285714Y-122454819D02*
X153285714Y-122264342D01*
X153285714Y-122264342D02*
X153190476Y-122216723D01*
X153190476Y-122216723D02*
X153095238Y-122121485D01*
X153095238Y-122121485D02*
X153047619Y-121978628D01*
X153047619Y-121978628D02*
X153047619Y-121740533D01*
X153047619Y-121740533D02*
X153095238Y-121597676D01*
X153095238Y-121597676D02*
X153190476Y-121502438D01*
X153190476Y-121502438D02*
X153333333Y-121454819D01*
X153333333Y-121454819D02*
X153523809Y-121454819D01*
X153523809Y-121454819D02*
X153666666Y-121502438D01*
X153666666Y-121502438D02*
X153761904Y-121597676D01*
X153761904Y-121597676D02*
X153809523Y-121740533D01*
X153809523Y-121740533D02*
X153809523Y-121978628D01*
X153809523Y-121978628D02*
X153761904Y-122121485D01*
X153761904Y-122121485D02*
X153666666Y-122216723D01*
X153666666Y-122216723D02*
X153571428Y-122264342D01*
X153571428Y-122264342D02*
X153571428Y-122454819D01*
X153571428Y-122454819D02*
X153809523Y-122454819D01*
X154833333Y-108454819D02*
X154500000Y-107978628D01*
X154261905Y-108454819D02*
X154261905Y-107454819D01*
X154261905Y-107454819D02*
X154642857Y-107454819D01*
X154642857Y-107454819D02*
X154738095Y-107502438D01*
X154738095Y-107502438D02*
X154785714Y-107550057D01*
X154785714Y-107550057D02*
X154833333Y-107645295D01*
X154833333Y-107645295D02*
X154833333Y-107788152D01*
X154833333Y-107788152D02*
X154785714Y-107883390D01*
X154785714Y-107883390D02*
X154738095Y-107931009D01*
X154738095Y-107931009D02*
X154642857Y-107978628D01*
X154642857Y-107978628D02*
X154261905Y-107978628D01*
X155214286Y-107550057D02*
X155261905Y-107502438D01*
X155261905Y-107502438D02*
X155357143Y-107454819D01*
X155357143Y-107454819D02*
X155595238Y-107454819D01*
X155595238Y-107454819D02*
X155690476Y-107502438D01*
X155690476Y-107502438D02*
X155738095Y-107550057D01*
X155738095Y-107550057D02*
X155785714Y-107645295D01*
X155785714Y-107645295D02*
X155785714Y-107740533D01*
X155785714Y-107740533D02*
X155738095Y-107883390D01*
X155738095Y-107883390D02*
X155166667Y-108454819D01*
X155166667Y-108454819D02*
X155785714Y-108454819D01*
X156000000Y-116538152D02*
X156000000Y-117204819D01*
X155761905Y-116157200D02*
X155523810Y-116871485D01*
X155523810Y-116871485D02*
X156142857Y-116871485D01*
X156523810Y-117109580D02*
X156571429Y-117157200D01*
X156571429Y-117157200D02*
X156523810Y-117204819D01*
X156523810Y-117204819D02*
X156476191Y-117157200D01*
X156476191Y-117157200D02*
X156523810Y-117109580D01*
X156523810Y-117109580D02*
X156523810Y-117204819D01*
X156904762Y-116204819D02*
X157571428Y-116204819D01*
X157571428Y-116204819D02*
X157142857Y-117204819D01*
X157952381Y-117204819D02*
X157952381Y-116204819D01*
X158047619Y-116823866D02*
X158333333Y-117204819D01*
X158333333Y-116538152D02*
X157952381Y-116919104D01*
X158714286Y-117204819D02*
X158952381Y-117204819D01*
X158952381Y-117204819D02*
X158952381Y-117014342D01*
X158952381Y-117014342D02*
X158857143Y-116966723D01*
X158857143Y-116966723D02*
X158761905Y-116871485D01*
X158761905Y-116871485D02*
X158714286Y-116728628D01*
X158714286Y-116728628D02*
X158714286Y-116490533D01*
X158714286Y-116490533D02*
X158761905Y-116347676D01*
X158761905Y-116347676D02*
X158857143Y-116252438D01*
X158857143Y-116252438D02*
X159000000Y-116204819D01*
X159000000Y-116204819D02*
X159190476Y-116204819D01*
X159190476Y-116204819D02*
X159333333Y-116252438D01*
X159333333Y-116252438D02*
X159428571Y-116347676D01*
X159428571Y-116347676D02*
X159476190Y-116490533D01*
X159476190Y-116490533D02*
X159476190Y-116728628D01*
X159476190Y-116728628D02*
X159428571Y-116871485D01*
X159428571Y-116871485D02*
X159333333Y-116966723D01*
X159333333Y-116966723D02*
X159238095Y-117014342D01*
X159238095Y-117014342D02*
X159238095Y-117204819D01*
X159238095Y-117204819D02*
X159476190Y-117204819D01*
D16*
%TO.C,BT1*%
X120170000Y-134895000D02*
X121500000Y-134895000D01*
X120170000Y-136225000D02*
X120170000Y-134895000D01*
X120170000Y-137495000D02*
X120170000Y-140095000D01*
X120170000Y-137495000D02*
X122830000Y-137495000D01*
X120170000Y-140095000D02*
X122830000Y-140095000D01*
X122830000Y-137495000D02*
X122830000Y-140095000D01*
%TO.C,M1*%
X122170000Y-52630000D02*
X123500000Y-52630000D01*
X122170000Y-53960000D02*
X122170000Y-52630000D01*
X122170000Y-55230000D02*
X122170000Y-60370000D01*
X122170000Y-55230000D02*
X124830000Y-55230000D01*
X122170000Y-60370000D02*
X124830000Y-60370000D01*
X124830000Y-55230000D02*
X124830000Y-60370000D01*
%TO.C,J1*%
X139115000Y-53170000D02*
X139115000Y-55830000D01*
X144255000Y-53170000D02*
X139115000Y-53170000D01*
X144255000Y-53170000D02*
X144255000Y-55830000D01*
X144255000Y-55830000D02*
X139115000Y-55830000D01*
X145525000Y-53170000D02*
X146855000Y-53170000D01*
X146855000Y-53170000D02*
X146855000Y-54500000D01*
%TO.C,D1*%
X120920000Y-75705000D02*
X120920000Y-78795000D01*
X120920000Y-75705170D02*
G75*
G02*
X126470000Y-77250462I2560000J-1544830D01*
G01*
X126470000Y-77249538D02*
G75*
G02*
X120920000Y-78794830I-2990000J-462D01*
G01*
X125980000Y-77250000D02*
G75*
G02*
X120980000Y-77250000I-2500000J0D01*
G01*
X120980000Y-77250000D02*
G75*
G02*
X125980000Y-77250000I2500000J0D01*
G01*
%TO.C,R3*%
X161880000Y-104730000D02*
X162210000Y-104730000D01*
X161880000Y-111270000D02*
X161880000Y-104730000D01*
X162210000Y-111270000D02*
X161880000Y-111270000D01*
X164290000Y-111270000D02*
X164620000Y-111270000D01*
X164620000Y-104730000D02*
X164290000Y-104730000D01*
X164620000Y-111270000D02*
X164620000Y-104730000D01*
%TO.C,R1*%
X148980000Y-113130000D02*
X155520000Y-113130000D01*
X148980000Y-113460000D02*
X148980000Y-113130000D01*
X148980000Y-115540000D02*
X148980000Y-115870000D01*
X148980000Y-115870000D02*
X155520000Y-115870000D01*
X155520000Y-113130000D02*
X155520000Y-113460000D01*
X155520000Y-115870000D02*
X155520000Y-115540000D01*
%TO.C,D2*%
X160170000Y-77705000D02*
X160170000Y-80795000D01*
X160170000Y-77705170D02*
G75*
G02*
X165720000Y-79250462I2560000J-1544830D01*
G01*
X165720000Y-79249538D02*
G75*
G02*
X160170000Y-80794830I-2990000J-462D01*
G01*
X165230000Y-79250000D02*
G75*
G02*
X160230000Y-79250000I-2500000J0D01*
G01*
X160230000Y-79250000D02*
G75*
G02*
X165230000Y-79250000I2500000J0D01*
G01*
%TO.C,U2*%
X126670000Y-134870000D02*
X128000000Y-134870000D01*
X126670000Y-136200000D02*
X126670000Y-134870000D01*
X126670000Y-137470000D02*
X126670000Y-145150000D01*
X126670000Y-137470000D02*
X129330000Y-137470000D01*
X126670000Y-145150000D02*
X129330000Y-145150000D01*
X129330000Y-137470000D02*
X129330000Y-145150000D01*
%TO.C,C2*%
X154210000Y-54990000D02*
X152681000Y-54990000D01*
X154210000Y-55030000D02*
X152685000Y-55030000D01*
X154210000Y-55070000D02*
X152689000Y-55070000D01*
X154210000Y-55110000D02*
X152694000Y-55110000D01*
X154210000Y-55150000D02*
X152700000Y-55150000D01*
X154210000Y-55190000D02*
X152707000Y-55190000D01*
X154210000Y-55230000D02*
X152714000Y-55230000D01*
X154210000Y-55270000D02*
X152722000Y-55270000D01*
X154210000Y-55310000D02*
X152730000Y-55310000D01*
X154210000Y-55350000D02*
X152739000Y-55350000D01*
X154210000Y-55390000D02*
X152749000Y-55390000D01*
X154210000Y-55430000D02*
X152759000Y-55430000D01*
X154210000Y-55471000D02*
X152770000Y-55471000D01*
X154210000Y-55511000D02*
X152782000Y-55511000D01*
X154210000Y-55551000D02*
X152795000Y-55551000D01*
X154210000Y-55591000D02*
X152808000Y-55591000D01*
X154210000Y-55631000D02*
X152822000Y-55631000D01*
X154210000Y-55671000D02*
X152836000Y-55671000D01*
X154210000Y-55711000D02*
X152852000Y-55711000D01*
X154210000Y-55751000D02*
X152868000Y-55751000D01*
X154210000Y-55791000D02*
X152885000Y-55791000D01*
X154210000Y-55831000D02*
X152902000Y-55831000D01*
X154210000Y-55871000D02*
X152921000Y-55871000D01*
X154210000Y-55911000D02*
X152940000Y-55911000D01*
X154210000Y-55951000D02*
X152960000Y-55951000D01*
X154210000Y-55991000D02*
X152982000Y-55991000D01*
X154210000Y-56031000D02*
X153003000Y-56031000D01*
X154210000Y-56071000D02*
X153026000Y-56071000D01*
X154210000Y-56111000D02*
X153050000Y-56111000D01*
X154210000Y-56151000D02*
X153075000Y-56151000D01*
X154210000Y-56191000D02*
X153101000Y-56191000D01*
X154210000Y-56231000D02*
X153128000Y-56231000D01*
X154210000Y-56271000D02*
X153155000Y-56271000D01*
X154210000Y-56311000D02*
X153185000Y-56311000D01*
X154210000Y-56351000D02*
X153215000Y-56351000D01*
X154210000Y-56391000D02*
X153246000Y-56391000D01*
X154210000Y-56431000D02*
X153279000Y-56431000D01*
X154210000Y-56471000D02*
X153313000Y-56471000D01*
X154210000Y-56511000D02*
X153349000Y-56511000D01*
X154210000Y-56551000D02*
X153386000Y-56551000D01*
X154210000Y-56591000D02*
X153424000Y-56591000D01*
X154210000Y-56631000D02*
X153465000Y-56631000D01*
X154210000Y-56671000D02*
X153507000Y-56671000D01*
X154210000Y-56711000D02*
X153551000Y-56711000D01*
X154210000Y-56751000D02*
X153597000Y-56751000D01*
X154210000Y-56791000D02*
X153645000Y-56791000D01*
X154210000Y-56831000D02*
X153696000Y-56831000D01*
X154210000Y-56871000D02*
X153750000Y-56871000D01*
X154210000Y-56911000D02*
X153807000Y-56911000D01*
X154210000Y-56951000D02*
X153867000Y-56951000D01*
X154210000Y-56991000D02*
X153931000Y-56991000D01*
X154210000Y-57031000D02*
X153999000Y-57031000D01*
X155534000Y-57351000D02*
X154966000Y-57351000D01*
X155768000Y-57311000D02*
X154732000Y-57311000D01*
X155927000Y-57271000D02*
X154573000Y-57271000D01*
X156055000Y-57231000D02*
X154445000Y-57231000D01*
X156165000Y-57191000D02*
X154335000Y-57191000D01*
X156261000Y-57151000D02*
X154239000Y-57151000D01*
X156348000Y-57111000D02*
X154152000Y-57111000D01*
X156428000Y-57071000D02*
X154072000Y-57071000D01*
X156501000Y-57031000D02*
X156290000Y-57031000D01*
X156569000Y-56991000D02*
X156290000Y-56991000D01*
X156633000Y-56951000D02*
X156290000Y-56951000D01*
X156693000Y-56911000D02*
X156290000Y-56911000D01*
X156725000Y-51945225D02*
X156725000Y-52445225D01*
X156750000Y-56871000D02*
X156290000Y-56871000D01*
X156804000Y-56831000D02*
X156290000Y-56831000D01*
X156855000Y-56791000D02*
X156290000Y-56791000D01*
X156903000Y-56751000D02*
X156290000Y-56751000D01*
X156949000Y-56711000D02*
X156290000Y-56711000D01*
X156975000Y-52195225D02*
X156475000Y-52195225D01*
X156993000Y-56671000D02*
X156290000Y-56671000D01*
X157035000Y-56631000D02*
X156290000Y-56631000D01*
X157076000Y-56591000D02*
X156290000Y-56591000D01*
X157114000Y-56551000D02*
X156290000Y-56551000D01*
X157151000Y-56511000D02*
X156290000Y-56511000D01*
X157187000Y-56471000D02*
X156290000Y-56471000D01*
X157221000Y-56431000D02*
X156290000Y-56431000D01*
X157254000Y-56391000D02*
X156290000Y-56391000D01*
X157285000Y-56351000D02*
X156290000Y-56351000D01*
X157315000Y-56311000D02*
X156290000Y-56311000D01*
X157345000Y-56271000D02*
X156290000Y-56271000D01*
X157372000Y-56231000D02*
X156290000Y-56231000D01*
X157399000Y-56191000D02*
X156290000Y-56191000D01*
X157425000Y-56151000D02*
X156290000Y-56151000D01*
X157450000Y-56111000D02*
X156290000Y-56111000D01*
X157474000Y-56071000D02*
X156290000Y-56071000D01*
X157497000Y-56031000D02*
X156290000Y-56031000D01*
X157518000Y-55991000D02*
X156290000Y-55991000D01*
X157540000Y-55951000D02*
X156290000Y-55951000D01*
X157560000Y-55911000D02*
X156290000Y-55911000D01*
X157579000Y-55871000D02*
X156290000Y-55871000D01*
X157598000Y-55831000D02*
X156290000Y-55831000D01*
X157615000Y-55791000D02*
X156290000Y-55791000D01*
X157632000Y-55751000D02*
X156290000Y-55751000D01*
X157648000Y-55711000D02*
X156290000Y-55711000D01*
X157664000Y-55671000D02*
X156290000Y-55671000D01*
X157678000Y-55631000D02*
X156290000Y-55631000D01*
X157692000Y-55591000D02*
X156290000Y-55591000D01*
X157705000Y-55551000D02*
X156290000Y-55551000D01*
X157718000Y-55511000D02*
X156290000Y-55511000D01*
X157730000Y-55471000D02*
X156290000Y-55471000D01*
X157741000Y-55430000D02*
X156290000Y-55430000D01*
X157751000Y-55390000D02*
X156290000Y-55390000D01*
X157761000Y-55350000D02*
X156290000Y-55350000D01*
X157770000Y-55310000D02*
X156290000Y-55310000D01*
X157778000Y-55270000D02*
X156290000Y-55270000D01*
X157786000Y-55230000D02*
X156290000Y-55230000D01*
X157793000Y-55190000D02*
X156290000Y-55190000D01*
X157800000Y-55150000D02*
X156290000Y-55150000D01*
X157806000Y-55110000D02*
X156290000Y-55110000D01*
X157811000Y-55070000D02*
X156290000Y-55070000D01*
X157815000Y-55030000D02*
X156290000Y-55030000D01*
X157819000Y-54990000D02*
X156290000Y-54990000D01*
X157823000Y-54950000D02*
X152677000Y-54950000D01*
X157826000Y-54910000D02*
X152674000Y-54910000D01*
X157828000Y-54870000D02*
X152672000Y-54870000D01*
X157829000Y-54830000D02*
X152671000Y-54830000D01*
X157830000Y-54750000D02*
X152670000Y-54750000D01*
X157830000Y-54790000D02*
X152670000Y-54790000D01*
X157870000Y-54750000D02*
G75*
G02*
X152630000Y-54750000I-2620000J0D01*
G01*
X152630000Y-54750000D02*
G75*
G02*
X157870000Y-54750000I2620000J0D01*
G01*
%TO.C,M2*%
X161170000Y-52630000D02*
X162500000Y-52630000D01*
X161170000Y-53960000D02*
X161170000Y-52630000D01*
X161170000Y-55230000D02*
X161170000Y-60370000D01*
X161170000Y-55230000D02*
X163830000Y-55230000D01*
X161170000Y-60370000D02*
X163830000Y-60370000D01*
X163830000Y-55230000D02*
X163830000Y-60370000D01*
D17*
%TO.C,U1*%
X134975000Y-127380000D02*
X134975000Y-144380000D01*
X136975000Y-146379090D02*
X150775000Y-146379090D01*
X139375000Y-140450730D02*
X148375000Y-140450730D01*
X139375000Y-147804030D02*
X139375000Y-140450730D01*
X148375000Y-140450730D02*
X148375000Y-147804030D01*
X148375000Y-147804030D02*
X139375000Y-147804030D01*
X150775000Y-125380000D02*
X136975000Y-125380000D01*
X152775000Y-144380000D02*
X152775000Y-127380000D01*
D16*
X134975000Y-127380000D02*
G75*
G02*
X136975000Y-125380000I2000000J0D01*
G01*
X136975000Y-146380000D02*
G75*
G02*
X134975000Y-144380000I44600J2044600D01*
G01*
X150775000Y-125380000D02*
G75*
G02*
X152775000Y-127380000I-44857J-2044857D01*
G01*
X152775000Y-144380000D02*
G75*
G02*
X150775000Y-146380000I-2044612J44612D01*
G01*
D18*
X155002000Y-144680000D02*
G75*
G02*
X154748000Y-144680000I-127000J0D01*
G01*
X154748000Y-144680000D02*
G75*
G02*
X155002000Y-144680000I127000J0D01*
G01*
D19*
X152759667Y-144490473D02*
X152755604Y-144539494D01*
X152762715Y-144441705D01*
X152759667Y-144490473D01*
X134985508Y-127358426D02*
X134987287Y-127309150D01*
X134990335Y-127260382D01*
X134994399Y-127211361D01*
X134999732Y-127162593D01*
X135006336Y-127113825D01*
X135013956Y-127065310D01*
X135022848Y-127017050D01*
X135032752Y-126969045D01*
X134985508Y-127358426D01*
D16*
%TO.C,NFC Connecter*%
X137490000Y-99700000D02*
X137490000Y-102360000D01*
X145170000Y-99700000D02*
X137490000Y-99700000D01*
X145170000Y-99700000D02*
X145170000Y-102360000D01*
X145170000Y-102360000D02*
X137490000Y-102360000D01*
X146440000Y-99700000D02*
X147770000Y-99700000D01*
X147770000Y-99700000D02*
X147770000Y-101030000D01*
%TO.C,C1*%
X128960000Y-54990000D02*
X127431000Y-54990000D01*
X128960000Y-55030000D02*
X127435000Y-55030000D01*
X128960000Y-55070000D02*
X127439000Y-55070000D01*
X128960000Y-55110000D02*
X127444000Y-55110000D01*
X128960000Y-55150000D02*
X127450000Y-55150000D01*
X128960000Y-55190000D02*
X127457000Y-55190000D01*
X128960000Y-55230000D02*
X127464000Y-55230000D01*
X128960000Y-55270000D02*
X127472000Y-55270000D01*
X128960000Y-55310000D02*
X127480000Y-55310000D01*
X128960000Y-55350000D02*
X127489000Y-55350000D01*
X128960000Y-55390000D02*
X127499000Y-55390000D01*
X128960000Y-55430000D02*
X127509000Y-55430000D01*
X128960000Y-55471000D02*
X127520000Y-55471000D01*
X128960000Y-55511000D02*
X127532000Y-55511000D01*
X128960000Y-55551000D02*
X127545000Y-55551000D01*
X128960000Y-55591000D02*
X127558000Y-55591000D01*
X128960000Y-55631000D02*
X127572000Y-55631000D01*
X128960000Y-55671000D02*
X127586000Y-55671000D01*
X128960000Y-55711000D02*
X127602000Y-55711000D01*
X128960000Y-55751000D02*
X127618000Y-55751000D01*
X128960000Y-55791000D02*
X127635000Y-55791000D01*
X128960000Y-55831000D02*
X127652000Y-55831000D01*
X128960000Y-55871000D02*
X127671000Y-55871000D01*
X128960000Y-55911000D02*
X127690000Y-55911000D01*
X128960000Y-55951000D02*
X127710000Y-55951000D01*
X128960000Y-55991000D02*
X127732000Y-55991000D01*
X128960000Y-56031000D02*
X127753000Y-56031000D01*
X128960000Y-56071000D02*
X127776000Y-56071000D01*
X128960000Y-56111000D02*
X127800000Y-56111000D01*
X128960000Y-56151000D02*
X127825000Y-56151000D01*
X128960000Y-56191000D02*
X127851000Y-56191000D01*
X128960000Y-56231000D02*
X127878000Y-56231000D01*
X128960000Y-56271000D02*
X127905000Y-56271000D01*
X128960000Y-56311000D02*
X127935000Y-56311000D01*
X128960000Y-56351000D02*
X127965000Y-56351000D01*
X128960000Y-56391000D02*
X127996000Y-56391000D01*
X128960000Y-56431000D02*
X128029000Y-56431000D01*
X128960000Y-56471000D02*
X128063000Y-56471000D01*
X128960000Y-56511000D02*
X128099000Y-56511000D01*
X128960000Y-56551000D02*
X128136000Y-56551000D01*
X128960000Y-56591000D02*
X128174000Y-56591000D01*
X128960000Y-56631000D02*
X128215000Y-56631000D01*
X128960000Y-56671000D02*
X128257000Y-56671000D01*
X128960000Y-56711000D02*
X128301000Y-56711000D01*
X128960000Y-56751000D02*
X128347000Y-56751000D01*
X128960000Y-56791000D02*
X128395000Y-56791000D01*
X128960000Y-56831000D02*
X128446000Y-56831000D01*
X128960000Y-56871000D02*
X128500000Y-56871000D01*
X128960000Y-56911000D02*
X128557000Y-56911000D01*
X128960000Y-56951000D02*
X128617000Y-56951000D01*
X128960000Y-56991000D02*
X128681000Y-56991000D01*
X128960000Y-57031000D02*
X128749000Y-57031000D01*
X130284000Y-57351000D02*
X129716000Y-57351000D01*
X130518000Y-57311000D02*
X129482000Y-57311000D01*
X130677000Y-57271000D02*
X129323000Y-57271000D01*
X130805000Y-57231000D02*
X129195000Y-57231000D01*
X130915000Y-57191000D02*
X129085000Y-57191000D01*
X131011000Y-57151000D02*
X128989000Y-57151000D01*
X131098000Y-57111000D02*
X128902000Y-57111000D01*
X131178000Y-57071000D02*
X128822000Y-57071000D01*
X131251000Y-57031000D02*
X131040000Y-57031000D01*
X131319000Y-56991000D02*
X131040000Y-56991000D01*
X131383000Y-56951000D02*
X131040000Y-56951000D01*
X131443000Y-56911000D02*
X131040000Y-56911000D01*
X131475000Y-51945225D02*
X131475000Y-52445225D01*
X131500000Y-56871000D02*
X131040000Y-56871000D01*
X131554000Y-56831000D02*
X131040000Y-56831000D01*
X131605000Y-56791000D02*
X131040000Y-56791000D01*
X131653000Y-56751000D02*
X131040000Y-56751000D01*
X131699000Y-56711000D02*
X131040000Y-56711000D01*
X131725000Y-52195225D02*
X131225000Y-52195225D01*
X131743000Y-56671000D02*
X131040000Y-56671000D01*
X131785000Y-56631000D02*
X131040000Y-56631000D01*
X131826000Y-56591000D02*
X131040000Y-56591000D01*
X131864000Y-56551000D02*
X131040000Y-56551000D01*
X131901000Y-56511000D02*
X131040000Y-56511000D01*
X131937000Y-56471000D02*
X131040000Y-56471000D01*
X131971000Y-56431000D02*
X131040000Y-56431000D01*
X132004000Y-56391000D02*
X131040000Y-56391000D01*
X132035000Y-56351000D02*
X131040000Y-56351000D01*
X132065000Y-56311000D02*
X131040000Y-56311000D01*
X132095000Y-56271000D02*
X131040000Y-56271000D01*
X132122000Y-56231000D02*
X131040000Y-56231000D01*
X132149000Y-56191000D02*
X131040000Y-56191000D01*
X132175000Y-56151000D02*
X131040000Y-56151000D01*
X132200000Y-56111000D02*
X131040000Y-56111000D01*
X132224000Y-56071000D02*
X131040000Y-56071000D01*
X132247000Y-56031000D02*
X131040000Y-56031000D01*
X132268000Y-55991000D02*
X131040000Y-55991000D01*
X132290000Y-55951000D02*
X131040000Y-55951000D01*
X132310000Y-55911000D02*
X131040000Y-55911000D01*
X132329000Y-55871000D02*
X131040000Y-55871000D01*
X132348000Y-55831000D02*
X131040000Y-55831000D01*
X132365000Y-55791000D02*
X131040000Y-55791000D01*
X132382000Y-55751000D02*
X131040000Y-55751000D01*
X132398000Y-55711000D02*
X131040000Y-55711000D01*
X132414000Y-55671000D02*
X131040000Y-55671000D01*
X132428000Y-55631000D02*
X131040000Y-55631000D01*
X132442000Y-55591000D02*
X131040000Y-55591000D01*
X132455000Y-55551000D02*
X131040000Y-55551000D01*
X132468000Y-55511000D02*
X131040000Y-55511000D01*
X132480000Y-55471000D02*
X131040000Y-55471000D01*
X132491000Y-55430000D02*
X131040000Y-55430000D01*
X132501000Y-55390000D02*
X131040000Y-55390000D01*
X132511000Y-55350000D02*
X131040000Y-55350000D01*
X132520000Y-55310000D02*
X131040000Y-55310000D01*
X132528000Y-55270000D02*
X131040000Y-55270000D01*
X132536000Y-55230000D02*
X131040000Y-55230000D01*
X132543000Y-55190000D02*
X131040000Y-55190000D01*
X132550000Y-55150000D02*
X131040000Y-55150000D01*
X132556000Y-55110000D02*
X131040000Y-55110000D01*
X132561000Y-55070000D02*
X131040000Y-55070000D01*
X132565000Y-55030000D02*
X131040000Y-55030000D01*
X132569000Y-54990000D02*
X131040000Y-54990000D01*
X132573000Y-54950000D02*
X127427000Y-54950000D01*
X132576000Y-54910000D02*
X127424000Y-54910000D01*
X132578000Y-54870000D02*
X127422000Y-54870000D01*
X132579000Y-54830000D02*
X127421000Y-54830000D01*
X132580000Y-54750000D02*
X127420000Y-54750000D01*
X132580000Y-54790000D02*
X127420000Y-54790000D01*
X132620000Y-54750000D02*
G75*
G02*
X127380000Y-54750000I-2620000J0D01*
G01*
X127380000Y-54750000D02*
G75*
G02*
X132620000Y-54750000I2620000J0D01*
G01*
%TO.C,R4*%
X148980000Y-118130000D02*
X155520000Y-118130000D01*
X148980000Y-118460000D02*
X148980000Y-118130000D01*
X148980000Y-120540000D02*
X148980000Y-120870000D01*
X148980000Y-120870000D02*
X155520000Y-120870000D01*
X155520000Y-118130000D02*
X155520000Y-118460000D01*
X155520000Y-120870000D02*
X155520000Y-120540000D01*
%TO.C,R2*%
X156130000Y-104730000D02*
X156460000Y-104730000D01*
X156130000Y-111270000D02*
X156130000Y-104730000D01*
X156460000Y-111270000D02*
X156130000Y-111270000D01*
X158540000Y-111270000D02*
X158870000Y-111270000D01*
X158870000Y-104730000D02*
X158540000Y-104730000D01*
X158870000Y-111270000D02*
X158870000Y-104730000D01*
%TD*%
M02*
