%TF.GenerationSoftware,KiCad,Pcbnew,8.0.5*%
%TF.CreationDate,2025-07-27T14:10:40-07:00*%
%TF.ProjectId,Cashout Station,43617368-6f75-4742-9053-746174696f6e,rev?*%
%TF.SameCoordinates,Original*%
%TF.FileFunction,Legend,Bot*%
%TF.FilePolarity,Positive*%
%FSLAX46Y46*%
G04 Gerber Fmt 4.6, Leading zero omitted, Abs format (unit mm)*
G04 Created by KiCad (PCBNEW 8.0.5) date 2025-07-27 14:10:40*
%MOMM*%
%LPD*%
G01*
G04 APERTURE LIST*
%ADD10C,0.100000*%
%ADD11C,0.200000*%
%ADD12C,0.150000*%
%ADD13C,0.120000*%
G04 APERTURE END LIST*
D10*
X131000000Y-122000000D02*
X130000000Y-122000000D01*
X154750000Y-122500000D02*
X155500000Y-122500000D01*
X131000000Y-126500000D02*
X130000000Y-126500000D01*
X154250000Y-126750000D02*
X155500000Y-126750000D01*
D11*
X133910440Y-125857508D02*
X134029487Y-125797984D01*
X134029487Y-125797984D02*
X134208059Y-125797984D01*
X134208059Y-125797984D02*
X134386630Y-125857508D01*
X134386630Y-125857508D02*
X134505678Y-125976556D01*
X134505678Y-125976556D02*
X134565201Y-126095603D01*
X134565201Y-126095603D02*
X134624725Y-126333699D01*
X134624725Y-126333699D02*
X134624725Y-126512270D01*
X134624725Y-126512270D02*
X134565201Y-126750365D01*
X134565201Y-126750365D02*
X134505678Y-126869413D01*
X134505678Y-126869413D02*
X134386630Y-126988461D01*
X134386630Y-126988461D02*
X134208059Y-127047984D01*
X134208059Y-127047984D02*
X134089011Y-127047984D01*
X134089011Y-127047984D02*
X133910440Y-126988461D01*
X133910440Y-126988461D02*
X133850916Y-126928937D01*
X133850916Y-126928937D02*
X133850916Y-126512270D01*
X133850916Y-126512270D02*
X134089011Y-126512270D01*
X133315201Y-127047984D02*
X133315201Y-125797984D01*
X133315201Y-125797984D02*
X132600916Y-127047984D01*
X132600916Y-127047984D02*
X132600916Y-125797984D01*
X132005677Y-127047984D02*
X132005677Y-125797984D01*
X132005677Y-125797984D02*
X131708058Y-125797984D01*
X131708058Y-125797984D02*
X131529487Y-125857508D01*
X131529487Y-125857508D02*
X131410439Y-125976556D01*
X131410439Y-125976556D02*
X131350916Y-126095603D01*
X131350916Y-126095603D02*
X131291392Y-126333699D01*
X131291392Y-126333699D02*
X131291392Y-126512270D01*
X131291392Y-126512270D02*
X131350916Y-126750365D01*
X131350916Y-126750365D02*
X131410439Y-126869413D01*
X131410439Y-126869413D02*
X131529487Y-126988461D01*
X131529487Y-126988461D02*
X131708058Y-127047984D01*
X131708058Y-127047984D02*
X132005677Y-127047984D01*
X152916041Y-125896147D02*
X153035088Y-125836623D01*
X153035088Y-125836623D02*
X153213660Y-125836623D01*
X153213660Y-125836623D02*
X153392231Y-125896147D01*
X153392231Y-125896147D02*
X153511279Y-126015195D01*
X153511279Y-126015195D02*
X153570802Y-126134242D01*
X153570802Y-126134242D02*
X153630326Y-126372338D01*
X153630326Y-126372338D02*
X153630326Y-126550909D01*
X153630326Y-126550909D02*
X153570802Y-126789004D01*
X153570802Y-126789004D02*
X153511279Y-126908052D01*
X153511279Y-126908052D02*
X153392231Y-127027100D01*
X153392231Y-127027100D02*
X153213660Y-127086623D01*
X153213660Y-127086623D02*
X153094612Y-127086623D01*
X153094612Y-127086623D02*
X152916041Y-127027100D01*
X152916041Y-127027100D02*
X152856517Y-126967576D01*
X152856517Y-126967576D02*
X152856517Y-126550909D01*
X152856517Y-126550909D02*
X153094612Y-126550909D01*
X152320802Y-127086623D02*
X152320802Y-125836623D01*
X152320802Y-125836623D02*
X151606517Y-127086623D01*
X151606517Y-127086623D02*
X151606517Y-125836623D01*
X151011278Y-127086623D02*
X151011278Y-125836623D01*
X151011278Y-125836623D02*
X150713659Y-125836623D01*
X150713659Y-125836623D02*
X150535088Y-125896147D01*
X150535088Y-125896147D02*
X150416040Y-126015195D01*
X150416040Y-126015195D02*
X150356517Y-126134242D01*
X150356517Y-126134242D02*
X150296993Y-126372338D01*
X150296993Y-126372338D02*
X150296993Y-126550909D01*
X150296993Y-126550909D02*
X150356517Y-126789004D01*
X150356517Y-126789004D02*
X150416040Y-126908052D01*
X150416040Y-126908052D02*
X150535088Y-127027100D01*
X150535088Y-127027100D02*
X150713659Y-127086623D01*
X150713659Y-127086623D02*
X151011278Y-127086623D01*
X134666041Y-121396147D02*
X134785088Y-121336623D01*
X134785088Y-121336623D02*
X134963660Y-121336623D01*
X134963660Y-121336623D02*
X135142231Y-121396147D01*
X135142231Y-121396147D02*
X135261279Y-121515195D01*
X135261279Y-121515195D02*
X135320802Y-121634242D01*
X135320802Y-121634242D02*
X135380326Y-121872338D01*
X135380326Y-121872338D02*
X135380326Y-122050909D01*
X135380326Y-122050909D02*
X135320802Y-122289004D01*
X135320802Y-122289004D02*
X135261279Y-122408052D01*
X135261279Y-122408052D02*
X135142231Y-122527100D01*
X135142231Y-122527100D02*
X134963660Y-122586623D01*
X134963660Y-122586623D02*
X134844612Y-122586623D01*
X134844612Y-122586623D02*
X134666041Y-122527100D01*
X134666041Y-122527100D02*
X134606517Y-122467576D01*
X134606517Y-122467576D02*
X134606517Y-122050909D01*
X134606517Y-122050909D02*
X134844612Y-122050909D01*
X134070802Y-122586623D02*
X134070802Y-121336623D01*
X134070802Y-121336623D02*
X133594612Y-121336623D01*
X133594612Y-121336623D02*
X133475564Y-121396147D01*
X133475564Y-121396147D02*
X133416041Y-121455671D01*
X133416041Y-121455671D02*
X133356517Y-121574719D01*
X133356517Y-121574719D02*
X133356517Y-121753290D01*
X133356517Y-121753290D02*
X133416041Y-121872338D01*
X133416041Y-121872338D02*
X133475564Y-121931861D01*
X133475564Y-121931861D02*
X133594612Y-121991385D01*
X133594612Y-121991385D02*
X134070802Y-121991385D01*
X132820802Y-122586623D02*
X132820802Y-121336623D01*
X131987469Y-121336623D02*
X131749374Y-121336623D01*
X131749374Y-121336623D02*
X131630326Y-121396147D01*
X131630326Y-121396147D02*
X131511279Y-121515195D01*
X131511279Y-121515195D02*
X131451755Y-121753290D01*
X131451755Y-121753290D02*
X131451755Y-122169957D01*
X131451755Y-122169957D02*
X131511279Y-122408052D01*
X131511279Y-122408052D02*
X131630326Y-122527100D01*
X131630326Y-122527100D02*
X131749374Y-122586623D01*
X131749374Y-122586623D02*
X131987469Y-122586623D01*
X131987469Y-122586623D02*
X132106517Y-122527100D01*
X132106517Y-122527100D02*
X132225564Y-122408052D01*
X132225564Y-122408052D02*
X132285088Y-122169957D01*
X132285088Y-122169957D02*
X132285088Y-121753290D01*
X132285088Y-121753290D02*
X132225564Y-121515195D01*
X132225564Y-121515195D02*
X132106517Y-121396147D01*
X132106517Y-121396147D02*
X131987469Y-121336623D01*
X153666041Y-121896147D02*
X153785088Y-121836623D01*
X153785088Y-121836623D02*
X153963660Y-121836623D01*
X153963660Y-121836623D02*
X154142231Y-121896147D01*
X154142231Y-121896147D02*
X154261279Y-122015195D01*
X154261279Y-122015195D02*
X154320802Y-122134242D01*
X154320802Y-122134242D02*
X154380326Y-122372338D01*
X154380326Y-122372338D02*
X154380326Y-122550909D01*
X154380326Y-122550909D02*
X154320802Y-122789004D01*
X154320802Y-122789004D02*
X154261279Y-122908052D01*
X154261279Y-122908052D02*
X154142231Y-123027100D01*
X154142231Y-123027100D02*
X153963660Y-123086623D01*
X153963660Y-123086623D02*
X153844612Y-123086623D01*
X153844612Y-123086623D02*
X153666041Y-123027100D01*
X153666041Y-123027100D02*
X153606517Y-122967576D01*
X153606517Y-122967576D02*
X153606517Y-122550909D01*
X153606517Y-122550909D02*
X153844612Y-122550909D01*
X153070802Y-123086623D02*
X153070802Y-121836623D01*
X153070802Y-121836623D02*
X152594612Y-121836623D01*
X152594612Y-121836623D02*
X152475564Y-121896147D01*
X152475564Y-121896147D02*
X152416041Y-121955671D01*
X152416041Y-121955671D02*
X152356517Y-122074719D01*
X152356517Y-122074719D02*
X152356517Y-122253290D01*
X152356517Y-122253290D02*
X152416041Y-122372338D01*
X152416041Y-122372338D02*
X152475564Y-122431861D01*
X152475564Y-122431861D02*
X152594612Y-122491385D01*
X152594612Y-122491385D02*
X153070802Y-122491385D01*
X151820802Y-123086623D02*
X151820802Y-121836623D01*
X150987469Y-121836623D02*
X150749374Y-121836623D01*
X150749374Y-121836623D02*
X150630326Y-121896147D01*
X150630326Y-121896147D02*
X150511279Y-122015195D01*
X150511279Y-122015195D02*
X150451755Y-122253290D01*
X150451755Y-122253290D02*
X150451755Y-122669957D01*
X150451755Y-122669957D02*
X150511279Y-122908052D01*
X150511279Y-122908052D02*
X150630326Y-123027100D01*
X150630326Y-123027100D02*
X150749374Y-123086623D01*
X150749374Y-123086623D02*
X150987469Y-123086623D01*
X150987469Y-123086623D02*
X151106517Y-123027100D01*
X151106517Y-123027100D02*
X151225564Y-122908052D01*
X151225564Y-122908052D02*
X151285088Y-122669957D01*
X151285088Y-122669957D02*
X151285088Y-122253290D01*
X151285088Y-122253290D02*
X151225564Y-122015195D01*
X151225564Y-122015195D02*
X151106517Y-121896147D01*
X151106517Y-121896147D02*
X150987469Y-121836623D01*
D12*
X130083332Y-120157200D02*
X129940475Y-120204819D01*
X129940475Y-120204819D02*
X129702380Y-120204819D01*
X129702380Y-120204819D02*
X129607142Y-120157200D01*
X129607142Y-120157200D02*
X129559523Y-120109580D01*
X129559523Y-120109580D02*
X129511904Y-120014342D01*
X129511904Y-120014342D02*
X129511904Y-119919104D01*
X129511904Y-119919104D02*
X129559523Y-119823866D01*
X129559523Y-119823866D02*
X129607142Y-119776247D01*
X129607142Y-119776247D02*
X129702380Y-119728628D01*
X129702380Y-119728628D02*
X129892856Y-119681009D01*
X129892856Y-119681009D02*
X129988094Y-119633390D01*
X129988094Y-119633390D02*
X130035713Y-119585771D01*
X130035713Y-119585771D02*
X130083332Y-119490533D01*
X130083332Y-119490533D02*
X130083332Y-119395295D01*
X130083332Y-119395295D02*
X130035713Y-119300057D01*
X130035713Y-119300057D02*
X129988094Y-119252438D01*
X129988094Y-119252438D02*
X129892856Y-119204819D01*
X129892856Y-119204819D02*
X129654761Y-119204819D01*
X129654761Y-119204819D02*
X129511904Y-119252438D01*
X129178570Y-119204819D02*
X128940475Y-120204819D01*
X128940475Y-120204819D02*
X128749999Y-119490533D01*
X128749999Y-119490533D02*
X128559523Y-120204819D01*
X128559523Y-120204819D02*
X128321428Y-119204819D01*
X127988094Y-119300057D02*
X127940475Y-119252438D01*
X127940475Y-119252438D02*
X127845237Y-119204819D01*
X127845237Y-119204819D02*
X127607142Y-119204819D01*
X127607142Y-119204819D02*
X127511904Y-119252438D01*
X127511904Y-119252438D02*
X127464285Y-119300057D01*
X127464285Y-119300057D02*
X127416666Y-119395295D01*
X127416666Y-119395295D02*
X127416666Y-119490533D01*
X127416666Y-119490533D02*
X127464285Y-119633390D01*
X127464285Y-119633390D02*
X128035713Y-120204819D01*
X128035713Y-120204819D02*
X127416666Y-120204819D01*
X162648572Y-129964819D02*
X163124762Y-129964819D01*
X163124762Y-129964819D02*
X163124762Y-128964819D01*
X161934286Y-129917200D02*
X162029524Y-129964819D01*
X162029524Y-129964819D02*
X162220000Y-129964819D01*
X162220000Y-129964819D02*
X162315238Y-129917200D01*
X162315238Y-129917200D02*
X162362857Y-129821961D01*
X162362857Y-129821961D02*
X162362857Y-129441009D01*
X162362857Y-129441009D02*
X162315238Y-129345771D01*
X162315238Y-129345771D02*
X162220000Y-129298152D01*
X162220000Y-129298152D02*
X162029524Y-129298152D01*
X162029524Y-129298152D02*
X161934286Y-129345771D01*
X161934286Y-129345771D02*
X161886667Y-129441009D01*
X161886667Y-129441009D02*
X161886667Y-129536247D01*
X161886667Y-129536247D02*
X162362857Y-129631485D01*
X160362857Y-129441009D02*
X160220000Y-129488628D01*
X160220000Y-129488628D02*
X160172381Y-129536247D01*
X160172381Y-129536247D02*
X160124762Y-129631485D01*
X160124762Y-129631485D02*
X160124762Y-129774342D01*
X160124762Y-129774342D02*
X160172381Y-129869580D01*
X160172381Y-129869580D02*
X160220000Y-129917200D01*
X160220000Y-129917200D02*
X160315238Y-129964819D01*
X160315238Y-129964819D02*
X160696190Y-129964819D01*
X160696190Y-129964819D02*
X160696190Y-128964819D01*
X160696190Y-128964819D02*
X160362857Y-128964819D01*
X160362857Y-128964819D02*
X160267619Y-129012438D01*
X160267619Y-129012438D02*
X160220000Y-129060057D01*
X160220000Y-129060057D02*
X160172381Y-129155295D01*
X160172381Y-129155295D02*
X160172381Y-129250533D01*
X160172381Y-129250533D02*
X160220000Y-129345771D01*
X160220000Y-129345771D02*
X160267619Y-129393390D01*
X160267619Y-129393390D02*
X160362857Y-129441009D01*
X160362857Y-129441009D02*
X160696190Y-129441009D01*
X159267619Y-129298152D02*
X159267619Y-129964819D01*
X159696190Y-129298152D02*
X159696190Y-129821961D01*
X159696190Y-129821961D02*
X159648571Y-129917200D01*
X159648571Y-129917200D02*
X159553333Y-129964819D01*
X159553333Y-129964819D02*
X159410476Y-129964819D01*
X159410476Y-129964819D02*
X159315238Y-129917200D01*
X159315238Y-129917200D02*
X159267619Y-129869580D01*
X158934285Y-129298152D02*
X158553333Y-129298152D01*
X158791428Y-128964819D02*
X158791428Y-129821961D01*
X158791428Y-129821961D02*
X158743809Y-129917200D01*
X158743809Y-129917200D02*
X158648571Y-129964819D01*
X158648571Y-129964819D02*
X158553333Y-129964819D01*
X158362856Y-129298152D02*
X157981904Y-129298152D01*
X158219999Y-128964819D02*
X158219999Y-129821961D01*
X158219999Y-129821961D02*
X158172380Y-129917200D01*
X158172380Y-129917200D02*
X158077142Y-129964819D01*
X158077142Y-129964819D02*
X157981904Y-129964819D01*
X157505713Y-129964819D02*
X157600951Y-129917200D01*
X157600951Y-129917200D02*
X157648570Y-129869580D01*
X157648570Y-129869580D02*
X157696189Y-129774342D01*
X157696189Y-129774342D02*
X157696189Y-129488628D01*
X157696189Y-129488628D02*
X157648570Y-129393390D01*
X157648570Y-129393390D02*
X157600951Y-129345771D01*
X157600951Y-129345771D02*
X157505713Y-129298152D01*
X157505713Y-129298152D02*
X157362856Y-129298152D01*
X157362856Y-129298152D02*
X157267618Y-129345771D01*
X157267618Y-129345771D02*
X157219999Y-129393390D01*
X157219999Y-129393390D02*
X157172380Y-129488628D01*
X157172380Y-129488628D02*
X157172380Y-129774342D01*
X157172380Y-129774342D02*
X157219999Y-129869580D01*
X157219999Y-129869580D02*
X157267618Y-129917200D01*
X157267618Y-129917200D02*
X157362856Y-129964819D01*
X157362856Y-129964819D02*
X157505713Y-129964819D01*
X156743808Y-129298152D02*
X156743808Y-129964819D01*
X156743808Y-129393390D02*
X156696189Y-129345771D01*
X156696189Y-129345771D02*
X156600951Y-129298152D01*
X156600951Y-129298152D02*
X156458094Y-129298152D01*
X156458094Y-129298152D02*
X156362856Y-129345771D01*
X156362856Y-129345771D02*
X156315237Y-129441009D01*
X156315237Y-129441009D02*
X156315237Y-129964819D01*
X165333332Y-120657200D02*
X165190475Y-120704819D01*
X165190475Y-120704819D02*
X164952380Y-120704819D01*
X164952380Y-120704819D02*
X164857142Y-120657200D01*
X164857142Y-120657200D02*
X164809523Y-120609580D01*
X164809523Y-120609580D02*
X164761904Y-120514342D01*
X164761904Y-120514342D02*
X164761904Y-120419104D01*
X164761904Y-120419104D02*
X164809523Y-120323866D01*
X164809523Y-120323866D02*
X164857142Y-120276247D01*
X164857142Y-120276247D02*
X164952380Y-120228628D01*
X164952380Y-120228628D02*
X165142856Y-120181009D01*
X165142856Y-120181009D02*
X165238094Y-120133390D01*
X165238094Y-120133390D02*
X165285713Y-120085771D01*
X165285713Y-120085771D02*
X165333332Y-119990533D01*
X165333332Y-119990533D02*
X165333332Y-119895295D01*
X165333332Y-119895295D02*
X165285713Y-119800057D01*
X165285713Y-119800057D02*
X165238094Y-119752438D01*
X165238094Y-119752438D02*
X165142856Y-119704819D01*
X165142856Y-119704819D02*
X164904761Y-119704819D01*
X164904761Y-119704819D02*
X164761904Y-119752438D01*
X164428570Y-119704819D02*
X164190475Y-120704819D01*
X164190475Y-120704819D02*
X163999999Y-119990533D01*
X163999999Y-119990533D02*
X163809523Y-120704819D01*
X163809523Y-120704819D02*
X163571428Y-119704819D01*
X162666666Y-120704819D02*
X163238094Y-120704819D01*
X162952380Y-120704819D02*
X162952380Y-119704819D01*
X162952380Y-119704819D02*
X163047618Y-119847676D01*
X163047618Y-119847676D02*
X163142856Y-119942914D01*
X163142856Y-119942914D02*
X163238094Y-119990533D01*
X132902382Y-129112295D02*
X133283334Y-129112295D01*
X133283334Y-129112295D02*
X133283334Y-128312295D01*
X132330953Y-129074200D02*
X132407144Y-129112295D01*
X132407144Y-129112295D02*
X132559525Y-129112295D01*
X132559525Y-129112295D02*
X132635715Y-129074200D01*
X132635715Y-129074200D02*
X132673811Y-128998009D01*
X132673811Y-128998009D02*
X132673811Y-128693247D01*
X132673811Y-128693247D02*
X132635715Y-128617057D01*
X132635715Y-128617057D02*
X132559525Y-128578961D01*
X132559525Y-128578961D02*
X132407144Y-128578961D01*
X132407144Y-128578961D02*
X132330953Y-128617057D01*
X132330953Y-128617057D02*
X132292858Y-128693247D01*
X132292858Y-128693247D02*
X132292858Y-128769438D01*
X132292858Y-128769438D02*
X132673811Y-128845628D01*
X131073811Y-128693247D02*
X130959525Y-128731342D01*
X130959525Y-128731342D02*
X130921430Y-128769438D01*
X130921430Y-128769438D02*
X130883334Y-128845628D01*
X130883334Y-128845628D02*
X130883334Y-128959914D01*
X130883334Y-128959914D02*
X130921430Y-129036104D01*
X130921430Y-129036104D02*
X130959525Y-129074200D01*
X130959525Y-129074200D02*
X131035715Y-129112295D01*
X131035715Y-129112295D02*
X131340477Y-129112295D01*
X131340477Y-129112295D02*
X131340477Y-128312295D01*
X131340477Y-128312295D02*
X131073811Y-128312295D01*
X131073811Y-128312295D02*
X130997620Y-128350390D01*
X130997620Y-128350390D02*
X130959525Y-128388485D01*
X130959525Y-128388485D02*
X130921430Y-128464676D01*
X130921430Y-128464676D02*
X130921430Y-128540866D01*
X130921430Y-128540866D02*
X130959525Y-128617057D01*
X130959525Y-128617057D02*
X130997620Y-128655152D01*
X130997620Y-128655152D02*
X131073811Y-128693247D01*
X131073811Y-128693247D02*
X131340477Y-128693247D01*
X130197620Y-128578961D02*
X130197620Y-129112295D01*
X130540477Y-128578961D02*
X130540477Y-128998009D01*
X130540477Y-128998009D02*
X130502382Y-129074200D01*
X130502382Y-129074200D02*
X130426192Y-129112295D01*
X130426192Y-129112295D02*
X130311906Y-129112295D01*
X130311906Y-129112295D02*
X130235715Y-129074200D01*
X130235715Y-129074200D02*
X130197620Y-129036104D01*
X129930953Y-128578961D02*
X129626191Y-128578961D01*
X129816667Y-128312295D02*
X129816667Y-128998009D01*
X129816667Y-128998009D02*
X129778572Y-129074200D01*
X129778572Y-129074200D02*
X129702382Y-129112295D01*
X129702382Y-129112295D02*
X129626191Y-129112295D01*
X129473810Y-128578961D02*
X129169048Y-128578961D01*
X129359524Y-128312295D02*
X129359524Y-128998009D01*
X129359524Y-128998009D02*
X129321429Y-129074200D01*
X129321429Y-129074200D02*
X129245239Y-129112295D01*
X129245239Y-129112295D02*
X129169048Y-129112295D01*
X128788096Y-129112295D02*
X128864286Y-129074200D01*
X128864286Y-129074200D02*
X128902381Y-129036104D01*
X128902381Y-129036104D02*
X128940477Y-128959914D01*
X128940477Y-128959914D02*
X128940477Y-128731342D01*
X128940477Y-128731342D02*
X128902381Y-128655152D01*
X128902381Y-128655152D02*
X128864286Y-128617057D01*
X128864286Y-128617057D02*
X128788096Y-128578961D01*
X128788096Y-128578961D02*
X128673810Y-128578961D01*
X128673810Y-128578961D02*
X128597619Y-128617057D01*
X128597619Y-128617057D02*
X128559524Y-128655152D01*
X128559524Y-128655152D02*
X128521429Y-128731342D01*
X128521429Y-128731342D02*
X128521429Y-128959914D01*
X128521429Y-128959914D02*
X128559524Y-129036104D01*
X128559524Y-129036104D02*
X128597619Y-129074200D01*
X128597619Y-129074200D02*
X128673810Y-129112295D01*
X128673810Y-129112295D02*
X128788096Y-129112295D01*
X128178571Y-128578961D02*
X128178571Y-129112295D01*
X128178571Y-128655152D02*
X128140476Y-128617057D01*
X128140476Y-128617057D02*
X128064286Y-128578961D01*
X128064286Y-128578961D02*
X127950000Y-128578961D01*
X127950000Y-128578961D02*
X127873809Y-128617057D01*
X127873809Y-128617057D02*
X127835714Y-128693247D01*
X127835714Y-128693247D02*
X127835714Y-129112295D01*
X127454761Y-129036104D02*
X127416666Y-129074200D01*
X127416666Y-129074200D02*
X127454761Y-129112295D01*
X127454761Y-129112295D02*
X127492857Y-129074200D01*
X127492857Y-129074200D02*
X127454761Y-129036104D01*
X127454761Y-129036104D02*
X127454761Y-129112295D01*
X127454761Y-128617057D02*
X127416666Y-128655152D01*
X127416666Y-128655152D02*
X127454761Y-128693247D01*
X127454761Y-128693247D02*
X127492857Y-128655152D01*
X127492857Y-128655152D02*
X127454761Y-128617057D01*
X127454761Y-128617057D02*
X127454761Y-128693247D01*
X126578571Y-128312295D02*
X126121428Y-128312295D01*
X126350000Y-129112295D02*
X126350000Y-128312295D01*
X125854761Y-129112295D02*
X125854761Y-128312295D01*
X125511904Y-129112295D02*
X125511904Y-128693247D01*
X125511904Y-128693247D02*
X125549999Y-128617057D01*
X125549999Y-128617057D02*
X125626190Y-128578961D01*
X125626190Y-128578961D02*
X125740476Y-128578961D01*
X125740476Y-128578961D02*
X125816666Y-128617057D01*
X125816666Y-128617057D02*
X125854761Y-128655152D01*
X124826189Y-129074200D02*
X124902380Y-129112295D01*
X124902380Y-129112295D02*
X125054761Y-129112295D01*
X125054761Y-129112295D02*
X125130951Y-129074200D01*
X125130951Y-129074200D02*
X125169047Y-128998009D01*
X125169047Y-128998009D02*
X125169047Y-128693247D01*
X125169047Y-128693247D02*
X125130951Y-128617057D01*
X125130951Y-128617057D02*
X125054761Y-128578961D01*
X125054761Y-128578961D02*
X124902380Y-128578961D01*
X124902380Y-128578961D02*
X124826189Y-128617057D01*
X124826189Y-128617057D02*
X124788094Y-128693247D01*
X124788094Y-128693247D02*
X124788094Y-128769438D01*
X124788094Y-128769438D02*
X125169047Y-128845628D01*
X123873809Y-129074200D02*
X123759523Y-129112295D01*
X123759523Y-129112295D02*
X123569047Y-129112295D01*
X123569047Y-129112295D02*
X123492856Y-129074200D01*
X123492856Y-129074200D02*
X123454761Y-129036104D01*
X123454761Y-129036104D02*
X123416666Y-128959914D01*
X123416666Y-128959914D02*
X123416666Y-128883723D01*
X123416666Y-128883723D02*
X123454761Y-128807533D01*
X123454761Y-128807533D02*
X123492856Y-128769438D01*
X123492856Y-128769438D02*
X123569047Y-128731342D01*
X123569047Y-128731342D02*
X123721428Y-128693247D01*
X123721428Y-128693247D02*
X123797618Y-128655152D01*
X123797618Y-128655152D02*
X123835713Y-128617057D01*
X123835713Y-128617057D02*
X123873809Y-128540866D01*
X123873809Y-128540866D02*
X123873809Y-128464676D01*
X123873809Y-128464676D02*
X123835713Y-128388485D01*
X123835713Y-128388485D02*
X123797618Y-128350390D01*
X123797618Y-128350390D02*
X123721428Y-128312295D01*
X123721428Y-128312295D02*
X123530951Y-128312295D01*
X123530951Y-128312295D02*
X123416666Y-128350390D01*
X122769046Y-129074200D02*
X122845237Y-129112295D01*
X122845237Y-129112295D02*
X122997618Y-129112295D01*
X122997618Y-129112295D02*
X123073808Y-129074200D01*
X123073808Y-129074200D02*
X123111904Y-128998009D01*
X123111904Y-128998009D02*
X123111904Y-128693247D01*
X123111904Y-128693247D02*
X123073808Y-128617057D01*
X123073808Y-128617057D02*
X122997618Y-128578961D01*
X122997618Y-128578961D02*
X122845237Y-128578961D01*
X122845237Y-128578961D02*
X122769046Y-128617057D01*
X122769046Y-128617057D02*
X122730951Y-128693247D01*
X122730951Y-128693247D02*
X122730951Y-128769438D01*
X122730951Y-128769438D02*
X123111904Y-128845628D01*
X122045237Y-128578961D02*
X122045237Y-129378961D01*
X122045237Y-129074200D02*
X122121428Y-129112295D01*
X122121428Y-129112295D02*
X122273809Y-129112295D01*
X122273809Y-129112295D02*
X122349999Y-129074200D01*
X122349999Y-129074200D02*
X122388094Y-129036104D01*
X122388094Y-129036104D02*
X122426190Y-128959914D01*
X122426190Y-128959914D02*
X122426190Y-128731342D01*
X122426190Y-128731342D02*
X122388094Y-128655152D01*
X122388094Y-128655152D02*
X122349999Y-128617057D01*
X122349999Y-128617057D02*
X122273809Y-128578961D01*
X122273809Y-128578961D02*
X122121428Y-128578961D01*
X122121428Y-128578961D02*
X122045237Y-128617057D01*
X121321427Y-128578961D02*
X121321427Y-129112295D01*
X121664284Y-128578961D02*
X121664284Y-128998009D01*
X121664284Y-128998009D02*
X121626189Y-129074200D01*
X121626189Y-129074200D02*
X121549999Y-129112295D01*
X121549999Y-129112295D02*
X121435713Y-129112295D01*
X121435713Y-129112295D02*
X121359522Y-129074200D01*
X121359522Y-129074200D02*
X121321427Y-129036104D01*
X120635712Y-129074200D02*
X120711903Y-129112295D01*
X120711903Y-129112295D02*
X120864284Y-129112295D01*
X120864284Y-129112295D02*
X120940474Y-129074200D01*
X120940474Y-129074200D02*
X120978570Y-128998009D01*
X120978570Y-128998009D02*
X120978570Y-128693247D01*
X120978570Y-128693247D02*
X120940474Y-128617057D01*
X120940474Y-128617057D02*
X120864284Y-128578961D01*
X120864284Y-128578961D02*
X120711903Y-128578961D01*
X120711903Y-128578961D02*
X120635712Y-128617057D01*
X120635712Y-128617057D02*
X120597617Y-128693247D01*
X120597617Y-128693247D02*
X120597617Y-128769438D01*
X120597617Y-128769438D02*
X120978570Y-128845628D01*
X120140475Y-129112295D02*
X120216665Y-129074200D01*
X120216665Y-129074200D02*
X120254760Y-128998009D01*
X120254760Y-128998009D02*
X120254760Y-128312295D01*
D13*
%TO.C,SW2*%
X122000000Y-123500000D02*
X122000000Y-125000000D01*
X123250000Y-127500000D02*
X127750000Y-127500000D01*
X127750000Y-121000000D02*
X123250000Y-121000000D01*
X129000000Y-125000000D02*
X129000000Y-123500000D01*
%TO.C,SW1*%
X157250000Y-124000000D02*
X157250000Y-125500000D01*
X158500000Y-128000000D02*
X163000000Y-128000000D01*
X163000000Y-121500000D02*
X158500000Y-121500000D01*
X164250000Y-125500000D02*
X164250000Y-124000000D01*
%TD*%
M02*
